ISO-10303-21;
HEADER;
/* C_Rect_L7.2mm_W3.5mm_P5.00mm.step 3D STEP model for use in ECAD systems
 * Copyright (C) 2026, KiCAD
 *
 * This work is licensed under the
 * [Creative Commons CC-BY-SA 4.0 License](https://creativecommons.org/licenses/by-sa/4.0/legalcode),
 * with the following exception:
 *
 * To the extent that the creation of electronic designs that use 'Licensed Material' can be
 * considered to be 'Adapted Material', then the copyright holder waives article 3 of the license
 * with respect to these designs and any generated files which use data provided as part of the
 * 'Licensed Material'.
 *
 * You are free to use the library data in your own projects without the obligation to share your
 * project files under this or any other license agreement. However, if you wish to distribute
 * these libraries, or parts thereof (including in modified form) as a collection then the exception
 * above does not apply. Please refer to
 * https://gitlab.com/kicad/libraries/kicad-packages3D/-/blob/master/LICENSE.md for further clarification
 * of the exception.
 *
 * Disclaimer of Warranties and Limitation of Liability.
 * These libraries are provided in the hope that they will be useful, but are provided without warranty of any kind, express or implied.
 * USE 3D CAD DATA AT YOUR OWN RISK
 * DO NOT RELY UPON ANY INFORMATION FOUND HERE WITHOUT INDEPENDENT VERIFICATION.
 */

FILE_DESCRIPTION(
/* description */ ('model of C_Rect_L7.2mm_W3.5mm_P5.00mm'),
/* implementation_level */ '2;1');

FILE_NAME(
/* name */ 'C_Rect_L7.2mm_W3.5mm_P5.00mm.step',
/* time_stamp */ '1970-01-01T00:00:00',
/* author */ ('KiCAD','kicad'),
/* organization */ ('OCCT'),
/* preprocessor_version */ '',
/* originating_system */ 'KiCAD',
/* authorisation */ '');

FILE_SCHEMA(('AUTOMOTIVE_DESIGN { 1 0 10303 214 1 1 1 1 }'));
ENDSEC;

DATA;
#1=APPLICATION_PROTOCOL_DEFINITION('international standard','automotive_design',2000,#2);
#2=APPLICATION_CONTEXT('core data for automotive mechanical design processes');
#3=SHAPE_DEFINITION_REPRESENTATION(#4,#10);
#4=PRODUCT_DEFINITION_SHAPE('','',#5);
#5=PRODUCT_DEFINITION('design','',#6,#9);
#6=PRODUCT_DEFINITION_FORMATION('','',#7);
#7=PRODUCT('C_Rect_L7.2mm_W3.5mm_P5.00mm','C_Rect_L7.2mm_W3.5mm_P5.00mm','',(#8));
#8=PRODUCT_CONTEXT('',#2,'mechanical');
#9=PRODUCT_DEFINITION_CONTEXT('part definition',#2,'design');
#10=ADVANCED_BREP_SHAPE_REPRESENTATION('',(#11,#15),#389);
#11=AXIS2_PLACEMENT_3D('',#12,#13,#14);
#12=CARTESIAN_POINT('',(0.,0.,0.));
#13=DIRECTION('',(0.,0.,1.));
#14=DIRECTION('',(1.,0.,-0.));
#15=MANIFOLD_SOLID_BREP('',#16);
#16=CLOSED_SHELL('',(#17,#49,#74,#97,#157,#174,#184,#198,#210,#232,#245,#263,#279,#288,#307,#325,#335,#348,#366,#372,#377,#383));
#17=ADVANCED_FACE('',(#18),#46,.F.);
#18=FACE_BOUND('',#19,.F.);
#19=EDGE_LOOP('',(#20,#28,#36,#41));
#20=ORIENTED_EDGE('',*,*,#21,.F.);
#21=EDGE_CURVE('',#22,#24,#26,.T.);
#22=VERTEX_POINT('',#23);
#23=CARTESIAN_POINT('',(-1.1,-1.4,0.));
#24=VERTEX_POINT('',#25);
#25=CARTESIAN_POINT('',(-1.1,-1.4,7.15));
#26=LINE('',#23,#27);
#27=VECTOR('',#13,1.);
#28=ORIENTED_EDGE('',*,*,#29,.T.);
#29=EDGE_CURVE('',#22,#30,#32,.T.);
#30=VERTEX_POINT('',#31);
#31=CARTESIAN_POINT('',(-1.1,1.4,0.));
#32=LINE('',#33,#34);
#33=CARTESIAN_POINT('',(-1.1,-1.75,0.));
#34=VECTOR('',#35,1.);
#35=DIRECTION('',(0.,1.,0.));
#36=ORIENTED_EDGE('',*,*,#37,.T.);
#37=EDGE_CURVE('',#30,#38,#40,.T.);
#38=VERTEX_POINT('',#39);
#39=CARTESIAN_POINT('',(-1.1,1.4,7.15));
#40=LINE('',#31,#27);
#41=ORIENTED_EDGE('',*,*,#42,.T.);
#42=EDGE_CURVE('',#38,#24,#43,.T.);
#43=LINE('',#39,#44);
#44=VECTOR('',#45,1.);
#45=DIRECTION('',(-0.,-1.,-0.));
#46=PLANE('',#47);
#47=AXIS2_PLACEMENT_3D('',#33,#48,#13);
#48=DIRECTION('',(1.,0.,0.));
#49=ADVANCED_FACE('',(#50),#71,.T.);
#50=FACE_BOUND('',#51,.T.);
#51=EDGE_LOOP('',(#20,#52,#60,#65));
#52=ORIENTED_EDGE('',*,*,#53,.T.);
#53=EDGE_CURVE('',#22,#54,#56,.T.);
#54=VERTEX_POINT('',#55);
#55=CARTESIAN_POINT('',(-0.75,-1.75,0.));
#56=CIRCLE('',#57,0.35);
#57=AXIS2_PLACEMENT_3D('',#58,#13,#59);
#58=CARTESIAN_POINT('',(-0.75,-1.4,0.));
#59=DIRECTION('',(0.,-1.,0.));
#60=ORIENTED_EDGE('',*,*,#61,.T.);
#61=EDGE_CURVE('',#54,#62,#64,.T.);
#62=VERTEX_POINT('',#63);
#63=CARTESIAN_POINT('',(-0.75,-1.75,7.15));
#64=LINE('',#55,#27);
#65=ORIENTED_EDGE('',*,*,#66,.F.);
#66=EDGE_CURVE('',#24,#62,#67,.T.);
#67=CIRCLE('',#68,0.35);
#68=AXIS2_PLACEMENT_3D('',#69,#13,#70);
#69=CARTESIAN_POINT('',(-0.75,-1.4,7.15));
#70=DIRECTION('',(-1.,0.,0.));
#71=CYLINDRICAL_SURFACE('',#72,0.35);
#72=AXIS2_PLACEMENT_3D('',#58,#13,#73);
#73=DIRECTION('',(-1.,-0.,0.));
#74=ADVANCED_FACE('',(#75),#95,.T.);
#75=FACE_BOUND('',#76,.T.);
#76=EDGE_LOOP('',(#77,#41,#86,#92));
#77=ORIENTED_EDGE('',*,*,#78,.T.);
#78=EDGE_CURVE('',#79,#38,#81,.T.);
#79=VERTEX_POINT('',#80);
#80=CARTESIAN_POINT('',(-0.75,1.4,7.5));
#81=CIRCLE('',#82,0.35);
#82=AXIS2_PLACEMENT_3D('',#83,#84,#85);
#83=CARTESIAN_POINT('',(-0.75,1.4,7.15));
#84=DIRECTION('',(-6.123233995737E-17,-1.,0.));
#85=DIRECTION('',(-1.,6.123233995737E-17,0.));
#86=ORIENTED_EDGE('',*,*,#87,.F.);
#87=EDGE_CURVE('',#88,#24,#90,.T.);
#88=VERTEX_POINT('',#89);
#89=CARTESIAN_POINT('',(-0.75,-1.4,7.5));
#90=CIRCLE('',#91,0.35);
#91=AXIS2_PLACEMENT_3D('',#69,#59,#70);
#92=ORIENTED_EDGE('',*,*,#93,.F.);
#93=EDGE_CURVE('',#79,#88,#94,.T.);
#94=LINE('',#80,#44);
#95=CYLINDRICAL_SURFACE('',#96,0.35);
#96=AXIS2_PLACEMENT_3D('',#83,#45,#13);
#97=ADVANCED_FACE('',(#98,#139,#146),#155,.F.);
#98=FACE_BOUND('',#99,.F.);
#99=EDGE_LOOP('',(#100,#52,#101,#107,#115,#121,#128,#134));
#100=ORIENTED_EDGE('',*,*,#29,.F.);
#101=ORIENTED_EDGE('',*,*,#102,.T.);
#102=EDGE_CURVE('',#54,#103,#105,.T.);
#103=VERTEX_POINT('',#104);
#104=CARTESIAN_POINT('',(5.75,-1.75,0.));
#105=LINE('',#33,#106);
#106=VECTOR('',#48,1.);
#107=ORIENTED_EDGE('',*,*,#108,.F.);
#108=EDGE_CURVE('',#109,#103,#111,.T.);
#109=VERTEX_POINT('',#110);
#110=CARTESIAN_POINT('',(6.1,-1.4,0.));
#111=CIRCLE('',#112,0.35);
#112=AXIS2_PLACEMENT_3D('',#113,#114,#59);
#113=CARTESIAN_POINT('',(5.75,-1.4,0.));
#114=DIRECTION('',(-0.,-0.,-1.));
#115=ORIENTED_EDGE('',*,*,#116,.T.);
#116=EDGE_CURVE('',#109,#117,#119,.T.);
#117=VERTEX_POINT('',#118);
#118=CARTESIAN_POINT('',(6.1,1.4,0.));
#119=LINE('',#120,#34);
#120=CARTESIAN_POINT('',(6.1,-1.75,0.));
#121=ORIENTED_EDGE('',*,*,#122,.T.);
#122=EDGE_CURVE('',#117,#123,#125,.T.);
#123=VERTEX_POINT('',#124);
#124=CARTESIAN_POINT('',(5.75,1.75,0.));
#125=CIRCLE('',#126,0.35);
#126=AXIS2_PLACEMENT_3D('',#127,#13,#59);
#127=CARTESIAN_POINT('',(5.75,1.4,0.));
#128=ORIENTED_EDGE('',*,*,#129,.F.);
#129=EDGE_CURVE('',#130,#123,#132,.T.);
#130=VERTEX_POINT('',#131);
#131=CARTESIAN_POINT('',(-0.75,1.75,0.));
#132=LINE('',#133,#106);
#133=CARTESIAN_POINT('',(-1.1,1.75,0.));
#134=ORIENTED_EDGE('',*,*,#135,.F.);
#135=EDGE_CURVE('',#30,#130,#136,.T.);
#136=CIRCLE('',#137,0.35);
#137=AXIS2_PLACEMENT_3D('',#138,#114,#59);
#138=CARTESIAN_POINT('',(-0.75,1.4,0.));
#139=FACE_BOUND('',#140,.F.);
#140=EDGE_LOOP('',(#141));
#141=ORIENTED_EDGE('',*,*,#142,.F.);
#142=EDGE_CURVE('',#143,#143,#145,.T.);
#143=VERTEX_POINT('',#144);
#144=CARTESIAN_POINT('',(0.25,0.,0.));
#145=CIRCLE('',#11,0.25);
#146=FACE_BOUND('',#147,.F.);
#147=EDGE_LOOP('',(#148));
#148=ORIENTED_EDGE('',*,*,#149,.F.);
#149=EDGE_CURVE('',#150,#150,#152,.T.);
#150=VERTEX_POINT('',#151);
#151=CARTESIAN_POINT('',(5.25,0.,0.));
#152=CIRCLE('',#153,0.25);
#153=AXIS2_PLACEMENT_3D('',#154,#13,#14);
#154=CARTESIAN_POINT('',(5.,0.,0.));
#155=PLANE('',#156);
#156=AXIS2_PLACEMENT_3D('',#33,#13,#48);
#157=ADVANCED_FACE('',(#158),#172,.T.);
#158=FACE_BOUND('',#159,.F.);
#159=EDGE_LOOP('',(#160,#161,#162,#167));
#160=ORIENTED_EDGE('',*,*,#37,.F.);
#161=ORIENTED_EDGE('',*,*,#135,.T.);
#162=ORIENTED_EDGE('',*,*,#163,.T.);
#163=EDGE_CURVE('',#130,#164,#166,.T.);
#164=VERTEX_POINT('',#165);
#165=CARTESIAN_POINT('',(-0.75,1.75,7.15));
#166=LINE('',#131,#27);
#167=ORIENTED_EDGE('',*,*,#168,.T.);
#168=EDGE_CURVE('',#164,#38,#169,.T.);
#169=CIRCLE('',#170,0.35);
#170=AXIS2_PLACEMENT_3D('',#83,#13,#171);
#171=DIRECTION('',(0.,1.,-0.));
#172=CYLINDRICAL_SURFACE('',#173,0.35);
#173=AXIS2_PLACEMENT_3D('',#138,#13,#73);
#174=ADVANCED_FACE('',(#175),#182,.T.);
#175=FACE_BOUND('',#176,.F.);
#176=EDGE_LOOP('',(#86,#177,#65));
#177=ORIENTED_EDGE('',*,*,#178,.T.);
#178=EDGE_CURVE('',#88,#62,#179,.T.);
#179=CIRCLE('',#180,0.35);
#180=AXIS2_PLACEMENT_3D('',#69,#181,#84);
#181=DIRECTION('',(1.,-6.123233995737E-17,0.));
#182=SPHERICAL_SURFACE('',#183,0.35);
#183=AXIS2_PLACEMENT_3D('',#69,#114,#70);
#184=ADVANCED_FACE('',(#185),#196,.F.);
#185=FACE_BOUND('',#186,.F.);
#186=EDGE_LOOP('',(#60,#187,#192,#195));
#187=ORIENTED_EDGE('',*,*,#188,.T.);
#188=EDGE_CURVE('',#62,#189,#191,.T.);
#189=VERTEX_POINT('',#190);
#190=CARTESIAN_POINT('',(5.75,-1.75,7.15));
#191=LINE('',#63,#106);
#192=ORIENTED_EDGE('',*,*,#193,.F.);
#193=EDGE_CURVE('',#103,#189,#194,.T.);
#194=LINE('',#104,#27);
#195=ORIENTED_EDGE('',*,*,#102,.F.);
#196=PLANE('',#197);
#197=AXIS2_PLACEMENT_3D('',#33,#35,#13);
#198=ADVANCED_FACE('',(#199),#208,.T.);
#199=FACE_BOUND('',#200,.F.);
#200=EDGE_LOOP('',(#201,#77,#207));
#201=ORIENTED_EDGE('',*,*,#202,.F.);
#202=EDGE_CURVE('',#79,#164,#203,.T.);
#203=CIRCLE('',#204,0.35);
#204=AXIS2_PLACEMENT_3D('',#83,#205,#206);
#205=DIRECTION('',(-1.,0.,-0.));
#206=DIRECTION('',(-0.,0.,1.));
#207=ORIENTED_EDGE('',*,*,#168,.F.);
#208=SPHERICAL_SURFACE('',#209,0.35);
#209=AXIS2_PLACEMENT_3D('',#83,#114,#171);
#210=ADVANCED_FACE('',(#211),#229,.T.);
#211=FACE_BOUND('',#212,.T.);
#212=EDGE_LOOP('',(#213,#218,#223,#228));
#213=ORIENTED_EDGE('',*,*,#214,.T.);
#214=EDGE_CURVE('',#88,#215,#217,.T.);
#215=VERTEX_POINT('',#216);
#216=CARTESIAN_POINT('',(5.75,-1.4,7.5));
#217=LINE('',#89,#106);
#218=ORIENTED_EDGE('',*,*,#219,.T.);
#219=EDGE_CURVE('',#215,#220,#222,.T.);
#220=VERTEX_POINT('',#221);
#221=CARTESIAN_POINT('',(5.75,1.4,7.5));
#222=LINE('',#216,#34);
#223=ORIENTED_EDGE('',*,*,#224,.T.);
#224=EDGE_CURVE('',#220,#79,#225,.T.);
#225=LINE('',#221,#226);
#226=VECTOR('',#227,1.);
#227=DIRECTION('',(-1.,-0.,-0.));
#228=ORIENTED_EDGE('',*,*,#93,.T.);
#229=PLANE('',#230);
#230=AXIS2_PLACEMENT_3D('',#231,#13,#48);
#231=CARTESIAN_POINT('',(-1.1,-1.75,7.5));
#232=ADVANCED_FACE('',(#233),#243,.T.);
#233=FACE_BOUND('',#234,.T.);
#234=EDGE_LOOP('',(#162,#235,#240,#128));
#235=ORIENTED_EDGE('',*,*,#236,.F.);
#236=EDGE_CURVE('',#237,#164,#239,.T.);
#237=VERTEX_POINT('',#238);
#238=CARTESIAN_POINT('',(5.75,1.75,7.15));
#239=LINE('',#238,#226);
#240=ORIENTED_EDGE('',*,*,#241,.F.);
#241=EDGE_CURVE('',#123,#237,#242,.T.);
#242=LINE('',#124,#27);
#243=PLANE('',#244);
#244=AXIS2_PLACEMENT_3D('',#133,#35,#13);
#245=ADVANCED_FACE('',(#246),#261,.T.);
#246=FACE_BOUND('',#247,.F.);
#247=EDGE_LOOP('',(#248,#253,#254,#255));
#248=ORIENTED_EDGE('',*,*,#249,.F.);
#249=EDGE_CURVE('',#109,#250,#252,.T.);
#250=VERTEX_POINT('',#251);
#251=CARTESIAN_POINT('',(6.1,-1.4,7.15));
#252=LINE('',#110,#27);
#253=ORIENTED_EDGE('',*,*,#108,.T.);
#254=ORIENTED_EDGE('',*,*,#193,.T.);
#255=ORIENTED_EDGE('',*,*,#256,.T.);
#256=EDGE_CURVE('',#189,#250,#257,.T.);
#257=CIRCLE('',#258,0.35);
#258=AXIS2_PLACEMENT_3D('',#259,#13,#260);
#259=CARTESIAN_POINT('',(5.75,-1.4,7.15));
#260=DIRECTION('',(1.268826313857E-15,-1.,0.));
#261=CYLINDRICAL_SURFACE('',#262,0.35);
#262=AXIS2_PLACEMENT_3D('',#113,#13,#14);
#263=ADVANCED_FACE('',(#264),#277,.T.);
#264=FACE_BOUND('',#265,.T.);
#265=EDGE_LOOP('',(#266,#121,#271,#272));
#266=ORIENTED_EDGE('',*,*,#267,.F.);
#267=EDGE_CURVE('',#117,#268,#270,.T.);
#268=VERTEX_POINT('',#269);
#269=CARTESIAN_POINT('',(6.1,1.4,7.15));
#270=LINE('',#118,#27);
#271=ORIENTED_EDGE('',*,*,#241,.T.);
#272=ORIENTED_EDGE('',*,*,#273,.F.);
#273=EDGE_CURVE('',#268,#237,#274,.T.);
#274=CIRCLE('',#275,0.35);
#275=AXIS2_PLACEMENT_3D('',#276,#13,#14);
#276=CARTESIAN_POINT('',(5.75,1.4,7.15));
#277=CYLINDRICAL_SURFACE('',#278,0.35);
#278=AXIS2_PLACEMENT_3D('',#127,#13,#14);
#279=ADVANCED_FACE('',(#280),#286,.T.);
#280=FACE_BOUND('',#281,.T.);
#281=EDGE_LOOP('',(#248,#115,#282,#283));
#282=ORIENTED_EDGE('',*,*,#267,.T.);
#283=ORIENTED_EDGE('',*,*,#284,.F.);
#284=EDGE_CURVE('',#250,#268,#285,.T.);
#285=LINE('',#251,#34);
#286=PLANE('',#287);
#287=AXIS2_PLACEMENT_3D('',#120,#48,#13);
#288=ADVANCED_FACE('',(#289),#304,.T.);
#289=FACE_BOUND('',#290,.T.);
#290=EDGE_LOOP('',(#141,#291,#298,#303));
#291=ORIENTED_EDGE('',*,*,#292,.T.);
#292=EDGE_CURVE('',#143,#293,#295,.T.);
#293=VERTEX_POINT('',#294);
#294=CARTESIAN_POINT('',(0.25,0.,-3.9));
#295=LINE('',#296,#297);
#296=CARTESIAN_POINT('',(0.25,0.,0.1));
#297=VECTOR('',#114,1.);
#298=ORIENTED_EDGE('',*,*,#299,.T.);
#299=EDGE_CURVE('',#293,#293,#300,.T.);
#300=CIRCLE('',#301,0.25);
#301=AXIS2_PLACEMENT_3D('',#302,#13,#48);
#302=CARTESIAN_POINT('',(0.,0.,-3.9));
#303=ORIENTED_EDGE('',*,*,#292,.F.);
#304=CYLINDRICAL_SURFACE('',#305,0.25);
#305=AXIS2_PLACEMENT_3D('',#306,#13,#48);
#306=CARTESIAN_POINT('',(0.,0.,0.1));
#307=ADVANCED_FACE('',(#308),#322,.T.);
#308=FACE_BOUND('',#309,.T.);
#309=EDGE_LOOP('',(#148,#310,#316,#321));
#310=ORIENTED_EDGE('',*,*,#311,.T.);
#311=EDGE_CURVE('',#150,#312,#314,.T.);
#312=VERTEX_POINT('',#313);
#313=CARTESIAN_POINT('',(5.25,0.,-3.9));
#314=LINE('',#315,#297);
#315=CARTESIAN_POINT('',(5.25,0.,0.1));
#316=ORIENTED_EDGE('',*,*,#317,.T.);
#317=EDGE_CURVE('',#312,#312,#318,.T.);
#318=CIRCLE('',#319,0.25);
#319=AXIS2_PLACEMENT_3D('',#320,#13,#48);
#320=CARTESIAN_POINT('',(5.,0.,-3.9));
#321=ORIENTED_EDGE('',*,*,#311,.F.);
#322=CYLINDRICAL_SURFACE('',#323,0.25);
#323=AXIS2_PLACEMENT_3D('',#324,#13,#48);
#324=CARTESIAN_POINT('',(5.,0.,0.1));
#325=ADVANCED_FACE('',(#326),#333,.T.);
#326=FACE_BOUND('',#327,.T.);
#327=EDGE_LOOP('',(#177,#187,#328,#332));
#328=ORIENTED_EDGE('',*,*,#329,.F.);
#329=EDGE_CURVE('',#215,#189,#330,.T.);
#330=CIRCLE('',#331,0.35);
#331=AXIS2_PLACEMENT_3D('',#259,#14,#13);
#332=ORIENTED_EDGE('',*,*,#214,.F.);
#333=CYLINDRICAL_SURFACE('',#334,0.35);
#334=AXIS2_PLACEMENT_3D('',#69,#48,#13);
#335=ADVANCED_FACE('',(#336),#346,.T.);
#336=FACE_BOUND('',#337,.T.);
#337=EDGE_LOOP('',(#338,#344,#201,#345));
#338=ORIENTED_EDGE('',*,*,#339,.T.);
#339=EDGE_CURVE('',#220,#237,#340,.T.);
#340=CIRCLE('',#341,0.35);
#341=AXIS2_PLACEMENT_3D('',#276,#342,#343);
#342=DIRECTION('',(-1.,7.273661547325E-16,0.));
#343=DIRECTION('',(7.273661547325E-16,1.,0.));
#344=ORIENTED_EDGE('',*,*,#236,.T.);
#345=ORIENTED_EDGE('',*,*,#224,.F.);
#346=CYLINDRICAL_SURFACE('',#347,0.35);
#347=AXIS2_PLACEMENT_3D('',#276,#227,#206);
#348=ADVANCED_FACE('',(#349),#364,.T.);
#349=FACE_BOUND('',#350,.T.);
#350=EDGE_LOOP('',(#351,#357,#358,#363));
#351=ORIENTED_EDGE('',*,*,#352,.T.);
#352=EDGE_CURVE('',#215,#250,#353,.T.);
#353=CIRCLE('',#354,0.35);
#354=AXIS2_PLACEMENT_3D('',#259,#355,#356);
#355=DIRECTION('',(-1.2075939739E-15,1.,0.));
#356=DIRECTION('',(1.,1.2075939739E-15,0.));
#357=ORIENTED_EDGE('',*,*,#284,.T.);
#358=ORIENTED_EDGE('',*,*,#359,.F.);
#359=EDGE_CURVE('',#220,#268,#360,.T.);
#360=CIRCLE('',#361,0.35);
#361=AXIS2_PLACEMENT_3D('',#276,#35,#362);
#362=DIRECTION('',(0.,-0.,1.));
#363=ORIENTED_EDGE('',*,*,#219,.F.);
#364=CYLINDRICAL_SURFACE('',#365,0.35);
#365=AXIS2_PLACEMENT_3D('',#259,#35,#362);
#366=ADVANCED_FACE('',(#367),#370,.T.);
#367=FACE_BOUND('',#368,.F.);
#368=EDGE_LOOP('',(#328,#351,#369));
#369=ORIENTED_EDGE('',*,*,#256,.F.);
#370=SPHERICAL_SURFACE('',#371,0.35);
#371=AXIS2_PLACEMENT_3D('',#259,#114,#260);
#372=ADVANCED_FACE('',(#373),#375,.T.);
#373=FACE_BOUND('',#374,.F.);
#374=EDGE_LOOP('',(#358,#338,#272));
#375=SPHERICAL_SURFACE('',#376,0.35);
#376=AXIS2_PLACEMENT_3D('',#276,#114,#48);
#377=ADVANCED_FACE('',(#378),#380,.F.);
#378=FACE_BOUND('',#379,.F.);
#379=EDGE_LOOP('',(#298));
#380=PLANE('',#381);
#381=AXIS2_PLACEMENT_3D('',#382,#13,#14);
#382=CARTESIAN_POINT('',(-4.440892098501E-16,2.18439881135E-17,-3.9));
#383=ADVANCED_FACE('',(#384),#386,.F.);
#384=FACE_BOUND('',#385,.F.);
#385=EDGE_LOOP('',(#316));
#386=PLANE('',#387);
#387=AXIS2_PLACEMENT_3D('',#388,#13,#14);
#388=CARTESIAN_POINT('',(5.,2.18439881135E-17,-3.9));
#389=( GEOMETRIC_REPRESENTATION_CONTEXT(3) GLOBAL_UNCERTAINTY_ASSIGNED_CONTEXT((#393)) GLOBAL_UNIT_ASSIGNED_CONTEXT((#390,#391,#392)) REPRESENTATION_CONTEXT('Context #1','3D Context with UNIT and UNCERTAINTY') );
#390=( LENGTH_UNIT() NAMED_UNIT(*) SI_UNIT(.MILLI.,.METRE.) );
#391=( NAMED_UNIT(*) PLANE_ANGLE_UNIT() SI_UNIT($,.RADIAN.) );
#392=( NAMED_UNIT(*) SI_UNIT($,.STERADIAN.) SOLID_ANGLE_UNIT() );
#393=UNCERTAINTY_MEASURE_WITH_UNIT(LENGTH_MEASURE(1.E-07),#390,'distance_accuracy_value','confusion accuracy');
#394=PRODUCT_RELATED_PRODUCT_CATEGORY('part',$,(#7));
#395=MECHANICAL_DESIGN_GEOMETRIC_PRESENTATION_REPRESENTATION('',(#396,#406,#407,#408,#409,#418,#419,#420,#421,#422,#423,#424,#425,#426,#427,#428,#429,#430,#431,#432,#433,#434,#435,#436),#389);
#396=STYLED_ITEM('color',(#397),#17);
#397=PRESENTATION_STYLE_ASSIGNMENT((#398,#404));
#398=SURFACE_STYLE_USAGE(.BOTH.,#399);
#399=SURFACE_SIDE_STYLE('',(#400));
#400=SURFACE_STYLE_FILL_AREA(#401);
#401=FILL_AREA_STYLE('',(#402));
#402=FILL_AREA_STYLE_COLOUR('',#403);
#403=COLOUR_RGB('',0.894999996726,0.890999991539,0.812999995914);
#404=CURVE_STYLE('',#405,POSITIVE_LENGTH_MEASURE(0.1),#403);
#405=DRAUGHTING_PRE_DEFINED_CURVE_FONT('continuous');
#406=STYLED_ITEM('color',(#397),#49);
#407=STYLED_ITEM('color',(#397),#74);
#408=STYLED_ITEM('color',(#397),#97);
#409=OVER_RIDING_STYLED_ITEM('overriding color',(#410),#142,#408);
#410=PRESENTATION_STYLE_ASSIGNMENT((#411,#417));
#411=SURFACE_STYLE_USAGE(.BOTH.,#412);
#412=SURFACE_SIDE_STYLE('',(#413));
#413=SURFACE_STYLE_FILL_AREA(#414);
#414=FILL_AREA_STYLE('',(#415));
#415=FILL_AREA_STYLE_COLOUR('',#416);
#416=COLOUR_RGB('',0.823999987314,0.819999987296,0.781000009244);
#417=CURVE_STYLE('',#405,POSITIVE_LENGTH_MEASURE(0.1),#416);
#418=OVER_RIDING_STYLED_ITEM('overriding color',(#410),#149,#408);
#419=STYLED_ITEM('color',(#397),#157);
#420=STYLED_ITEM('color',(#397),#174);
#421=STYLED_ITEM('color',(#397),#184);
#422=STYLED_ITEM('color',(#397),#198);
#423=STYLED_ITEM('color',(#397),#210);
#424=STYLED_ITEM('color',(#397),#232);
#425=STYLED_ITEM('color',(#397),#245);
#426=STYLED_ITEM('color',(#397),#263);
#427=STYLED_ITEM('color',(#397),#279);
#428=STYLED_ITEM('color',(#410),#288);
#429=STYLED_ITEM('color',(#410),#307);
#430=STYLED_ITEM('color',(#397),#325);
#431=STYLED_ITEM('color',(#397),#335);
#432=STYLED_ITEM('color',(#397),#348);
#433=STYLED_ITEM('color',(#397),#366);
#434=STYLED_ITEM('color',(#397),#372);
#435=STYLED_ITEM('color',(#410),#377);
#436=STYLED_ITEM('color',(#410),#383);
ENDSEC;
END-ISO-10303-21;
