ISO-10303-21;
HEADER;
/* C_Rect_L7.2mm_W4.5mm_P5.00mm.step 3D STEP model for use in ECAD systems
 * Copyright (C) 2026, KiCAD
 *
 * This work is licensed under the
 * [Creative Commons CC-BY-SA 4.0 License](https://creativecommons.org/licenses/by-sa/4.0/legalcode),
 * with the following exception:
 *
 * To the extent that the creation of electronic designs that use 'Licensed Material' can be
 * considered to be 'Adapted Material', then the copyright holder waives article 3 of the license
 * with respect to these designs and any generated files which use data provided as part of the
 * 'Licensed Material'.
 *
 * You are free to use the library data in your own projects without the obligation to share your
 * project files under this or any other license agreement. However, if you wish to distribute
 * these libraries, or parts thereof (including in modified form) as a collection then the exception
 * above does not apply. Please refer to
 * https://gitlab.com/kicad/libraries/kicad-packages3D/-/blob/master/LICENSE.md for further clarification
 * of the exception.
 *
 * Disclaimer of Warranties and Limitation of Liability.
 * These libraries are provided in the hope that they will be useful, but are provided without warranty of any kind, express or implied.
 * USE 3D CAD DATA AT YOUR OWN RISK
 * DO NOT RELY UPON ANY INFORMATION FOUND HERE WITHOUT INDEPENDENT VERIFICATION.
 */

FILE_DESCRIPTION(
/* description */ ('model of C_Rect_L7.2mm_W4.5mm_P5.00mm'),
/* implementation_level */ '2;1');

FILE_NAME(
/* name */ 'C_Rect_L7.2mm_W4.5mm_P5.00mm.step',
/* time_stamp */ '1970-01-01T00:00:00',
/* author */ ('KiCAD','kicad'),
/* organization */ ('OCCT'),
/* preprocessor_version */ '',
/* originating_system */ 'KiCAD',
/* authorisation */ '');

FILE_SCHEMA(('AUTOMOTIVE_DESIGN { 1 0 10303 214 1 1 1 1 }'));
ENDSEC;

DATA;
#1=APPLICATION_PROTOCOL_DEFINITION('international standard','automotive_design',2000,#2);
#2=APPLICATION_CONTEXT('core data for automotive mechanical design processes');
#3=SHAPE_DEFINITION_REPRESENTATION(#4,#10);
#4=PRODUCT_DEFINITION_SHAPE('','',#5);
#5=PRODUCT_DEFINITION('design','',#6,#9);
#6=PRODUCT_DEFINITION_FORMATION('','',#7);
#7=PRODUCT('C_Rect_L7.2mm_W4.5mm_P5.00mm','C_Rect_L7.2mm_W4.5mm_P5.00mm','',(#8));
#8=PRODUCT_CONTEXT('',#2,'mechanical');
#9=PRODUCT_DEFINITION_CONTEXT('part definition',#2,'design');
#10=ADVANCED_BREP_SHAPE_REPRESENTATION('',(#11,#15),#388);
#11=AXIS2_PLACEMENT_3D('',#12,#13,#14);
#12=CARTESIAN_POINT('',(0.,0.,0.));
#13=DIRECTION('',(0.,0.,1.));
#14=DIRECTION('',(1.,0.,-0.));
#15=MANIFOLD_SOLID_BREP('',#16);
#16=CLOSED_SHELL('',(#17,#47,#72,#93,#152,#170,#179,#195,#217,#229,#242,#260,#277,#286,#305,#323,#335,#347,#365,#371,#376,#382));
#17=ADVANCED_FACE('',(#18),#44,.F.);
#18=FACE_BOUND('',#19,.F.);
#19=EDGE_LOOP('',(#20,#28,#36,#41));
#20=ORIENTED_EDGE('',*,*,#21,.F.);
#21=EDGE_CURVE('',#22,#24,#26,.T.);
#22=VERTEX_POINT('',#23);
#23=CARTESIAN_POINT('',(-1.1,-1.8,0.));
#24=VERTEX_POINT('',#25);
#25=CARTESIAN_POINT('',(-1.1,-1.8,9.05));
#26=LINE('',#23,#27);
#27=VECTOR('',#13,1.);
#28=ORIENTED_EDGE('',*,*,#29,.T.);
#29=EDGE_CURVE('',#22,#30,#32,.T.);
#30=VERTEX_POINT('',#31);
#31=CARTESIAN_POINT('',(-1.1,1.8,0.));
#32=LINE('',#33,#34);
#33=CARTESIAN_POINT('',(-1.1,-2.25,0.));
#34=VECTOR('',#35,1.);
#35=DIRECTION('',(0.,1.,0.));
#36=ORIENTED_EDGE('',*,*,#37,.T.);
#37=EDGE_CURVE('',#30,#38,#40,.T.);
#38=VERTEX_POINT('',#39);
#39=CARTESIAN_POINT('',(-1.1,1.8,9.05));
#40=LINE('',#31,#27);
#41=ORIENTED_EDGE('',*,*,#42,.F.);
#42=EDGE_CURVE('',#24,#38,#43,.T.);
#43=LINE('',#25,#34);
#44=PLANE('',#45);
#45=AXIS2_PLACEMENT_3D('',#33,#46,#13);
#46=DIRECTION('',(1.,0.,0.));
#47=ADVANCED_FACE('',(#48),#69,.T.);
#48=FACE_BOUND('',#49,.T.);
#49=EDGE_LOOP('',(#20,#50,#58,#63));
#50=ORIENTED_EDGE('',*,*,#51,.T.);
#51=EDGE_CURVE('',#22,#52,#54,.T.);
#52=VERTEX_POINT('',#53);
#53=CARTESIAN_POINT('',(-0.65,-2.25,0.));
#54=CIRCLE('',#55,0.45);
#55=AXIS2_PLACEMENT_3D('',#56,#13,#57);
#56=CARTESIAN_POINT('',(-0.65,-1.8,0.));
#57=DIRECTION('',(0.,-1.,0.));
#58=ORIENTED_EDGE('',*,*,#59,.T.);
#59=EDGE_CURVE('',#52,#60,#62,.T.);
#60=VERTEX_POINT('',#61);
#61=CARTESIAN_POINT('',(-0.65,-2.25,9.05));
#62=LINE('',#53,#27);
#63=ORIENTED_EDGE('',*,*,#64,.T.);
#64=EDGE_CURVE('',#60,#24,#65,.T.);
#65=CIRCLE('',#66,0.45);
#66=AXIS2_PLACEMENT_3D('',#67,#68,#57);
#67=CARTESIAN_POINT('',(-0.65,-1.8,9.05));
#68=DIRECTION('',(-0.,-0.,-1.));
#69=CYLINDRICAL_SURFACE('',#70,0.45);
#70=AXIS2_PLACEMENT_3D('',#56,#13,#71);
#71=DIRECTION('',(-1.,-0.,0.));
#72=ADVANCED_FACE('',(#73),#92,.T.);
#73=FACE_BOUND('',#74,.T.);
#74=EDGE_LOOP('',(#75,#82,#87,#41));
#75=ORIENTED_EDGE('',*,*,#76,.T.);
#76=EDGE_CURVE('',#24,#77,#79,.T.);
#77=VERTEX_POINT('',#78);
#78=CARTESIAN_POINT('',(-0.65,-1.8,9.5));
#79=CIRCLE('',#80,0.45);
#80=AXIS2_PLACEMENT_3D('',#67,#35,#81);
#81=DIRECTION('',(-1.,0.,0.));
#82=ORIENTED_EDGE('',*,*,#83,.T.);
#83=EDGE_CURVE('',#77,#84,#86,.T.);
#84=VERTEX_POINT('',#85);
#85=CARTESIAN_POINT('',(-0.65,1.8,9.5));
#86=LINE('',#78,#34);
#87=ORIENTED_EDGE('',*,*,#88,.F.);
#88=EDGE_CURVE('',#38,#84,#89,.T.);
#89=CIRCLE('',#90,0.45);
#90=AXIS2_PLACEMENT_3D('',#91,#35,#81);
#91=CARTESIAN_POINT('',(-0.65,1.8,9.05));
#92=CYLINDRICAL_SURFACE('',#80,0.45);
#93=ADVANCED_FACE('',(#94,#134,#141),#150,.F.);
#94=FACE_BOUND('',#95,.F.);
#95=EDGE_LOOP('',(#96,#50,#97,#103,#110,#116,#123,#129));
#96=ORIENTED_EDGE('',*,*,#29,.F.);
#97=ORIENTED_EDGE('',*,*,#98,.T.);
#98=EDGE_CURVE('',#52,#99,#101,.T.);
#99=VERTEX_POINT('',#100);
#100=CARTESIAN_POINT('',(5.65,-2.25,0.));
#101=LINE('',#33,#102);
#102=VECTOR('',#46,1.);
#103=ORIENTED_EDGE('',*,*,#104,.F.);
#104=EDGE_CURVE('',#105,#99,#107,.T.);
#105=VERTEX_POINT('',#106);
#106=CARTESIAN_POINT('',(6.1,-1.8,0.));
#107=CIRCLE('',#108,0.45);
#108=AXIS2_PLACEMENT_3D('',#109,#68,#57);
#109=CARTESIAN_POINT('',(5.65,-1.8,0.));
#110=ORIENTED_EDGE('',*,*,#111,.T.);
#111=EDGE_CURVE('',#105,#112,#114,.T.);
#112=VERTEX_POINT('',#113);
#113=CARTESIAN_POINT('',(6.1,1.8,0.));
#114=LINE('',#115,#34);
#115=CARTESIAN_POINT('',(6.1,-2.25,0.));
#116=ORIENTED_EDGE('',*,*,#117,.T.);
#117=EDGE_CURVE('',#112,#118,#120,.T.);
#118=VERTEX_POINT('',#119);
#119=CARTESIAN_POINT('',(5.65,2.25,0.));
#120=CIRCLE('',#121,0.45);
#121=AXIS2_PLACEMENT_3D('',#122,#13,#57);
#122=CARTESIAN_POINT('',(5.65,1.8,0.));
#123=ORIENTED_EDGE('',*,*,#124,.F.);
#124=EDGE_CURVE('',#125,#118,#127,.T.);
#125=VERTEX_POINT('',#126);
#126=CARTESIAN_POINT('',(-0.65,2.25,0.));
#127=LINE('',#128,#102);
#128=CARTESIAN_POINT('',(-1.1,2.25,0.));
#129=ORIENTED_EDGE('',*,*,#130,.F.);
#130=EDGE_CURVE('',#30,#125,#131,.T.);
#131=CIRCLE('',#132,0.45);
#132=AXIS2_PLACEMENT_3D('',#133,#68,#57);
#133=CARTESIAN_POINT('',(-0.65,1.8,0.));
#134=FACE_BOUND('',#135,.F.);
#135=EDGE_LOOP('',(#136));
#136=ORIENTED_EDGE('',*,*,#137,.F.);
#137=EDGE_CURVE('',#138,#138,#140,.T.);
#138=VERTEX_POINT('',#139);
#139=CARTESIAN_POINT('',(0.25,0.,0.));
#140=CIRCLE('',#11,0.25);
#141=FACE_BOUND('',#142,.F.);
#142=EDGE_LOOP('',(#143));
#143=ORIENTED_EDGE('',*,*,#144,.F.);
#144=EDGE_CURVE('',#145,#145,#147,.T.);
#145=VERTEX_POINT('',#146);
#146=CARTESIAN_POINT('',(5.25,0.,0.));
#147=CIRCLE('',#148,0.25);
#148=AXIS2_PLACEMENT_3D('',#149,#13,#14);
#149=CARTESIAN_POINT('',(5.,0.,0.));
#150=PLANE('',#151);
#151=AXIS2_PLACEMENT_3D('',#33,#13,#46);
#152=ADVANCED_FACE('',(#153),#168,.T.);
#153=FACE_BOUND('',#154,.F.);
#154=EDGE_LOOP('',(#155,#156,#157,#162));
#155=ORIENTED_EDGE('',*,*,#37,.F.);
#156=ORIENTED_EDGE('',*,*,#130,.T.);
#157=ORIENTED_EDGE('',*,*,#158,.T.);
#158=EDGE_CURVE('',#125,#159,#161,.T.);
#159=VERTEX_POINT('',#160);
#160=CARTESIAN_POINT('',(-0.65,2.25,9.05));
#161=LINE('',#126,#27);
#162=ORIENTED_EDGE('',*,*,#163,.F.);
#163=EDGE_CURVE('',#38,#159,#164,.T.);
#164=CIRCLE('',#165,0.45);
#165=AXIS2_PLACEMENT_3D('',#91,#166,#167);
#166=DIRECTION('',(-0.,0.,-1.));
#167=DIRECTION('',(-1.,4.93432455389E-16,0.));
#168=CYLINDRICAL_SURFACE('',#169,0.45);
#169=AXIS2_PLACEMENT_3D('',#133,#13,#71);
#170=ADVANCED_FACE('',(#171),#177,.T.);
#171=FACE_BOUND('',#172,.F.);
#172=EDGE_LOOP('',(#173,#63,#75));
#173=ORIENTED_EDGE('',*,*,#174,.F.);
#174=EDGE_CURVE('',#60,#77,#175,.T.);
#175=CIRCLE('',#176,0.45);
#176=AXIS2_PLACEMENT_3D('',#67,#71,#57);
#177=SPHERICAL_SURFACE('',#178,0.45);
#178=AXIS2_PLACEMENT_3D('',#67,#13,#57);
#179=ADVANCED_FACE('',(#180),#193,.F.);
#180=FACE_BOUND('',#181,.F.);
#181=EDGE_LOOP('',(#58,#182,#189,#192));
#182=ORIENTED_EDGE('',*,*,#183,.F.);
#183=EDGE_CURVE('',#184,#60,#186,.T.);
#184=VERTEX_POINT('',#185);
#185=CARTESIAN_POINT('',(5.65,-2.25,9.05));
#186=LINE('',#185,#187);
#187=VECTOR('',#188,1.);
#188=DIRECTION('',(-1.,-0.,-0.));
#189=ORIENTED_EDGE('',*,*,#190,.F.);
#190=EDGE_CURVE('',#99,#184,#191,.T.);
#191=LINE('',#100,#27);
#192=ORIENTED_EDGE('',*,*,#98,.F.);
#193=PLANE('',#194);
#194=AXIS2_PLACEMENT_3D('',#33,#35,#13);
#195=ADVANCED_FACE('',(#196),#214,.T.);
#196=FACE_BOUND('',#197,.T.);
#197=EDGE_LOOP('',(#198,#199,#204,#211));
#198=ORIENTED_EDGE('',*,*,#83,.F.);
#199=ORIENTED_EDGE('',*,*,#200,.F.);
#200=EDGE_CURVE('',#201,#77,#203,.T.);
#201=VERTEX_POINT('',#202);
#202=CARTESIAN_POINT('',(5.65,-1.8,9.5));
#203=LINE('',#202,#187);
#204=ORIENTED_EDGE('',*,*,#205,.F.);
#205=EDGE_CURVE('',#206,#201,#208,.T.);
#206=VERTEX_POINT('',#207);
#207=CARTESIAN_POINT('',(5.65,1.8,9.5));
#208=LINE('',#207,#209);
#209=VECTOR('',#210,1.);
#210=DIRECTION('',(-0.,-1.,-0.));
#211=ORIENTED_EDGE('',*,*,#212,.F.);
#212=EDGE_CURVE('',#84,#206,#213,.T.);
#213=LINE('',#85,#102);
#214=PLANE('',#215);
#215=AXIS2_PLACEMENT_3D('',#216,#13,#46);
#216=CARTESIAN_POINT('',(-1.1,-2.25,9.5));
#217=ADVANCED_FACE('',(#218),#227,.T.);
#218=FACE_BOUND('',#219,.F.);
#219=EDGE_LOOP('',(#87,#220,#221));
#220=ORIENTED_EDGE('',*,*,#163,.T.);
#221=ORIENTED_EDGE('',*,*,#222,.T.);
#222=EDGE_CURVE('',#159,#84,#223,.T.);
#223=CIRCLE('',#224,0.45);
#224=AXIS2_PLACEMENT_3D('',#91,#225,#226);
#225=DIRECTION('',(1.,-4.322001154316E-16,0.));
#226=DIRECTION('',(4.322001154316E-16,1.,0.));
#227=SPHERICAL_SURFACE('',#228,0.45);
#228=AXIS2_PLACEMENT_3D('',#91,#13,#167);
#229=ADVANCED_FACE('',(#230),#240,.T.);
#230=FACE_BOUND('',#231,.T.);
#231=EDGE_LOOP('',(#157,#232,#237,#123));
#232=ORIENTED_EDGE('',*,*,#233,.T.);
#233=EDGE_CURVE('',#159,#234,#236,.T.);
#234=VERTEX_POINT('',#235);
#235=CARTESIAN_POINT('',(5.65,2.25,9.05));
#236=LINE('',#160,#102);
#237=ORIENTED_EDGE('',*,*,#238,.F.);
#238=EDGE_CURVE('',#118,#234,#239,.T.);
#239=LINE('',#119,#27);
#240=PLANE('',#241);
#241=AXIS2_PLACEMENT_3D('',#128,#35,#13);
#242=ADVANCED_FACE('',(#243),#258,.T.);
#243=FACE_BOUND('',#244,.F.);
#244=EDGE_LOOP('',(#245,#250,#251,#252));
#245=ORIENTED_EDGE('',*,*,#246,.F.);
#246=EDGE_CURVE('',#105,#247,#249,.T.);
#247=VERTEX_POINT('',#248);
#248=CARTESIAN_POINT('',(6.1,-1.8,9.05));
#249=LINE('',#106,#27);
#250=ORIENTED_EDGE('',*,*,#104,.T.);
#251=ORIENTED_EDGE('',*,*,#190,.T.);
#252=ORIENTED_EDGE('',*,*,#253,.F.);
#253=EDGE_CURVE('',#247,#184,#254,.T.);
#254=CIRCLE('',#255,0.45);
#255=AXIS2_PLACEMENT_3D('',#256,#257,#14);
#256=CARTESIAN_POINT('',(5.65,-1.8,9.05));
#257=DIRECTION('',(0.,-0.,-1.));
#258=CYLINDRICAL_SURFACE('',#259,0.45);
#259=AXIS2_PLACEMENT_3D('',#109,#13,#14);
#260=ADVANCED_FACE('',(#261),#275,.T.);
#261=FACE_BOUND('',#262,.T.);
#262=EDGE_LOOP('',(#263,#116,#268,#269));
#263=ORIENTED_EDGE('',*,*,#264,.F.);
#264=EDGE_CURVE('',#112,#265,#267,.T.);
#265=VERTEX_POINT('',#266);
#266=CARTESIAN_POINT('',(6.1,1.8,9.05));
#267=LINE('',#113,#27);
#268=ORIENTED_EDGE('',*,*,#238,.T.);
#269=ORIENTED_EDGE('',*,*,#270,.T.);
#270=EDGE_CURVE('',#234,#265,#271,.T.);
#271=CIRCLE('',#272,0.45);
#272=AXIS2_PLACEMENT_3D('',#273,#257,#274);
#273=CARTESIAN_POINT('',(5.65,1.8,9.05));
#274=DIRECTION('',(9.868649107779E-16,1.,-0.));
#275=CYLINDRICAL_SURFACE('',#276,0.45);
#276=AXIS2_PLACEMENT_3D('',#122,#13,#14);
#277=ADVANCED_FACE('',(#278),#284,.T.);
#278=FACE_BOUND('',#279,.T.);
#279=EDGE_LOOP('',(#245,#110,#280,#281));
#280=ORIENTED_EDGE('',*,*,#264,.T.);
#281=ORIENTED_EDGE('',*,*,#282,.T.);
#282=EDGE_CURVE('',#265,#247,#283,.T.);
#283=LINE('',#266,#209);
#284=PLANE('',#285);
#285=AXIS2_PLACEMENT_3D('',#115,#46,#13);
#286=ADVANCED_FACE('',(#287),#302,.T.);
#287=FACE_BOUND('',#288,.T.);
#288=EDGE_LOOP('',(#136,#289,#296,#301));
#289=ORIENTED_EDGE('',*,*,#290,.T.);
#290=EDGE_CURVE('',#138,#291,#293,.T.);
#291=VERTEX_POINT('',#292);
#292=CARTESIAN_POINT('',(0.25,0.,-3.9));
#293=LINE('',#294,#295);
#294=CARTESIAN_POINT('',(0.25,0.,0.1));
#295=VECTOR('',#68,1.);
#296=ORIENTED_EDGE('',*,*,#297,.T.);
#297=EDGE_CURVE('',#291,#291,#298,.T.);
#298=CIRCLE('',#299,0.25);
#299=AXIS2_PLACEMENT_3D('',#300,#13,#46);
#300=CARTESIAN_POINT('',(0.,0.,-3.9));
#301=ORIENTED_EDGE('',*,*,#290,.F.);
#302=CYLINDRICAL_SURFACE('',#303,0.25);
#303=AXIS2_PLACEMENT_3D('',#304,#13,#46);
#304=CARTESIAN_POINT('',(0.,0.,0.1));
#305=ADVANCED_FACE('',(#306),#320,.T.);
#306=FACE_BOUND('',#307,.T.);
#307=EDGE_LOOP('',(#143,#308,#314,#319));
#308=ORIENTED_EDGE('',*,*,#309,.T.);
#309=EDGE_CURVE('',#145,#310,#312,.T.);
#310=VERTEX_POINT('',#311);
#311=CARTESIAN_POINT('',(5.25,0.,-3.9));
#312=LINE('',#313,#295);
#313=CARTESIAN_POINT('',(5.25,0.,0.1));
#314=ORIENTED_EDGE('',*,*,#315,.T.);
#315=EDGE_CURVE('',#310,#310,#316,.T.);
#316=CIRCLE('',#317,0.25);
#317=AXIS2_PLACEMENT_3D('',#318,#13,#46);
#318=CARTESIAN_POINT('',(5.,0.,-3.9));
#319=ORIENTED_EDGE('',*,*,#309,.F.);
#320=CYLINDRICAL_SURFACE('',#321,0.25);
#321=AXIS2_PLACEMENT_3D('',#322,#13,#46);
#322=CARTESIAN_POINT('',(5.,0.,0.1));
#323=ADVANCED_FACE('',(#324),#333,.T.);
#324=FACE_BOUND('',#325,.T.);
#325=EDGE_LOOP('',(#326,#332,#173,#182));
#326=ORIENTED_EDGE('',*,*,#327,.T.);
#327=EDGE_CURVE('',#184,#201,#328,.T.);
#328=CIRCLE('',#329,0.45);
#329=AXIS2_PLACEMENT_3D('',#256,#330,#331);
#330=DIRECTION('',(-1.,-6.123233995737E-17,0.));
#331=DIRECTION('',(6.123233995737E-17,-1.,-0.));
#332=ORIENTED_EDGE('',*,*,#200,.T.);
#333=CYLINDRICAL_SURFACE('',#334,0.45);
#334=AXIS2_PLACEMENT_3D('',#256,#188,#57);
#335=ADVANCED_FACE('',(#336),#345,.T.);
#336=FACE_BOUND('',#337,.T.);
#337=EDGE_LOOP('',(#221,#338,#339,#344));
#338=ORIENTED_EDGE('',*,*,#212,.T.);
#339=ORIENTED_EDGE('',*,*,#340,.F.);
#340=EDGE_CURVE('',#234,#206,#341,.T.);
#341=CIRCLE('',#342,0.45);
#342=AXIS2_PLACEMENT_3D('',#273,#46,#343);
#343=DIRECTION('',(-0.,1.,0.));
#344=ORIENTED_EDGE('',*,*,#233,.F.);
#345=CYLINDRICAL_SURFACE('',#346,0.45);
#346=AXIS2_PLACEMENT_3D('',#91,#46,#343);
#347=ADVANCED_FACE('',(#348),#363,.T.);
#348=FACE_BOUND('',#349,.T.);
#349=EDGE_LOOP('',(#350,#356,#357,#362));
#350=ORIENTED_EDGE('',*,*,#351,.T.);
#351=EDGE_CURVE('',#265,#206,#352,.T.);
#352=CIRCLE('',#353,0.45);
#353=AXIS2_PLACEMENT_3D('',#273,#354,#355);
#354=DIRECTION('',(-9.256325708205E-16,-1.,0.));
#355=DIRECTION('',(1.,-9.256325708205E-16,-0.));
#356=ORIENTED_EDGE('',*,*,#205,.T.);
#357=ORIENTED_EDGE('',*,*,#358,.F.);
#358=EDGE_CURVE('',#247,#201,#359,.T.);
#359=CIRCLE('',#360,0.45);
#360=AXIS2_PLACEMENT_3D('',#256,#361,#14);
#361=DIRECTION('',(0.,-1.,-0.));
#362=ORIENTED_EDGE('',*,*,#282,.F.);
#363=CYLINDRICAL_SURFACE('',#364,0.45);
#364=AXIS2_PLACEMENT_3D('',#273,#210,#14);
#365=ADVANCED_FACE('',(#366),#369,.T.);
#366=FACE_BOUND('',#367,.F.);
#367=EDGE_LOOP('',(#357,#368,#326));
#368=ORIENTED_EDGE('',*,*,#253,.T.);
#369=SPHERICAL_SURFACE('',#370,0.45);
#370=AXIS2_PLACEMENT_3D('',#256,#13,#14);
#371=ADVANCED_FACE('',(#372),#374,.T.);
#372=FACE_BOUND('',#373,.F.);
#373=EDGE_LOOP('',(#339,#269,#350));
#374=SPHERICAL_SURFACE('',#375,0.45);
#375=AXIS2_PLACEMENT_3D('',#273,#13,#274);
#376=ADVANCED_FACE('',(#377),#379,.F.);
#377=FACE_BOUND('',#378,.F.);
#378=EDGE_LOOP('',(#296));
#379=PLANE('',#380);
#380=AXIS2_PLACEMENT_3D('',#381,#13,#14);
#381=CARTESIAN_POINT('',(-4.440892098501E-16,2.18439881135E-17,-3.9));
#382=ADVANCED_FACE('',(#383),#385,.F.);
#383=FACE_BOUND('',#384,.F.);
#384=EDGE_LOOP('',(#314));
#385=PLANE('',#386);
#386=AXIS2_PLACEMENT_3D('',#387,#13,#14);
#387=CARTESIAN_POINT('',(5.,2.18439881135E-17,-3.9));
#388=( GEOMETRIC_REPRESENTATION_CONTEXT(3) GLOBAL_UNCERTAINTY_ASSIGNED_CONTEXT((#392)) GLOBAL_UNIT_ASSIGNED_CONTEXT((#389,#390,#391)) REPRESENTATION_CONTEXT('Context #1','3D Context with UNIT and UNCERTAINTY') );
#389=( LENGTH_UNIT() NAMED_UNIT(*) SI_UNIT(.MILLI.,.METRE.) );
#390=( NAMED_UNIT(*) PLANE_ANGLE_UNIT() SI_UNIT($,.RADIAN.) );
#391=( NAMED_UNIT(*) SI_UNIT($,.STERADIAN.) SOLID_ANGLE_UNIT() );
#392=UNCERTAINTY_MEASURE_WITH_UNIT(LENGTH_MEASURE(1.E-07),#389,'distance_accuracy_value','confusion accuracy');
#393=PRODUCT_RELATED_PRODUCT_CATEGORY('part',$,(#7));
#394=MECHANICAL_DESIGN_GEOMETRIC_PRESENTATION_REPRESENTATION('',(#395,#405,#406,#407,#408,#417,#418,#419,#420,#421,#422,#423,#424,#425,#426,#427,#428,#429,#430,#431,#432,#433,#434,#435),#388);
#395=STYLED_ITEM('color',(#396),#17);
#396=PRESENTATION_STYLE_ASSIGNMENT((#397,#403));
#397=SURFACE_STYLE_USAGE(.BOTH.,#398);
#398=SURFACE_SIDE_STYLE('',(#399));
#399=SURFACE_STYLE_FILL_AREA(#400);
#400=FILL_AREA_STYLE('',(#401));
#401=FILL_AREA_STYLE_COLOUR('',#402);
#402=COLOUR_RGB('',0.894999996726,0.890999991539,0.812999995914);
#403=CURVE_STYLE('',#404,POSITIVE_LENGTH_MEASURE(0.1),#402);
#404=DRAUGHTING_PRE_DEFINED_CURVE_FONT('continuous');
#405=STYLED_ITEM('color',(#396),#47);
#406=STYLED_ITEM('color',(#396),#72);
#407=STYLED_ITEM('color',(#396),#93);
#408=OVER_RIDING_STYLED_ITEM('overriding color',(#409),#137,#407);
#409=PRESENTATION_STYLE_ASSIGNMENT((#410,#416));
#410=SURFACE_STYLE_USAGE(.BOTH.,#411);
#411=SURFACE_SIDE_STYLE('',(#412));
#412=SURFACE_STYLE_FILL_AREA(#413);
#413=FILL_AREA_STYLE('',(#414));
#414=FILL_AREA_STYLE_COLOUR('',#415);
#415=COLOUR_RGB('',0.823999987314,0.819999987296,0.781000009244);
#416=CURVE_STYLE('',#404,POSITIVE_LENGTH_MEASURE(0.1),#415);
#417=OVER_RIDING_STYLED_ITEM('overriding color',(#409),#144,#407);
#418=STYLED_ITEM('color',(#396),#152);
#419=STYLED_ITEM('color',(#396),#170);
#420=STYLED_ITEM('color',(#396),#179);
#421=STYLED_ITEM('color',(#396),#195);
#422=STYLED_ITEM('color',(#396),#217);
#423=STYLED_ITEM('color',(#396),#229);
#424=STYLED_ITEM('color',(#396),#242);
#425=STYLED_ITEM('color',(#396),#260);
#426=STYLED_ITEM('color',(#396),#277);
#427=STYLED_ITEM('color',(#409),#286);
#428=STYLED_ITEM('color',(#409),#305);
#429=STYLED_ITEM('color',(#396),#323);
#430=STYLED_ITEM('color',(#396),#335);
#431=STYLED_ITEM('color',(#396),#347);
#432=STYLED_ITEM('color',(#396),#365);
#433=STYLED_ITEM('color',(#396),#371);
#434=STYLED_ITEM('color',(#409),#376);
#435=STYLED_ITEM('color',(#409),#382);
ENDSEC;
END-ISO-10303-21;
