ISO-10303-21;
HEADER;
/* L_Abracon_ASPI-0628.step 3D STEP model for use in ECAD systems
 * Copyright (C) 2026, KiCAD
 *
 * This work is licensed under the
 * [Creative Commons CC-BY-SA 4.0 License](https://creativecommons.org/licenses/by-sa/4.0/legalcode),
 * with the following exception:
 *
 * To the extent that the creation of electronic designs that use 'Licensed Material' can be
 * considered to be 'Adapted Material', then the copyright holder waives article 3 of the license
 * with respect to these designs and any generated files which use data provided as part of the
 * 'Licensed Material'.
 *
 * You are free to use the library data in your own projects without the obligation to share your
 * project files under this or any other license agreement. However, if you wish to distribute
 * these libraries, or parts thereof (including in modified form) as a collection then the exception
 * above does not apply. Please refer to
 * https://gitlab.com/kicad/libraries/kicad-packages3D/-/blob/master/LICENSE.md for further clarification
 * of the exception.
 *
 * Disclaimer of Warranties and Limitation of Liability.
 * These libraries are provided in the hope that they will be useful, but are provided without warranty of any kind, express or implied.
 * USE 3D CAD DATA AT YOUR OWN RISK
 * DO NOT RELY UPON ANY INFORMATION FOUND HERE WITHOUT INDEPENDENT VERIFICATION.
 */

FILE_DESCRIPTION(
/* description */ ('model of L_Abracon_ASPI-0628'),
/* implementation_level */ '2;1');

FILE_NAME(
/* name */ 'L_Abracon_ASPI-0628.step',
/* time_stamp */ '1970-01-01T00:00:00',
/* author */ ('KiCAD','kicad'),
/* organization */ ('OCCT'),
/* preprocessor_version */ '',
/* originating_system */ 'KiCAD',
/* authorisation */ '');

FILE_SCHEMA(('AUTOMOTIVE_DESIGN { 1 0 10303 214 1 1 1 1 }'));
ENDSEC;

DATA;
#1=APPLICATION_PROTOCOL_DEFINITION('international standard','automotive_design',2000,#2);
#2=APPLICATION_CONTEXT('core data for automotive mechanical design processes');
#3=SHAPE_DEFINITION_REPRESENTATION(#4,#10);
#4=PRODUCT_DEFINITION_SHAPE('','',#5);
#5=PRODUCT_DEFINITION('design','',#6,#9);
#6=PRODUCT_DEFINITION_FORMATION('','',#7);
#7=PRODUCT('L_Abracon_ASPI-0628','L_Abracon_ASPI-0628','',(#8));
#8=PRODUCT_CONTEXT('',#2,'mechanical');
#9=PRODUCT_DEFINITION_CONTEXT('part definition',#2,'design');
#10=ADVANCED_BREP_SHAPE_REPRESENTATION('',(#11,#15),#533);
#11=AXIS2_PLACEMENT_3D('',#12,#13,#14);
#12=CARTESIAN_POINT('',(0.,0.,0.));
#13=DIRECTION('',(0.,0.,1.));
#14=DIRECTION('',(1.,0.,-0.));
#15=MANIFOLD_SOLID_BREP('',#16);
#16=CLOSED_SHELL('',(#17,#52,#88,#109,#144,#164,#173,#193,#248,#259,#281,#293,#306,#318,#327,#340,#370,#380,#410,#429,#441,#461,#467,#479,#495,#511,#516,#526));
#17=ADVANCED_FACE('',(#18),#48,.F.);
#18=FACE_BOUND('',#19,.F.);
#19=EDGE_LOOP('',(#20,#29,#37,#43));
#20=ORIENTED_EDGE('',*,*,#21,.F.);
#21=EDGE_CURVE('',#22,#24,#26,.T.);
#22=VERTEX_POINT('',#23);
#23=CARTESIAN_POINT('',(-3.,-2.7,5.E-02));
#24=VERTEX_POINT('',#25);
#25=CARTESIAN_POINT('',(-3.,-2.7,2.5));
#26=LINE('',#27,#28);
#27=CARTESIAN_POINT('',(-3.,-2.7,0.));
#28=VECTOR('',#13,1.);
#29=ORIENTED_EDGE('',*,*,#30,.F.);
#30=EDGE_CURVE('',#31,#22,#33,.T.);
#31=VERTEX_POINT('',#32);
#32=CARTESIAN_POINT('',(-3.,2.7,5.E-02));
#33=LINE('',#34,#35);
#34=CARTESIAN_POINT('',(-3.,-2.925,5.E-02));
#35=VECTOR('',#36,1.);
#36=DIRECTION('',(0.,-1.,0.));
#37=ORIENTED_EDGE('',*,*,#38,.T.);
#38=EDGE_CURVE('',#31,#39,#41,.T.);
#39=VERTEX_POINT('',#40);
#40=CARTESIAN_POINT('',(-3.,2.7,2.5));
#41=LINE('',#42,#28);
#42=CARTESIAN_POINT('',(-3.,2.7,0.));
#43=ORIENTED_EDGE('',*,*,#44,.F.);
#44=EDGE_CURVE('',#24,#39,#45,.T.);
#45=LINE('',#25,#46);
#46=VECTOR('',#47,1.);
#47=DIRECTION('',(0.,1.,0.));
#48=PLANE('',#49);
#49=AXIS2_PLACEMENT_3D('',#50,#51,#13);
#50=CARTESIAN_POINT('',(-3.,-3.,0.));
#51=DIRECTION('',(1.,0.,0.));
#52=ADVANCED_FACE('',(#53),#86,.T.);
#53=FACE_BOUND('',#54,.T.);
#54=EDGE_LOOP('',(#20,#55,#63,#68,#75,#80));
#55=ORIENTED_EDGE('',*,*,#56,.T.);
#56=EDGE_CURVE('',#22,#57,#59,.T.);
#57=VERTEX_POINT('',#58);
#58=CARTESIAN_POINT('',(-2.959807621135,-2.85,5.E-02));
#59=CIRCLE('',#60,0.3);
#60=AXIS2_PLACEMENT_3D('',#61,#13,#62);
#61=CARTESIAN_POINT('',(-2.7,-2.7,5.E-02));
#62=DIRECTION('',(-1.,-0.,0.));
#63=ORIENTED_EDGE('',*,*,#64,.F.);
#64=EDGE_CURVE('',#65,#57,#67,.T.);
#65=VERTEX_POINT('',#66);
#66=CARTESIAN_POINT('',(-2.959807621135,-2.85,0.));
#67=LINE('',#66,#28);
#68=ORIENTED_EDGE('',*,*,#69,.T.);
#69=EDGE_CURVE('',#65,#70,#72,.T.);
#70=VERTEX_POINT('',#71);
#71=CARTESIAN_POINT('',(-2.7,-3.,0.));
#72=CIRCLE('',#73,0.3);
#73=AXIS2_PLACEMENT_3D('',#74,#13,#36);
#74=CARTESIAN_POINT('',(-2.7,-2.7,0.));
#75=ORIENTED_EDGE('',*,*,#76,.T.);
#76=EDGE_CURVE('',#70,#77,#79,.T.);
#77=VERTEX_POINT('',#78);
#78=CARTESIAN_POINT('',(-2.7,-3.,2.5));
#79=LINE('',#71,#28);
#80=ORIENTED_EDGE('',*,*,#81,.T.);
#81=EDGE_CURVE('',#77,#24,#82,.T.);
#82=CIRCLE('',#83,0.3);
#83=AXIS2_PLACEMENT_3D('',#84,#85,#36);
#84=CARTESIAN_POINT('',(-2.7,-2.7,2.5));
#85=DIRECTION('',(-0.,-0.,-1.));
#86=CYLINDRICAL_SURFACE('',#87,0.3);
#87=AXIS2_PLACEMENT_3D('',#74,#13,#62);
#88=ADVANCED_FACE('',(#89),#108,.T.);
#89=FACE_BOUND('',#90,.T.);
#90=EDGE_LOOP('',(#91,#98,#103,#43));
#91=ORIENTED_EDGE('',*,*,#92,.T.);
#92=EDGE_CURVE('',#24,#93,#95,.T.);
#93=VERTEX_POINT('',#94);
#94=CARTESIAN_POINT('',(-2.7,-2.7,2.8));
#95=CIRCLE('',#96,0.3);
#96=AXIS2_PLACEMENT_3D('',#84,#47,#97);
#97=DIRECTION('',(-1.,0.,0.));
#98=ORIENTED_EDGE('',*,*,#99,.T.);
#99=EDGE_CURVE('',#93,#100,#102,.T.);
#100=VERTEX_POINT('',#101);
#101=CARTESIAN_POINT('',(-2.7,2.7,2.8));
#102=LINE('',#94,#46);
#103=ORIENTED_EDGE('',*,*,#104,.F.);
#104=EDGE_CURVE('',#39,#100,#105,.T.);
#105=CIRCLE('',#106,0.3);
#106=AXIS2_PLACEMENT_3D('',#107,#47,#97);
#107=CARTESIAN_POINT('',(-2.7,2.7,2.5));
#108=CYLINDRICAL_SURFACE('',#96,0.3);
#109=ADVANCED_FACE('',(#110),#142,.T.);
#110=FACE_BOUND('',#111,.F.);
#111=EDGE_LOOP('',(#112,#113,#120,#125,#132,#137));
#112=ORIENTED_EDGE('',*,*,#38,.F.);
#113=ORIENTED_EDGE('',*,*,#114,.F.);
#114=EDGE_CURVE('',#115,#31,#117,.T.);
#115=VERTEX_POINT('',#116);
#116=CARTESIAN_POINT('',(-2.959807621135,2.85,5.E-02));
#117=CIRCLE('',#118,0.3);
#118=AXIS2_PLACEMENT_3D('',#119,#13,#62);
#119=CARTESIAN_POINT('',(-2.7,2.7,5.E-02));
#120=ORIENTED_EDGE('',*,*,#121,.F.);
#121=EDGE_CURVE('',#122,#115,#124,.T.);
#122=VERTEX_POINT('',#123);
#123=CARTESIAN_POINT('',(-2.959807621135,2.85,0.));
#124=LINE('',#123,#28);
#125=ORIENTED_EDGE('',*,*,#126,.T.);
#126=EDGE_CURVE('',#122,#127,#129,.T.);
#127=VERTEX_POINT('',#128);
#128=CARTESIAN_POINT('',(-2.7,3.,0.));
#129=CIRCLE('',#130,0.3);
#130=AXIS2_PLACEMENT_3D('',#131,#85,#36);
#131=CARTESIAN_POINT('',(-2.7,2.7,0.));
#132=ORIENTED_EDGE('',*,*,#133,.T.);
#133=EDGE_CURVE('',#127,#134,#136,.T.);
#134=VERTEX_POINT('',#135);
#135=CARTESIAN_POINT('',(-2.7,3.,2.5));
#136=LINE('',#128,#28);
#137=ORIENTED_EDGE('',*,*,#138,.F.);
#138=EDGE_CURVE('',#39,#134,#139,.T.);
#139=CIRCLE('',#140,0.3);
#140=AXIS2_PLACEMENT_3D('',#107,#141,#97);
#141=DIRECTION('',(-0.,0.,-1.));
#142=CYLINDRICAL_SURFACE('',#143,0.3);
#143=AXIS2_PLACEMENT_3D('',#131,#13,#62);
#144=ADVANCED_FACE('',(#145),#162,.T.);
#145=FACE_BOUND('',#146,.T.);
#146=EDGE_LOOP('',(#147,#153,#158,#161,#29,#113));
#147=ORIENTED_EDGE('',*,*,#148,.F.);
#148=EDGE_CURVE('',#149,#115,#151,.T.);
#149=VERTEX_POINT('',#150);
#150=CARTESIAN_POINT('',(-3.01,2.85,5.E-02));
#151=LINE('',#150,#152);
#152=VECTOR('',#51,1.);
#153=ORIENTED_EDGE('',*,*,#154,.F.);
#154=EDGE_CURVE('',#155,#149,#157,.T.);
#155=VERTEX_POINT('',#156);
#156=CARTESIAN_POINT('',(-3.01,-2.85,5.E-02));
#157=LINE('',#156,#46);
#158=ORIENTED_EDGE('',*,*,#159,.T.);
#159=EDGE_CURVE('',#155,#57,#160,.T.);
#160=LINE('',#156,#152);
#161=ORIENTED_EDGE('',*,*,#56,.F.);
#162=PLANE('',#163);
#163=AXIS2_PLACEMENT_3D('',#156,#13,#51);
#164=ADVANCED_FACE('',(#165),#171,.T.);
#165=FACE_BOUND('',#166,.F.);
#166=EDGE_LOOP('',(#167,#80,#91));
#167=ORIENTED_EDGE('',*,*,#168,.F.);
#168=EDGE_CURVE('',#77,#93,#169,.T.);
#169=CIRCLE('',#170,0.3);
#170=AXIS2_PLACEMENT_3D('',#84,#62,#36);
#171=SPHERICAL_SURFACE('',#172,0.3);
#172=AXIS2_PLACEMENT_3D('',#84,#13,#36);
#173=ADVANCED_FACE('',(#174),#191,.F.);
#174=FACE_BOUND('',#175,.F.);
#175=EDGE_LOOP('',(#75,#176,#183,#188));
#176=ORIENTED_EDGE('',*,*,#177,.F.);
#177=EDGE_CURVE('',#178,#77,#180,.T.);
#178=VERTEX_POINT('',#179);
#179=CARTESIAN_POINT('',(2.7,-3.,2.5));
#180=LINE('',#179,#181);
#181=VECTOR('',#182,1.);
#182=DIRECTION('',(-1.,-0.,-0.));
#183=ORIENTED_EDGE('',*,*,#184,.F.);
#184=EDGE_CURVE('',#185,#178,#187,.T.);
#185=VERTEX_POINT('',#186);
#186=CARTESIAN_POINT('',(2.7,-3.,0.));
#187=LINE('',#186,#28);
#188=ORIENTED_EDGE('',*,*,#189,.F.);
#189=EDGE_CURVE('',#70,#185,#190,.T.);
#190=LINE('',#50,#152);
#191=PLANE('',#192);
#192=AXIS2_PLACEMENT_3D('',#50,#47,#13);
#193=ADVANCED_FACE('',(#194),#246,.F.);
#194=FACE_BOUND('',#195,.F.);
#195=EDGE_LOOP('',(#196,#68,#202,#203,#210,#215,#220,#225,#232,#236,#237,#243));
#196=ORIENTED_EDGE('',*,*,#197,.F.);
#197=EDGE_CURVE('',#65,#198,#200,.T.);
#198=VERTEX_POINT('',#199);
#199=CARTESIAN_POINT('',(-1.16,-2.85,0.));
#200=LINE('',#201,#152);
#201=CARTESIAN_POINT('',(-3.01,-2.85,0.));
#202=ORIENTED_EDGE('',*,*,#189,.T.);
#203=ORIENTED_EDGE('',*,*,#204,.F.);
#204=EDGE_CURVE('',#205,#185,#207,.T.);
#205=VERTEX_POINT('',#206);
#206=CARTESIAN_POINT('',(2.959807621135,-2.85,0.));
#207=CIRCLE('',#208,0.3);
#208=AXIS2_PLACEMENT_3D('',#209,#85,#36);
#209=CARTESIAN_POINT('',(2.7,-2.7,0.));
#210=ORIENTED_EDGE('',*,*,#211,.F.);
#211=EDGE_CURVE('',#212,#205,#214,.T.);
#212=VERTEX_POINT('',#213);
#213=CARTESIAN_POINT('',(1.16,-2.85,0.));
#214=LINE('',#213,#152);
#215=ORIENTED_EDGE('',*,*,#216,.T.);
#216=EDGE_CURVE('',#212,#217,#219,.T.);
#217=VERTEX_POINT('',#218);
#218=CARTESIAN_POINT('',(1.16,2.85,0.));
#219=LINE('',#213,#46);
#220=ORIENTED_EDGE('',*,*,#221,.T.);
#221=EDGE_CURVE('',#217,#222,#224,.T.);
#222=VERTEX_POINT('',#223);
#223=CARTESIAN_POINT('',(2.959807621135,2.85,0.));
#224=LINE('',#218,#152);
#225=ORIENTED_EDGE('',*,*,#226,.T.);
#226=EDGE_CURVE('',#222,#227,#229,.T.);
#227=VERTEX_POINT('',#228);
#228=CARTESIAN_POINT('',(2.7,3.,0.));
#229=CIRCLE('',#230,0.3);
#230=AXIS2_PLACEMENT_3D('',#231,#13,#36);
#231=CARTESIAN_POINT('',(2.7,2.7,0.));
#232=ORIENTED_EDGE('',*,*,#233,.F.);
#233=EDGE_CURVE('',#127,#227,#234,.T.);
#234=LINE('',#235,#152);
#235=CARTESIAN_POINT('',(-3.,3.,0.));
#236=ORIENTED_EDGE('',*,*,#126,.F.);
#237=ORIENTED_EDGE('',*,*,#238,.T.);
#238=EDGE_CURVE('',#122,#239,#241,.T.);
#239=VERTEX_POINT('',#240);
#240=CARTESIAN_POINT('',(-1.16,2.85,0.));
#241=LINE('',#242,#152);
#242=CARTESIAN_POINT('',(-3.01,2.85,0.));
#243=ORIENTED_EDGE('',*,*,#244,.F.);
#244=EDGE_CURVE('',#198,#239,#245,.T.);
#245=LINE('',#199,#46);
#246=PLANE('',#247);
#247=AXIS2_PLACEMENT_3D('',#50,#13,#51);
#248=ADVANCED_FACE('',(#249),#257,.F.);
#249=FACE_BOUND('',#250,.F.);
#250=EDGE_LOOP('',(#251,#254,#158,#63));
#251=ORIENTED_EDGE('',*,*,#252,.F.);
#252=EDGE_CURVE('',#253,#65,#200,.T.);
#253=VERTEX_POINT('',#201);
#254=ORIENTED_EDGE('',*,*,#255,.T.);
#255=EDGE_CURVE('',#253,#155,#256,.T.);
#256=LINE('',#201,#28);
#257=PLANE('',#258);
#258=AXIS2_PLACEMENT_3D('',#201,#47,#13);
#259=ADVANCED_FACE('',(#260),#278,.T.);
#260=FACE_BOUND('',#261,.T.);
#261=EDGE_LOOP('',(#262,#263,#268,#275));
#262=ORIENTED_EDGE('',*,*,#99,.F.);
#263=ORIENTED_EDGE('',*,*,#264,.F.);
#264=EDGE_CURVE('',#265,#93,#267,.T.);
#265=VERTEX_POINT('',#266);
#266=CARTESIAN_POINT('',(2.7,-2.7,2.8));
#267=LINE('',#266,#181);
#268=ORIENTED_EDGE('',*,*,#269,.F.);
#269=EDGE_CURVE('',#270,#265,#272,.T.);
#270=VERTEX_POINT('',#271);
#271=CARTESIAN_POINT('',(2.7,2.7,2.8));
#272=LINE('',#271,#273);
#273=VECTOR('',#274,1.);
#274=DIRECTION('',(-0.,-1.,-0.));
#275=ORIENTED_EDGE('',*,*,#276,.F.);
#276=EDGE_CURVE('',#100,#270,#277,.T.);
#277=LINE('',#101,#152);
#278=PLANE('',#279);
#279=AXIS2_PLACEMENT_3D('',#280,#13,#51);
#280=CARTESIAN_POINT('',(-3.,-3.,2.8));
#281=ADVANCED_FACE('',(#282),#291,.T.);
#282=FACE_BOUND('',#283,.F.);
#283=EDGE_LOOP('',(#103,#284,#285));
#284=ORIENTED_EDGE('',*,*,#138,.T.);
#285=ORIENTED_EDGE('',*,*,#286,.T.);
#286=EDGE_CURVE('',#134,#100,#287,.T.);
#287=CIRCLE('',#288,0.3);
#288=AXIS2_PLACEMENT_3D('',#107,#289,#290);
#289=DIRECTION('',(1.,6.123233995737E-17,-0.));
#290=DIRECTION('',(-6.123233995737E-17,1.,0.));
#291=SPHERICAL_SURFACE('',#292,0.3);
#292=AXIS2_PLACEMENT_3D('',#107,#13,#97);
#293=ADVANCED_FACE('',(#294),#304,.T.);
#294=FACE_BOUND('',#295,.T.);
#295=EDGE_LOOP('',(#132,#296,#301,#232));
#296=ORIENTED_EDGE('',*,*,#297,.T.);
#297=EDGE_CURVE('',#134,#298,#300,.T.);
#298=VERTEX_POINT('',#299);
#299=CARTESIAN_POINT('',(2.7,3.,2.5));
#300=LINE('',#135,#152);
#301=ORIENTED_EDGE('',*,*,#302,.F.);
#302=EDGE_CURVE('',#227,#298,#303,.T.);
#303=LINE('',#228,#28);
#304=PLANE('',#305);
#305=AXIS2_PLACEMENT_3D('',#235,#47,#13);
#306=ADVANCED_FACE('',(#307),#316,.T.);
#307=FACE_BOUND('',#308,.T.);
#308=EDGE_LOOP('',(#309,#312,#315,#120));
#309=ORIENTED_EDGE('',*,*,#310,.F.);
#310=EDGE_CURVE('',#311,#122,#241,.T.);
#311=VERTEX_POINT('',#242);
#312=ORIENTED_EDGE('',*,*,#313,.T.);
#313=EDGE_CURVE('',#311,#149,#314,.T.);
#314=LINE('',#242,#28);
#315=ORIENTED_EDGE('',*,*,#148,.T.);
#316=PLANE('',#317);
#317=AXIS2_PLACEMENT_3D('',#242,#47,#13);
#318=ADVANCED_FACE('',(#319),#325,.F.);
#319=FACE_BOUND('',#320,.F.);
#320=EDGE_LOOP('',(#321,#322,#312,#153));
#321=ORIENTED_EDGE('',*,*,#255,.F.);
#322=ORIENTED_EDGE('',*,*,#323,.T.);
#323=EDGE_CURVE('',#253,#311,#324,.T.);
#324=LINE('',#201,#46);
#325=PLANE('',#326);
#326=AXIS2_PLACEMENT_3D('',#201,#51,#13);
#327=ADVANCED_FACE('',(#328),#338,.T.);
#328=FACE_BOUND('',#329,.T.);
#329=EDGE_LOOP('',(#330,#337,#167,#176));
#330=ORIENTED_EDGE('',*,*,#331,.T.);
#331=EDGE_CURVE('',#178,#265,#332,.T.);
#332=CIRCLE('',#333,0.3);
#333=AXIS2_PLACEMENT_3D('',#334,#335,#336);
#334=CARTESIAN_POINT('',(2.7,-2.7,2.5));
#335=DIRECTION('',(-1.,-6.123233995737E-17,0.));
#336=DIRECTION('',(6.123233995737E-17,-1.,-0.));
#337=ORIENTED_EDGE('',*,*,#264,.T.);
#338=CYLINDRICAL_SURFACE('',#339,0.3);
#339=AXIS2_PLACEMENT_3D('',#334,#182,#36);
#340=ADVANCED_FACE('',(#341),#368,.T.);
#341=FACE_BOUND('',#342,.F.);
#342=EDGE_LOOP('',(#343,#351,#358,#361,#362,#363));
#343=ORIENTED_EDGE('',*,*,#344,.F.);
#344=EDGE_CURVE('',#345,#347,#349,.T.);
#345=VERTEX_POINT('',#346);
#346=CARTESIAN_POINT('',(3.,-2.7,5.E-02));
#347=VERTEX_POINT('',#348);
#348=CARTESIAN_POINT('',(3.,-2.7,2.5));
#349=LINE('',#350,#28);
#350=CARTESIAN_POINT('',(3.,-2.7,0.));
#351=ORIENTED_EDGE('',*,*,#352,.F.);
#352=EDGE_CURVE('',#353,#345,#355,.T.);
#353=VERTEX_POINT('',#354);
#354=CARTESIAN_POINT('',(2.959807621135,-2.85,5.E-02));
#355=CIRCLE('',#356,0.3);
#356=AXIS2_PLACEMENT_3D('',#357,#13,#14);
#357=CARTESIAN_POINT('',(2.7,-2.7,5.E-02));
#358=ORIENTED_EDGE('',*,*,#359,.F.);
#359=EDGE_CURVE('',#205,#353,#360,.T.);
#360=LINE('',#206,#28);
#361=ORIENTED_EDGE('',*,*,#204,.T.);
#362=ORIENTED_EDGE('',*,*,#184,.T.);
#363=ORIENTED_EDGE('',*,*,#364,.F.);
#364=EDGE_CURVE('',#347,#178,#365,.T.);
#365=CIRCLE('',#366,0.3);
#366=AXIS2_PLACEMENT_3D('',#334,#367,#14);
#367=DIRECTION('',(0.,-0.,-1.));
#368=CYLINDRICAL_SURFACE('',#369,0.3);
#369=AXIS2_PLACEMENT_3D('',#209,#13,#14);
#370=ADVANCED_FACE('',(#371),#378,.F.);
#371=FACE_BOUND('',#372,.F.);
#372=EDGE_LOOP('',(#373,#374,#375,#376,#377,#309));
#373=ORIENTED_EDGE('',*,*,#323,.F.);
#374=ORIENTED_EDGE('',*,*,#252,.T.);
#375=ORIENTED_EDGE('',*,*,#197,.T.);
#376=ORIENTED_EDGE('',*,*,#244,.T.);
#377=ORIENTED_EDGE('',*,*,#238,.F.);
#378=PLANE('',#379);
#379=AXIS2_PLACEMENT_3D('',#201,#13,#51);
#380=ADVANCED_FACE('',(#381),#408,.T.);
#381=FACE_BOUND('',#382,.T.);
#382=EDGE_LOOP('',(#383,#391,#398,#225,#401,#402));
#383=ORIENTED_EDGE('',*,*,#384,.F.);
#384=EDGE_CURVE('',#385,#387,#389,.T.);
#385=VERTEX_POINT('',#386);
#386=CARTESIAN_POINT('',(3.,2.7,5.E-02));
#387=VERTEX_POINT('',#388);
#388=CARTESIAN_POINT('',(3.,2.7,2.5));
#389=LINE('',#390,#28);
#390=CARTESIAN_POINT('',(3.,2.7,0.));
#391=ORIENTED_EDGE('',*,*,#392,.T.);
#392=EDGE_CURVE('',#385,#393,#395,.T.);
#393=VERTEX_POINT('',#394);
#394=CARTESIAN_POINT('',(2.959807621135,2.85,5.E-02));
#395=CIRCLE('',#396,0.3);
#396=AXIS2_PLACEMENT_3D('',#397,#13,#14);
#397=CARTESIAN_POINT('',(2.7,2.7,5.E-02));
#398=ORIENTED_EDGE('',*,*,#399,.F.);
#399=EDGE_CURVE('',#222,#393,#400,.T.);
#400=LINE('',#223,#28);
#401=ORIENTED_EDGE('',*,*,#302,.T.);
#402=ORIENTED_EDGE('',*,*,#403,.T.);
#403=EDGE_CURVE('',#298,#387,#404,.T.);
#404=CIRCLE('',#405,0.3);
#405=AXIS2_PLACEMENT_3D('',#406,#367,#407);
#406=CARTESIAN_POINT('',(2.7,2.7,2.5));
#407=DIRECTION('',(0.,1.,-0.));
#408=CYLINDRICAL_SURFACE('',#409,0.3);
#409=AXIS2_PLACEMENT_3D('',#231,#13,#14);
#410=ADVANCED_FACE('',(#411),#427,.F.);
#411=FACE_BOUND('',#412,.F.);
#412=EDGE_LOOP('',(#413,#414,#415,#419,#424,#426));
#413=ORIENTED_EDGE('',*,*,#216,.F.);
#414=ORIENTED_EDGE('',*,*,#211,.T.);
#415=ORIENTED_EDGE('',*,*,#416,.T.);
#416=EDGE_CURVE('',#205,#417,#214,.T.);
#417=VERTEX_POINT('',#418);
#418=CARTESIAN_POINT('',(3.01,-2.85,0.));
#419=ORIENTED_EDGE('',*,*,#420,.T.);
#420=EDGE_CURVE('',#417,#421,#423,.T.);
#421=VERTEX_POINT('',#422);
#422=CARTESIAN_POINT('',(3.01,2.85,0.));
#423=LINE('',#418,#46);
#424=ORIENTED_EDGE('',*,*,#425,.F.);
#425=EDGE_CURVE('',#222,#421,#224,.T.);
#426=ORIENTED_EDGE('',*,*,#221,.F.);
#427=PLANE('',#428);
#428=AXIS2_PLACEMENT_3D('',#213,#13,#51);
#429=ADVANCED_FACE('',(#430),#439,.T.);
#430=FACE_BOUND('',#431,.T.);
#431=EDGE_LOOP('',(#285,#432,#433,#438));
#432=ORIENTED_EDGE('',*,*,#276,.T.);
#433=ORIENTED_EDGE('',*,*,#434,.F.);
#434=EDGE_CURVE('',#298,#270,#435,.T.);
#435=CIRCLE('',#436,0.3);
#436=AXIS2_PLACEMENT_3D('',#406,#51,#437);
#437=DIRECTION('',(-0.,1.,0.));
#438=ORIENTED_EDGE('',*,*,#297,.F.);
#439=CYLINDRICAL_SURFACE('',#440,0.3);
#440=AXIS2_PLACEMENT_3D('',#107,#51,#437);
#441=ADVANCED_FACE('',(#442),#459,.T.);
#442=FACE_BOUND('',#443,.T.);
#443=EDGE_LOOP('',(#444,#450,#451,#456));
#444=ORIENTED_EDGE('',*,*,#445,.T.);
#445=EDGE_CURVE('',#387,#270,#446,.T.);
#446=CIRCLE('',#447,0.3);
#447=AXIS2_PLACEMENT_3D('',#406,#448,#449);
#448=DIRECTION('',(6.123233995737E-17,-1.,0.));
#449=DIRECTION('',(1.,6.123233995737E-17,0.));
#450=ORIENTED_EDGE('',*,*,#269,.T.);
#451=ORIENTED_EDGE('',*,*,#452,.F.);
#452=EDGE_CURVE('',#347,#265,#453,.T.);
#453=CIRCLE('',#454,0.3);
#454=AXIS2_PLACEMENT_3D('',#334,#455,#14);
#455=DIRECTION('',(0.,-1.,-0.));
#456=ORIENTED_EDGE('',*,*,#457,.F.);
#457=EDGE_CURVE('',#387,#347,#458,.T.);
#458=LINE('',#388,#273);
#459=CYLINDRICAL_SURFACE('',#460,0.3);
#460=AXIS2_PLACEMENT_3D('',#406,#274,#14);
#461=ADVANCED_FACE('',(#462),#465,.T.);
#462=FACE_BOUND('',#463,.F.);
#463=EDGE_LOOP('',(#451,#464,#330));
#464=ORIENTED_EDGE('',*,*,#364,.T.);
#465=SPHERICAL_SURFACE('',#466,0.3);
#466=AXIS2_PLACEMENT_3D('',#334,#13,#14);
#467=ADVANCED_FACE('',(#468),#476,.T.);
#468=FACE_BOUND('',#469,.T.);
#469=EDGE_LOOP('',(#343,#470,#474,#475));
#470=ORIENTED_EDGE('',*,*,#471,.F.);
#471=EDGE_CURVE('',#385,#345,#472,.T.);
#472=LINE('',#473,#35);
#473=CARTESIAN_POINT('',(3.,-2.925,5.E-02));
#474=ORIENTED_EDGE('',*,*,#384,.T.);
#475=ORIENTED_EDGE('',*,*,#457,.T.);
#476=PLANE('',#477);
#477=AXIS2_PLACEMENT_3D('',#478,#51,#13);
#478=CARTESIAN_POINT('',(3.,-3.,0.));
#479=ADVANCED_FACE('',(#480),#493,.F.);
#480=FACE_BOUND('',#481,.F.);
#481=EDGE_LOOP('',(#482,#483,#484,#490));
#482=ORIENTED_EDGE('',*,*,#416,.F.);
#483=ORIENTED_EDGE('',*,*,#359,.T.);
#484=ORIENTED_EDGE('',*,*,#485,.T.);
#485=EDGE_CURVE('',#353,#486,#488,.T.);
#486=VERTEX_POINT('',#487);
#487=CARTESIAN_POINT('',(3.01,-2.85,5.E-02));
#488=LINE('',#489,#152);
#489=CARTESIAN_POINT('',(1.16,-2.85,5.E-02));
#490=ORIENTED_EDGE('',*,*,#491,.F.);
#491=EDGE_CURVE('',#417,#486,#492,.T.);
#492=LINE('',#418,#28);
#493=PLANE('',#494);
#494=AXIS2_PLACEMENT_3D('',#213,#47,#13);
#495=ADVANCED_FACE('',(#496),#509,.T.);
#496=FACE_BOUND('',#497,.T.);
#497=EDGE_LOOP('',(#351,#484,#498,#503,#507,#508));
#498=ORIENTED_EDGE('',*,*,#499,.T.);
#499=EDGE_CURVE('',#486,#500,#502,.T.);
#500=VERTEX_POINT('',#501);
#501=CARTESIAN_POINT('',(3.01,2.85,5.E-02));
#502=LINE('',#487,#46);
#503=ORIENTED_EDGE('',*,*,#504,.F.);
#504=EDGE_CURVE('',#393,#500,#505,.T.);
#505=LINE('',#506,#152);
#506=CARTESIAN_POINT('',(1.16,2.85,5.E-02));
#507=ORIENTED_EDGE('',*,*,#392,.F.);
#508=ORIENTED_EDGE('',*,*,#471,.T.);
#509=PLANE('',#510);
#510=AXIS2_PLACEMENT_3D('',#489,#13,#51);
#511=ADVANCED_FACE('',(#512),#514,.T.);
#512=FACE_BOUND('',#513,.F.);
#513=EDGE_LOOP('',(#433,#402,#444));
#514=SPHERICAL_SURFACE('',#515,0.3);
#515=AXIS2_PLACEMENT_3D('',#406,#13,#407);
#516=ADVANCED_FACE('',(#517),#524,.T.);
#517=FACE_BOUND('',#518,.T.);
#518=EDGE_LOOP('',(#424,#519,#520,#521));
#519=ORIENTED_EDGE('',*,*,#399,.T.);
#520=ORIENTED_EDGE('',*,*,#504,.T.);
#521=ORIENTED_EDGE('',*,*,#522,.F.);
#522=EDGE_CURVE('',#421,#500,#523,.T.);
#523=LINE('',#422,#28);
#524=PLANE('',#525);
#525=AXIS2_PLACEMENT_3D('',#218,#47,#13);
#526=ADVANCED_FACE('',(#527),#531,.T.);
#527=FACE_BOUND('',#528,.T.);
#528=EDGE_LOOP('',(#490,#419,#529,#530));
#529=ORIENTED_EDGE('',*,*,#522,.T.);
#530=ORIENTED_EDGE('',*,*,#499,.F.);
#531=PLANE('',#532);
#532=AXIS2_PLACEMENT_3D('',#418,#51,#13);
#533=( GEOMETRIC_REPRESENTATION_CONTEXT(3) GLOBAL_UNCERTAINTY_ASSIGNED_CONTEXT((#537)) GLOBAL_UNIT_ASSIGNED_CONTEXT((#534,#535,#536)) REPRESENTATION_CONTEXT('Context #1','3D Context with UNIT and UNCERTAINTY') );
#534=( LENGTH_UNIT() NAMED_UNIT(*) SI_UNIT(.MILLI.,.METRE.) );
#535=( NAMED_UNIT(*) PLANE_ANGLE_UNIT() SI_UNIT($,.RADIAN.) );
#536=( NAMED_UNIT(*) SI_UNIT($,.STERADIAN.) SOLID_ANGLE_UNIT() );
#537=UNCERTAINTY_MEASURE_WITH_UNIT(LENGTH_MEASURE(1.E-07),#534,'distance_accuracy_value','confusion accuracy');
#538=PRODUCT_RELATED_PRODUCT_CATEGORY('part',$,(#7));
#539=MECHANICAL_DESIGN_GEOMETRIC_PRESENTATION_REPRESENTATION('',(#540,#550,#551,#552,#553,#562,#563,#564,#565,#566,#567,#568,#569,#570,#571,#572,#573,#574,#575,#576,#577,#578,#579,#580,#581,#582,#583,#584),#533);
#540=STYLED_ITEM('color',(#541),#17);
#541=PRESENTATION_STYLE_ASSIGNMENT((#542,#548));
#542=SURFACE_STYLE_USAGE(.BOTH.,#543);
#543=SURFACE_SIDE_STYLE('',(#544));
#544=SURFACE_STYLE_FILL_AREA(#545);
#545=FILL_AREA_STYLE('',(#546));
#546=FILL_AREA_STYLE_COLOUR('',#547);
#547=COLOUR_RGB('',0.250000000672,0.261999998232,0.280999994281);
#548=CURVE_STYLE('',#549,POSITIVE_LENGTH_MEASURE(0.1),#547);
#549=DRAUGHTING_PRE_DEFINED_CURVE_FONT('continuous');
#550=STYLED_ITEM('color',(#541),#52);
#551=STYLED_ITEM('color',(#541),#88);
#552=STYLED_ITEM('color',(#541),#109);
#553=STYLED_ITEM('color',(#554),#144);
#554=PRESENTATION_STYLE_ASSIGNMENT((#555,#561));
#555=SURFACE_STYLE_USAGE(.BOTH.,#556);
#556=SURFACE_SIDE_STYLE('',(#557));
#557=SURFACE_STYLE_FILL_AREA(#558);
#558=FILL_AREA_STYLE('',(#559));
#559=FILL_AREA_STYLE_COLOUR('',#560);
#560=COLOUR_RGB('',0.823999987314,0.819999987296,0.781000009244);
#561=CURVE_STYLE('',#549,POSITIVE_LENGTH_MEASURE(0.1),#560);
#562=STYLED_ITEM('color',(#541),#164);
#563=STYLED_ITEM('color',(#541),#173);
#564=STYLED_ITEM('color',(#541),#193);
#565=STYLED_ITEM('color',(#554),#248);
#566=STYLED_ITEM('color',(#541),#259);
#567=STYLED_ITEM('color',(#541),#281);
#568=STYLED_ITEM('color',(#541),#293);
#569=STYLED_ITEM('color',(#554),#306);
#570=STYLED_ITEM('color',(#554),#318);
#571=STYLED_ITEM('color',(#541),#327);
#572=STYLED_ITEM('color',(#541),#340);
#573=STYLED_ITEM('color',(#554),#370);
#574=STYLED_ITEM('color',(#541),#380);
#575=STYLED_ITEM('color',(#554),#410);
#576=STYLED_ITEM('color',(#541),#429);
#577=STYLED_ITEM('color',(#541),#441);
#578=STYLED_ITEM('color',(#541),#461);
#579=STYLED_ITEM('color',(#541),#467);
#580=STYLED_ITEM('color',(#554),#479);
#581=STYLED_ITEM('color',(#554),#495);
#582=STYLED_ITEM('color',(#541),#511);
#583=STYLED_ITEM('color',(#554),#516);
#584=STYLED_ITEM('color',(#554),#526);
ENDSEC;
END-ISO-10303-21;
