ISO-10303-21;
HEADER;
/* NXP_SOT1832-1_UQFN-16-1EP_1.6x2.4mm_P0.4mm_EP0.6x1.4mm.step 3D STEP model for use in ECAD systems
 * Copyright (C) 2026, KiCAD
 *
 * This work is licensed under the
 * [Creative Commons CC-BY-SA 4.0 License](https://creativecommons.org/licenses/by-sa/4.0/legalcode),
 * with the following exception:
 *
 * To the extent that the creation of electronic designs that use 'Licensed Material' can be
 * considered to be 'Adapted Material', then the copyright holder waives article 3 of the license
 * with respect to these designs and any generated files which use data provided as part of the
 * 'Licensed Material'.
 *
 * You are free to use the library data in your own projects without the obligation to share your
 * project files under this or any other license agreement. However, if you wish to distribute
 * these libraries, or parts thereof (including in modified form) as a collection then the exception
 * above does not apply. Please refer to
 * https://gitlab.com/kicad/libraries/kicad-packages3D/-/blob/master/LICENSE.md for further clarification
 * of the exception.
 *
 * Disclaimer of Warranties and Limitation of Liability.
 * These libraries are provided in the hope that they will be useful, but are provided without warranty of any kind, express or implied.
 * USE 3D CAD DATA AT YOUR OWN RISK
 * DO NOT RELY UPON ANY INFORMATION FOUND HERE WITHOUT INDEPENDENT VERIFICATION.
 */

FILE_DESCRIPTION(
/* description */ ('model of NXP_SOT1832-1_UQFN-16-1EP_1.6x2.4mm_P0.4mm_EP0.6x1.4mm'),
/* implementation_level */ '2;1');

FILE_NAME(
/* name */ 'NXP_SOT1832-1_UQFN-16-1EP_1.6x2.4mm_P0.4mm_EP0.6x1.4mm.step',
/* time_stamp */ '1970-01-01T00:00:00',
/* author */ ('KiCAD','kicad'),
/* organization */ ('OCCT'),
/* preprocessor_version */ '',
/* originating_system */ 'KiCAD',
/* authorisation */ '');

FILE_SCHEMA(('AUTOMOTIVE_DESIGN { 1 0 10303 214 1 1 1 1 }'));
ENDSEC;

DATA;
#1=APPLICATION_PROTOCOL_DEFINITION('international standard','automotive_design',2000,#2);
#2=APPLICATION_CONTEXT('core data for automotive mechanical design processes');
#3=SHAPE_DEFINITION_REPRESENTATION(#4,#10);
#4=PRODUCT_DEFINITION_SHAPE('','',#5);
#5=PRODUCT_DEFINITION('design','',#6,#9);
#6=PRODUCT_DEFINITION_FORMATION('','',#7);
#7=PRODUCT('NXP_SOT1832-1_UQFN-16-1EP_1.6x2.4mm_P0.4mm_EP0.6x1.4mm','NXP_SOT1832-1_UQFN-16-1EP_1.6x2.4mm_P0.4mm_EP0.6x1.4mm','',(#8));
#8=PRODUCT_CONTEXT('',#2,'mechanical');
#9=PRODUCT_DEFINITION_CONTEXT('part definition',#2,'design');
#10=ADVANCED_BREP_SHAPE_REPRESENTATION('',(#11,#15),#1596);
#11=AXIS2_PLACEMENT_3D('',#12,#13,#14);
#12=CARTESIAN_POINT('',(0.,0.,0.));
#13=DIRECTION('',(0.,0.,1.));
#14=DIRECTION('',(1.,0.,-0.));
#15=MANIFOLD_SOLID_BREP('',#16);
#16=CLOSED_SHELL('',(#17,#46,#66,#88,#102,#505,#512,#518,#537,#552,#565,#574,#593,#608,#621,#630,#649,#664,#677,#686,#705,#720,#733,#742,#761,#776,#789,#798,#817,#832,#845,#854,#873,#888,#901,#910,#929,#944,#957,#966,#985,#1000,#1013,#1022,#1041,#1056,#1069,#1078,#1097,#1112,#1125,#1134,#1153,#1168,#1181,#1190,#1209,#1224,#1239,#1250,#1269,#1284,#1297,#1306,#1325,#1340,#1353,#1362,#1381,#1396,#1409,#1418,#1437,#1452,#1465,#1474,#1481,#1488,#1495,#1502,#1509,#1516,#1523,#1530,#1537,#1544,#1551,#1558,#1568,#1575,#1582,#1589));
#17=ADVANCED_FACE('',(#18),#43,.F.);
#18=FACE_BOUND('',#19,.F.);
#19=EDGE_LOOP('',(#20,#28,#35,#40));
#20=ORIENTED_EDGE('',*,*,#21,.F.);
#21=EDGE_CURVE('',#22,#24,#26,.T.);
#22=VERTEX_POINT('',#23);
#23=CARTESIAN_POINT('',(-0.8,-1.2,3.E-02));
#24=VERTEX_POINT('',#25);
#25=CARTESIAN_POINT('',(-0.8,-1.2,0.55));
#26=LINE('',#23,#27);
#27=VECTOR('',#13,1.);
#28=ORIENTED_EDGE('',*,*,#29,.T.);
#29=EDGE_CURVE('',#22,#30,#32,.T.);
#30=VERTEX_POINT('',#31);
#31=CARTESIAN_POINT('',(-0.8,1.2,3.E-02));
#32=LINE('',#23,#33);
#33=VECTOR('',#34,1.);
#34=DIRECTION('',(0.,1.,0.));
#35=ORIENTED_EDGE('',*,*,#36,.T.);
#36=EDGE_CURVE('',#30,#37,#39,.T.);
#37=VERTEX_POINT('',#38);
#38=CARTESIAN_POINT('',(-0.8,1.2,0.55));
#39=LINE('',#31,#27);
#40=ORIENTED_EDGE('',*,*,#41,.F.);
#41=EDGE_CURVE('',#24,#37,#42,.T.);
#42=LINE('',#25,#33);
#43=PLANE('',#44);
#44=AXIS2_PLACEMENT_3D('',#23,#45,#13);
#45=DIRECTION('',(1.,0.,0.));
#46=ADVANCED_FACE('',(#47),#64,.F.);
#47=FACE_BOUND('',#48,.F.);
#48=EDGE_LOOP('',(#49,#55,#56,#61));
#49=ORIENTED_EDGE('',*,*,#50,.F.);
#50=EDGE_CURVE('',#22,#51,#53,.T.);
#51=VERTEX_POINT('',#52);
#52=CARTESIAN_POINT('',(0.8,-1.2,3.E-02));
#53=LINE('',#23,#54);
#54=VECTOR('',#45,1.);
#55=ORIENTED_EDGE('',*,*,#21,.T.);
#56=ORIENTED_EDGE('',*,*,#57,.T.);
#57=EDGE_CURVE('',#24,#58,#60,.T.);
#58=VERTEX_POINT('',#59);
#59=CARTESIAN_POINT('',(0.8,-1.2,0.55));
#60=LINE('',#25,#54);
#61=ORIENTED_EDGE('',*,*,#62,.F.);
#62=EDGE_CURVE('',#51,#58,#63,.T.);
#63=LINE('',#52,#27);
#64=PLANE('',#65);
#65=AXIS2_PLACEMENT_3D('',#23,#34,#13);
#66=ADVANCED_FACE('',(#67,#77),#86,.T.);
#67=FACE_BOUND('',#68,.T.);
#68=EDGE_LOOP('',(#40,#56,#69,#74));
#69=ORIENTED_EDGE('',*,*,#70,.T.);
#70=EDGE_CURVE('',#58,#71,#73,.T.);
#71=VERTEX_POINT('',#72);
#72=CARTESIAN_POINT('',(0.8,1.2,0.55));
#73=LINE('',#59,#33);
#74=ORIENTED_EDGE('',*,*,#75,.F.);
#75=EDGE_CURVE('',#37,#71,#76,.T.);
#76=LINE('',#38,#54);
#77=FACE_BOUND('',#78,.T.);
#78=EDGE_LOOP('',(#79));
#79=ORIENTED_EDGE('',*,*,#80,.F.);
#80=EDGE_CURVE('',#81,#81,#83,.T.);
#81=VERTEX_POINT('',#82);
#82=CARTESIAN_POINT('',(-0.44,0.96,0.55));
#83=CIRCLE('',#84,0.12);
#84=AXIS2_PLACEMENT_3D('',#85,#13,#45);
#85=CARTESIAN_POINT('',(-0.56,0.96,0.55));
#86=PLANE('',#87);
#87=AXIS2_PLACEMENT_3D('',#25,#13,#45);
#88=ADVANCED_FACE('',(#89),#100,.T.);
#89=FACE_BOUND('',#90,.T.);
#90=EDGE_LOOP('',(#91,#35,#96,#97));
#91=ORIENTED_EDGE('',*,*,#92,.F.);
#92=EDGE_CURVE('',#30,#93,#95,.T.);
#93=VERTEX_POINT('',#94);
#94=CARTESIAN_POINT('',(0.8,1.2,3.E-02));
#95=LINE('',#31,#54);
#96=ORIENTED_EDGE('',*,*,#75,.T.);
#97=ORIENTED_EDGE('',*,*,#98,.F.);
#98=EDGE_CURVE('',#93,#71,#99,.T.);
#99=LINE('',#94,#27);
#100=PLANE('',#101);
#101=AXIS2_PLACEMENT_3D('',#31,#34,#13);
#102=ADVANCED_FACE('',(#103,#110,#136,#158,#184,#206,#228,#254,#276,#298,#320,#342,#364,#389,#415,#437,#459,#481),#503,.F.);
#103=FACE_BOUND('',#104,.F.);
#104=EDGE_LOOP('',(#105,#106,#107,#91));
#105=ORIENTED_EDGE('',*,*,#29,.F.);
#106=ORIENTED_EDGE('',*,*,#50,.T.);
#107=ORIENTED_EDGE('',*,*,#108,.T.);
#108=EDGE_CURVE('',#51,#93,#109,.T.);
#109=LINE('',#52,#33);
#110=FACE_BOUND('',#111,.F.);
#111=EDGE_LOOP('',(#112,#121,#128,#133));
#112=ORIENTED_EDGE('',*,*,#113,.T.);
#113=EDGE_CURVE('',#114,#116,#118,.T.);
#114=VERTEX_POINT('',#115);
#115=CARTESIAN_POINT('',(-0.5,-1.1,3.E-02));
#116=VERTEX_POINT('',#117);
#117=CARTESIAN_POINT('',(-0.75,-1.1,3.E-02));
#118=LINE('',#115,#119);
#119=VECTOR('',#120,1.);
#120=DIRECTION('',(-1.,1.110223024625E-16,0.));
#121=ORIENTED_EDGE('',*,*,#122,.T.);
#122=EDGE_CURVE('',#116,#123,#125,.T.);
#123=VERTEX_POINT('',#124);
#124=CARTESIAN_POINT('',(-0.75,-0.9,3.E-02));
#125=LINE('',#117,#126);
#126=VECTOR('',#127,1.);
#127=DIRECTION('',(1.110223024625E-16,1.,0.));
#128=ORIENTED_EDGE('',*,*,#129,.F.);
#129=EDGE_CURVE('',#130,#123,#132,.T.);
#130=VERTEX_POINT('',#131);
#131=CARTESIAN_POINT('',(-0.5,-0.9,3.E-02));
#132=LINE('',#131,#119);
#133=ORIENTED_EDGE('',*,*,#134,.F.);
#134=EDGE_CURVE('',#114,#130,#135,.T.);
#135=LINE('',#115,#126);
#136=FACE_BOUND('',#137,.F.);
#137=EDGE_LOOP('',(#138,#145,#150,#155));
#138=ORIENTED_EDGE('',*,*,#139,.T.);
#139=EDGE_CURVE('',#140,#142,#144,.T.);
#140=VERTEX_POINT('',#141);
#141=CARTESIAN_POINT('',(-0.5,-0.7,3.E-02));
#142=VERTEX_POINT('',#143);
#143=CARTESIAN_POINT('',(-0.75,-0.7,3.E-02));
#144=LINE('',#141,#119);
#145=ORIENTED_EDGE('',*,*,#146,.T.);
#146=EDGE_CURVE('',#142,#147,#149,.T.);
#147=VERTEX_POINT('',#148);
#148=CARTESIAN_POINT('',(-0.75,-0.5,3.E-02));
#149=LINE('',#143,#126);
#150=ORIENTED_EDGE('',*,*,#151,.F.);
#151=EDGE_CURVE('',#152,#147,#154,.T.);
#152=VERTEX_POINT('',#153);
#153=CARTESIAN_POINT('',(-0.5,-0.5,3.E-02));
#154=LINE('',#153,#119);
#155=ORIENTED_EDGE('',*,*,#156,.F.);
#156=EDGE_CURVE('',#140,#152,#157,.T.);
#157=LINE('',#141,#126);
#158=FACE_BOUND('',#159,.F.);
#159=EDGE_LOOP('',(#160,#169,#176,#181));
#160=ORIENTED_EDGE('',*,*,#161,.T.);
#161=EDGE_CURVE('',#162,#164,#166,.T.);
#162=VERTEX_POINT('',#163);
#163=CARTESIAN_POINT('',(-1.E-01,-0.9,3.E-02));
#164=VERTEX_POINT('',#165);
#165=CARTESIAN_POINT('',(-0.1,-1.15,3.E-02));
#166=LINE('',#163,#167);
#167=VECTOR('',#168,1.);
#168=DIRECTION('',(-1.224646799147E-16,-1.,0.));
#169=ORIENTED_EDGE('',*,*,#170,.T.);
#170=EDGE_CURVE('',#164,#171,#173,.T.);
#171=VERTEX_POINT('',#172);
#172=CARTESIAN_POINT('',(-0.3,-1.15,3.E-02));
#173=LINE('',#165,#174);
#174=VECTOR('',#175,1.);
#175=DIRECTION('',(-1.,1.224646799147E-16,0.));
#176=ORIENTED_EDGE('',*,*,#177,.F.);
#177=EDGE_CURVE('',#178,#171,#180,.T.);
#178=VERTEX_POINT('',#179);
#179=CARTESIAN_POINT('',(-0.3,-0.9,3.E-02));
#180=LINE('',#179,#167);
#181=ORIENTED_EDGE('',*,*,#182,.F.);
#182=EDGE_CURVE('',#162,#178,#183,.T.);
#183=LINE('',#163,#174);
#184=FACE_BOUND('',#185,.F.);
#185=EDGE_LOOP('',(#186,#193,#198,#203));
#186=ORIENTED_EDGE('',*,*,#187,.T.);
#187=EDGE_CURVE('',#188,#190,#192,.T.);
#188=VERTEX_POINT('',#189);
#189=CARTESIAN_POINT('',(-0.5,-0.3,3.E-02));
#190=VERTEX_POINT('',#191);
#191=CARTESIAN_POINT('',(-0.75,-0.3,3.E-02));
#192=LINE('',#189,#119);
#193=ORIENTED_EDGE('',*,*,#194,.T.);
#194=EDGE_CURVE('',#190,#195,#197,.T.);
#195=VERTEX_POINT('',#196);
#196=CARTESIAN_POINT('',(-0.75,-0.1,3.E-02));
#197=LINE('',#191,#126);
#198=ORIENTED_EDGE('',*,*,#199,.F.);
#199=EDGE_CURVE('',#200,#195,#202,.T.);
#200=VERTEX_POINT('',#201);
#201=CARTESIAN_POINT('',(-0.5,-0.1,3.E-02));
#202=LINE('',#201,#119);
#203=ORIENTED_EDGE('',*,*,#204,.F.);
#204=EDGE_CURVE('',#188,#200,#205,.T.);
#205=LINE('',#189,#126);
#206=FACE_BOUND('',#207,.F.);
#207=EDGE_LOOP('',(#208,#215,#220,#225));
#208=ORIENTED_EDGE('',*,*,#209,.T.);
#209=EDGE_CURVE('',#210,#212,#214,.T.);
#210=VERTEX_POINT('',#211);
#211=CARTESIAN_POINT('',(0.3,-0.9,3.E-02));
#212=VERTEX_POINT('',#213);
#213=CARTESIAN_POINT('',(0.3,-1.15,3.E-02));
#214=LINE('',#211,#167);
#215=ORIENTED_EDGE('',*,*,#216,.T.);
#216=EDGE_CURVE('',#212,#217,#219,.T.);
#217=VERTEX_POINT('',#218);
#218=CARTESIAN_POINT('',(1.E-01,-1.15,3.E-02));
#219=LINE('',#213,#174);
#220=ORIENTED_EDGE('',*,*,#221,.F.);
#221=EDGE_CURVE('',#222,#217,#224,.T.);
#222=VERTEX_POINT('',#223);
#223=CARTESIAN_POINT('',(0.1,-0.9,3.E-02));
#224=LINE('',#223,#167);
#225=ORIENTED_EDGE('',*,*,#226,.F.);
#226=EDGE_CURVE('',#210,#222,#227,.T.);
#227=LINE('',#211,#174);
#228=FACE_BOUND('',#229,.F.);
#229=EDGE_LOOP('',(#230,#239,#246,#251));
#230=ORIENTED_EDGE('',*,*,#231,.T.);
#231=EDGE_CURVE('',#232,#234,#236,.T.);
#232=VERTEX_POINT('',#233);
#233=CARTESIAN_POINT('',(0.5,-0.9,3.E-02));
#234=VERTEX_POINT('',#235);
#235=CARTESIAN_POINT('',(0.75,-0.9,3.E-02));
#236=LINE('',#233,#237);
#237=VECTOR('',#238,1.);
#238=DIRECTION('',(1.,-2.22044604925E-16,0.));
#239=ORIENTED_EDGE('',*,*,#240,.T.);
#240=EDGE_CURVE('',#234,#241,#243,.T.);
#241=VERTEX_POINT('',#242);
#242=CARTESIAN_POINT('',(0.75,-1.1,3.E-02));
#243=LINE('',#235,#244);
#244=VECTOR('',#245,1.);
#245=DIRECTION('',(-2.22044604925E-16,-1.,0.));
#246=ORIENTED_EDGE('',*,*,#247,.F.);
#247=EDGE_CURVE('',#248,#241,#250,.T.);
#248=VERTEX_POINT('',#249);
#249=CARTESIAN_POINT('',(0.5,-1.1,3.E-02));
#250=LINE('',#249,#237);
#251=ORIENTED_EDGE('',*,*,#252,.F.);
#252=EDGE_CURVE('',#232,#248,#253,.T.);
#253=LINE('',#233,#244);
#254=FACE_BOUND('',#255,.F.);
#255=EDGE_LOOP('',(#256,#263,#268,#273));
#256=ORIENTED_EDGE('',*,*,#257,.T.);
#257=EDGE_CURVE('',#258,#260,#262,.T.);
#258=VERTEX_POINT('',#259);
#259=CARTESIAN_POINT('',(0.5,-0.5,3.E-02));
#260=VERTEX_POINT('',#261);
#261=CARTESIAN_POINT('',(0.75,-0.5,3.E-02));
#262=LINE('',#259,#237);
#263=ORIENTED_EDGE('',*,*,#264,.T.);
#264=EDGE_CURVE('',#260,#265,#267,.T.);
#265=VERTEX_POINT('',#266);
#266=CARTESIAN_POINT('',(0.75,-0.7,3.E-02));
#267=LINE('',#261,#244);
#268=ORIENTED_EDGE('',*,*,#269,.F.);
#269=EDGE_CURVE('',#270,#265,#272,.T.);
#270=VERTEX_POINT('',#271);
#271=CARTESIAN_POINT('',(0.5,-0.7,3.E-02));
#272=LINE('',#271,#237);
#273=ORIENTED_EDGE('',*,*,#274,.F.);
#274=EDGE_CURVE('',#258,#270,#275,.T.);
#275=LINE('',#259,#244);
#276=FACE_BOUND('',#277,.F.);
#277=EDGE_LOOP('',(#278,#285,#290,#295));
#278=ORIENTED_EDGE('',*,*,#279,.T.);
#279=EDGE_CURVE('',#280,#282,#284,.T.);
#280=VERTEX_POINT('',#281);
#281=CARTESIAN_POINT('',(0.5,-1.E-01,3.E-02));
#282=VERTEX_POINT('',#283);
#283=CARTESIAN_POINT('',(0.75,-1.E-01,3.E-02));
#284=LINE('',#281,#237);
#285=ORIENTED_EDGE('',*,*,#286,.T.);
#286=EDGE_CURVE('',#282,#287,#289,.T.);
#287=VERTEX_POINT('',#288);
#288=CARTESIAN_POINT('',(0.75,-0.3,3.E-02));
#289=LINE('',#283,#244);
#290=ORIENTED_EDGE('',*,*,#291,.F.);
#291=EDGE_CURVE('',#292,#287,#294,.T.);
#292=VERTEX_POINT('',#293);
#293=CARTESIAN_POINT('',(0.5,-0.3,3.E-02));
#294=LINE('',#293,#237);
#295=ORIENTED_EDGE('',*,*,#296,.F.);
#296=EDGE_CURVE('',#280,#292,#297,.T.);
#297=LINE('',#281,#244);
#298=FACE_BOUND('',#299,.F.);
#299=EDGE_LOOP('',(#300,#307,#312,#317));
#300=ORIENTED_EDGE('',*,*,#301,.T.);
#301=EDGE_CURVE('',#302,#304,#306,.T.);
#302=VERTEX_POINT('',#303);
#303=CARTESIAN_POINT('',(-0.5,1.E-01,3.E-02));
#304=VERTEX_POINT('',#305);
#305=CARTESIAN_POINT('',(-0.75,1.E-01,3.E-02));
#306=LINE('',#303,#119);
#307=ORIENTED_EDGE('',*,*,#308,.T.);
#308=EDGE_CURVE('',#304,#309,#311,.T.);
#309=VERTEX_POINT('',#310);
#310=CARTESIAN_POINT('',(-0.75,0.3,3.E-02));
#311=LINE('',#305,#126);
#312=ORIENTED_EDGE('',*,*,#313,.F.);
#313=EDGE_CURVE('',#314,#309,#316,.T.);
#314=VERTEX_POINT('',#315);
#315=CARTESIAN_POINT('',(-0.5,0.3,3.E-02));
#316=LINE('',#315,#119);
#317=ORIENTED_EDGE('',*,*,#318,.F.);
#318=EDGE_CURVE('',#302,#314,#319,.T.);
#319=LINE('',#303,#126);
#320=FACE_BOUND('',#321,.F.);
#321=EDGE_LOOP('',(#322,#329,#334,#339));
#322=ORIENTED_EDGE('',*,*,#323,.T.);
#323=EDGE_CURVE('',#324,#326,#328,.T.);
#324=VERTEX_POINT('',#325);
#325=CARTESIAN_POINT('',(-0.5,0.5,3.E-02));
#326=VERTEX_POINT('',#327);
#327=CARTESIAN_POINT('',(-0.75,0.5,3.E-02));
#328=LINE('',#325,#119);
#329=ORIENTED_EDGE('',*,*,#330,.T.);
#330=EDGE_CURVE('',#326,#331,#333,.T.);
#331=VERTEX_POINT('',#332);
#332=CARTESIAN_POINT('',(-0.75,0.7,3.E-02));
#333=LINE('',#327,#126);
#334=ORIENTED_EDGE('',*,*,#335,.F.);
#335=EDGE_CURVE('',#336,#331,#338,.T.);
#336=VERTEX_POINT('',#337);
#337=CARTESIAN_POINT('',(-0.5,0.7,3.E-02));
#338=LINE('',#337,#119);
#339=ORIENTED_EDGE('',*,*,#340,.F.);
#340=EDGE_CURVE('',#324,#336,#341,.T.);
#341=LINE('',#325,#126);
#342=FACE_BOUND('',#343,.F.);
#343=EDGE_LOOP('',(#344,#351,#356,#361));
#344=ORIENTED_EDGE('',*,*,#345,.T.);
#345=EDGE_CURVE('',#346,#348,#350,.T.);
#346=VERTEX_POINT('',#347);
#347=CARTESIAN_POINT('',(-0.5,0.9,3.E-02));
#348=VERTEX_POINT('',#349);
#349=CARTESIAN_POINT('',(-0.75,0.9,3.E-02));
#350=LINE('',#347,#119);
#351=ORIENTED_EDGE('',*,*,#352,.T.);
#352=EDGE_CURVE('',#348,#353,#355,.T.);
#353=VERTEX_POINT('',#354);
#354=CARTESIAN_POINT('',(-0.75,1.1,3.E-02));
#355=LINE('',#349,#126);
#356=ORIENTED_EDGE('',*,*,#357,.F.);
#357=EDGE_CURVE('',#358,#353,#360,.T.);
#358=VERTEX_POINT('',#359);
#359=CARTESIAN_POINT('',(-0.5,1.1,3.E-02));
#360=LINE('',#359,#119);
#361=ORIENTED_EDGE('',*,*,#362,.F.);
#362=EDGE_CURVE('',#346,#358,#363,.T.);
#363=LINE('',#347,#126);
#364=FACE_BOUND('',#365,.F.);
#365=EDGE_LOOP('',(#366,#375,#381,#386));
#366=ORIENTED_EDGE('',*,*,#367,.T.);
#367=EDGE_CURVE('',#368,#370,#372,.T.);
#368=VERTEX_POINT('',#369);
#369=CARTESIAN_POINT('',(-0.3,0.9,3.E-02));
#370=VERTEX_POINT('',#371);
#371=CARTESIAN_POINT('',(-0.3,1.15,3.E-02));
#372=LINE('',#369,#373);
#373=VECTOR('',#374,1.);
#374=DIRECTION('',(-0.,1.,0.));
#375=ORIENTED_EDGE('',*,*,#376,.T.);
#376=EDGE_CURVE('',#370,#377,#379,.T.);
#377=VERTEX_POINT('',#378);
#378=CARTESIAN_POINT('',(-0.1,1.15,3.E-02));
#379=LINE('',#371,#380);
#380=VECTOR('',#14,1.);
#381=ORIENTED_EDGE('',*,*,#382,.F.);
#382=EDGE_CURVE('',#383,#377,#385,.T.);
#383=VERTEX_POINT('',#384);
#384=CARTESIAN_POINT('',(-0.1,0.9,3.E-02));
#385=LINE('',#384,#373);
#386=ORIENTED_EDGE('',*,*,#387,.F.);
#387=EDGE_CURVE('',#368,#383,#388,.T.);
#388=LINE('',#369,#380);
#389=FACE_BOUND('',#390,.F.);
#390=EDGE_LOOP('',(#391,#398,#405,#412));
#391=ORIENTED_EDGE('',*,*,#392,.F.);
#392=EDGE_CURVE('',#393,#395,#397,.T.);
#393=VERTEX_POINT('',#394);
#394=CARTESIAN_POINT('',(-0.3,-0.7,3.E-02));
#395=VERTEX_POINT('',#396);
#396=CARTESIAN_POINT('',(0.3,-0.7,3.E-02));
#397=LINE('',#394,#54);
#398=ORIENTED_EDGE('',*,*,#399,.F.);
#399=EDGE_CURVE('',#400,#393,#402,.T.);
#400=VERTEX_POINT('',#401);
#401=CARTESIAN_POINT('',(-0.3,0.7,3.E-02));
#402=LINE('',#401,#403);
#403=VECTOR('',#404,1.);
#404=DIRECTION('',(0.,-1.,0.));
#405=ORIENTED_EDGE('',*,*,#406,.F.);
#406=EDGE_CURVE('',#407,#400,#409,.T.);
#407=VERTEX_POINT('',#408);
#408=CARTESIAN_POINT('',(0.3,0.7,3.E-02));
#409=LINE('',#408,#410);
#410=VECTOR('',#411,1.);
#411=DIRECTION('',(-1.,0.,0.));
#412=ORIENTED_EDGE('',*,*,#413,.F.);
#413=EDGE_CURVE('',#395,#407,#414,.T.);
#414=LINE('',#396,#33);
#415=FACE_BOUND('',#416,.F.);
#416=EDGE_LOOP('',(#417,#424,#429,#434));
#417=ORIENTED_EDGE('',*,*,#418,.T.);
#418=EDGE_CURVE('',#419,#421,#423,.T.);
#419=VERTEX_POINT('',#420);
#420=CARTESIAN_POINT('',(0.5,0.3,3.E-02));
#421=VERTEX_POINT('',#422);
#422=CARTESIAN_POINT('',(0.75,0.3,3.E-02));
#423=LINE('',#420,#237);
#424=ORIENTED_EDGE('',*,*,#425,.T.);
#425=EDGE_CURVE('',#421,#426,#428,.T.);
#426=VERTEX_POINT('',#427);
#427=CARTESIAN_POINT('',(0.75,0.1,3.E-02));
#428=LINE('',#422,#244);
#429=ORIENTED_EDGE('',*,*,#430,.F.);
#430=EDGE_CURVE('',#431,#426,#433,.T.);
#431=VERTEX_POINT('',#432);
#432=CARTESIAN_POINT('',(0.5,0.1,3.E-02));
#433=LINE('',#432,#237);
#434=ORIENTED_EDGE('',*,*,#435,.F.);
#435=EDGE_CURVE('',#419,#431,#436,.T.);
#436=LINE('',#420,#244);
#437=FACE_BOUND('',#438,.F.);
#438=EDGE_LOOP('',(#439,#446,#451,#456));
#439=ORIENTED_EDGE('',*,*,#440,.T.);
#440=EDGE_CURVE('',#441,#443,#445,.T.);
#441=VERTEX_POINT('',#442);
#442=CARTESIAN_POINT('',(0.1,0.9,3.E-02));
#443=VERTEX_POINT('',#444);
#444=CARTESIAN_POINT('',(0.1,1.15,3.E-02));
#445=LINE('',#442,#373);
#446=ORIENTED_EDGE('',*,*,#447,.T.);
#447=EDGE_CURVE('',#443,#448,#450,.T.);
#448=VERTEX_POINT('',#449);
#449=CARTESIAN_POINT('',(0.3,1.15,3.E-02));
#450=LINE('',#444,#380);
#451=ORIENTED_EDGE('',*,*,#452,.F.);
#452=EDGE_CURVE('',#453,#448,#455,.T.);
#453=VERTEX_POINT('',#454);
#454=CARTESIAN_POINT('',(0.3,0.9,3.E-02));
#455=LINE('',#454,#373);
#456=ORIENTED_EDGE('',*,*,#457,.F.);
#457=EDGE_CURVE('',#441,#453,#458,.T.);
#458=LINE('',#442,#380);
#459=FACE_BOUND('',#460,.F.);
#460=EDGE_LOOP('',(#461,#468,#473,#478));
#461=ORIENTED_EDGE('',*,*,#462,.T.);
#462=EDGE_CURVE('',#463,#465,#467,.T.);
#463=VERTEX_POINT('',#464);
#464=CARTESIAN_POINT('',(0.5,0.7,3.E-02));
#465=VERTEX_POINT('',#466);
#466=CARTESIAN_POINT('',(0.75,0.7,3.E-02));
#467=LINE('',#464,#237);
#468=ORIENTED_EDGE('',*,*,#469,.T.);
#469=EDGE_CURVE('',#465,#470,#472,.T.);
#470=VERTEX_POINT('',#471);
#471=CARTESIAN_POINT('',(0.75,0.5,3.E-02));
#472=LINE('',#466,#244);
#473=ORIENTED_EDGE('',*,*,#474,.F.);
#474=EDGE_CURVE('',#475,#470,#477,.T.);
#475=VERTEX_POINT('',#476);
#476=CARTESIAN_POINT('',(0.5,0.5,3.E-02));
#477=LINE('',#476,#237);
#478=ORIENTED_EDGE('',*,*,#479,.F.);
#479=EDGE_CURVE('',#463,#475,#480,.T.);
#480=LINE('',#464,#244);
#481=FACE_BOUND('',#482,.F.);
#482=EDGE_LOOP('',(#483,#490,#495,#500));
#483=ORIENTED_EDGE('',*,*,#484,.T.);
#484=EDGE_CURVE('',#485,#487,#489,.T.);
#485=VERTEX_POINT('',#486);
#486=CARTESIAN_POINT('',(0.5,1.1,3.E-02));
#487=VERTEX_POINT('',#488);
#488=CARTESIAN_POINT('',(0.75,1.1,3.E-02));
#489=LINE('',#486,#237);
#490=ORIENTED_EDGE('',*,*,#491,.T.);
#491=EDGE_CURVE('',#487,#492,#494,.T.);
#492=VERTEX_POINT('',#493);
#493=CARTESIAN_POINT('',(0.75,0.9,3.E-02));
#494=LINE('',#488,#244);
#495=ORIENTED_EDGE('',*,*,#496,.F.);
#496=EDGE_CURVE('',#497,#492,#499,.T.);
#497=VERTEX_POINT('',#498);
#498=CARTESIAN_POINT('',(0.5,0.9,3.E-02));
#499=LINE('',#498,#237);
#500=ORIENTED_EDGE('',*,*,#501,.F.);
#501=EDGE_CURVE('',#485,#497,#502,.T.);
#502=LINE('',#486,#244);
#503=PLANE('',#504);
#504=AXIS2_PLACEMENT_3D('',#23,#13,#45);
#505=ADVANCED_FACE('',(#506),#510,.T.);
#506=FACE_BOUND('',#507,.T.);
#507=EDGE_LOOP('',(#61,#107,#508,#509));
#508=ORIENTED_EDGE('',*,*,#98,.T.);
#509=ORIENTED_EDGE('',*,*,#70,.F.);
#510=PLANE('',#511);
#511=AXIS2_PLACEMENT_3D('',#52,#45,#13);
#512=ADVANCED_FACE('',(#513),#516,.T.);
#513=FACE_BOUND('',#514,.T.);
#514=EDGE_LOOP('',(#515));
#515=ORIENTED_EDGE('',*,*,#80,.T.);
#516=PLANE('',#517);
#517=AXIS2_PLACEMENT_3D('',#85,#13,#14);
#518=ADVANCED_FACE('',(#519),#535,.F.);
#519=FACE_BOUND('',#520,.F.);
#520=EDGE_LOOP('',(#521,#526,#531,#534));
#521=ORIENTED_EDGE('',*,*,#522,.F.);
#522=EDGE_CURVE('',#523,#114,#525,.T.);
#523=VERTEX_POINT('',#524);
#524=CARTESIAN_POINT('',(-0.5,-1.1,0.));
#525=LINE('',#524,#27);
#526=ORIENTED_EDGE('',*,*,#527,.T.);
#527=EDGE_CURVE('',#523,#528,#530,.T.);
#528=VERTEX_POINT('',#529);
#529=CARTESIAN_POINT('',(-0.75,-1.1,0.));
#530=LINE('',#524,#119);
#531=ORIENTED_EDGE('',*,*,#532,.T.);
#532=EDGE_CURVE('',#528,#116,#533,.T.);
#533=LINE('',#529,#27);
#534=ORIENTED_EDGE('',*,*,#113,.F.);
#535=PLANE('',#536);
#536=AXIS2_PLACEMENT_3D('',#524,#127,#13);
#537=ADVANCED_FACE('',(#538),#550,.F.);
#538=FACE_BOUND('',#539,.F.);
#539=EDGE_LOOP('',(#540,#545,#546,#547));
#540=ORIENTED_EDGE('',*,*,#541,.F.);
#541=EDGE_CURVE('',#523,#542,#544,.T.);
#542=VERTEX_POINT('',#543);
#543=CARTESIAN_POINT('',(-0.5,-0.9,0.));
#544=LINE('',#524,#126);
#545=ORIENTED_EDGE('',*,*,#522,.T.);
#546=ORIENTED_EDGE('',*,*,#134,.T.);
#547=ORIENTED_EDGE('',*,*,#548,.F.);
#548=EDGE_CURVE('',#542,#130,#549,.T.);
#549=LINE('',#543,#27);
#550=PLANE('',#551);
#551=AXIS2_PLACEMENT_3D('',#524,#120,#13);
#552=ADVANCED_FACE('',(#553),#563,.T.);
#553=FACE_BOUND('',#554,.T.);
#554=EDGE_LOOP('',(#547,#555,#560,#128));
#555=ORIENTED_EDGE('',*,*,#556,.T.);
#556=EDGE_CURVE('',#542,#557,#559,.T.);
#557=VERTEX_POINT('',#558);
#558=CARTESIAN_POINT('',(-0.75,-0.9,0.));
#559=LINE('',#543,#119);
#560=ORIENTED_EDGE('',*,*,#561,.T.);
#561=EDGE_CURVE('',#557,#123,#562,.T.);
#562=LINE('',#558,#27);
#563=PLANE('',#564);
#564=AXIS2_PLACEMENT_3D('',#543,#127,#13);
#565=ADVANCED_FACE('',(#566),#572,.T.);
#566=FACE_BOUND('',#567,.T.);
#567=EDGE_LOOP('',(#568,#531,#121,#571));
#568=ORIENTED_EDGE('',*,*,#569,.F.);
#569=EDGE_CURVE('',#528,#557,#570,.T.);
#570=LINE('',#529,#126);
#571=ORIENTED_EDGE('',*,*,#561,.F.);
#572=PLANE('',#573);
#573=AXIS2_PLACEMENT_3D('',#529,#120,#13);
#574=ADVANCED_FACE('',(#575),#591,.F.);
#575=FACE_BOUND('',#576,.F.);
#576=EDGE_LOOP('',(#577,#582,#587,#590));
#577=ORIENTED_EDGE('',*,*,#578,.F.);
#578=EDGE_CURVE('',#579,#140,#581,.T.);
#579=VERTEX_POINT('',#580);
#580=CARTESIAN_POINT('',(-0.5,-0.7,0.));
#581=LINE('',#580,#27);
#582=ORIENTED_EDGE('',*,*,#583,.T.);
#583=EDGE_CURVE('',#579,#584,#586,.T.);
#584=VERTEX_POINT('',#585);
#585=CARTESIAN_POINT('',(-0.75,-0.7,0.));
#586=LINE('',#580,#119);
#587=ORIENTED_EDGE('',*,*,#588,.T.);
#588=EDGE_CURVE('',#584,#142,#589,.T.);
#589=LINE('',#585,#27);
#590=ORIENTED_EDGE('',*,*,#139,.F.);
#591=PLANE('',#592);
#592=AXIS2_PLACEMENT_3D('',#580,#127,#13);
#593=ADVANCED_FACE('',(#594),#606,.F.);
#594=FACE_BOUND('',#595,.F.);
#595=EDGE_LOOP('',(#596,#601,#602,#603));
#596=ORIENTED_EDGE('',*,*,#597,.F.);
#597=EDGE_CURVE('',#579,#598,#600,.T.);
#598=VERTEX_POINT('',#599);
#599=CARTESIAN_POINT('',(-0.5,-0.5,0.));
#600=LINE('',#580,#126);
#601=ORIENTED_EDGE('',*,*,#578,.T.);
#602=ORIENTED_EDGE('',*,*,#156,.T.);
#603=ORIENTED_EDGE('',*,*,#604,.F.);
#604=EDGE_CURVE('',#598,#152,#605,.T.);
#605=LINE('',#599,#27);
#606=PLANE('',#607);
#607=AXIS2_PLACEMENT_3D('',#580,#120,#13);
#608=ADVANCED_FACE('',(#609),#619,.T.);
#609=FACE_BOUND('',#610,.T.);
#610=EDGE_LOOP('',(#603,#611,#616,#150));
#611=ORIENTED_EDGE('',*,*,#612,.T.);
#612=EDGE_CURVE('',#598,#613,#615,.T.);
#613=VERTEX_POINT('',#614);
#614=CARTESIAN_POINT('',(-0.75,-0.5,0.));
#615=LINE('',#599,#119);
#616=ORIENTED_EDGE('',*,*,#617,.T.);
#617=EDGE_CURVE('',#613,#147,#618,.T.);
#618=LINE('',#614,#27);
#619=PLANE('',#620);
#620=AXIS2_PLACEMENT_3D('',#599,#127,#13);
#621=ADVANCED_FACE('',(#622),#628,.T.);
#622=FACE_BOUND('',#623,.T.);
#623=EDGE_LOOP('',(#624,#587,#145,#627));
#624=ORIENTED_EDGE('',*,*,#625,.F.);
#625=EDGE_CURVE('',#584,#613,#626,.T.);
#626=LINE('',#585,#126);
#627=ORIENTED_EDGE('',*,*,#617,.F.);
#628=PLANE('',#629);
#629=AXIS2_PLACEMENT_3D('',#585,#120,#13);
#630=ADVANCED_FACE('',(#631),#647,.F.);
#631=FACE_BOUND('',#632,.F.);
#632=EDGE_LOOP('',(#633,#638,#643,#646));
#633=ORIENTED_EDGE('',*,*,#634,.F.);
#634=EDGE_CURVE('',#635,#162,#637,.T.);
#635=VERTEX_POINT('',#636);
#636=CARTESIAN_POINT('',(-1.E-01,-0.9,0.));
#637=LINE('',#636,#27);
#638=ORIENTED_EDGE('',*,*,#639,.T.);
#639=EDGE_CURVE('',#635,#640,#642,.T.);
#640=VERTEX_POINT('',#641);
#641=CARTESIAN_POINT('',(-0.1,-1.15,0.));
#642=LINE('',#636,#167);
#643=ORIENTED_EDGE('',*,*,#644,.T.);
#644=EDGE_CURVE('',#640,#164,#645,.T.);
#645=LINE('',#641,#27);
#646=ORIENTED_EDGE('',*,*,#161,.F.);
#647=PLANE('',#648);
#648=AXIS2_PLACEMENT_3D('',#636,#175,#13);
#649=ADVANCED_FACE('',(#650),#662,.F.);
#650=FACE_BOUND('',#651,.F.);
#651=EDGE_LOOP('',(#652,#657,#658,#659));
#652=ORIENTED_EDGE('',*,*,#653,.F.);
#653=EDGE_CURVE('',#635,#654,#656,.T.);
#654=VERTEX_POINT('',#655);
#655=CARTESIAN_POINT('',(-0.3,-0.9,0.));
#656=LINE('',#636,#174);
#657=ORIENTED_EDGE('',*,*,#634,.T.);
#658=ORIENTED_EDGE('',*,*,#182,.T.);
#659=ORIENTED_EDGE('',*,*,#660,.F.);
#660=EDGE_CURVE('',#654,#178,#661,.T.);
#661=LINE('',#655,#27);
#662=PLANE('',#663);
#663=AXIS2_PLACEMENT_3D('',#636,#168,#13);
#664=ADVANCED_FACE('',(#665),#675,.T.);
#665=FACE_BOUND('',#666,.T.);
#666=EDGE_LOOP('',(#659,#667,#672,#176));
#667=ORIENTED_EDGE('',*,*,#668,.T.);
#668=EDGE_CURVE('',#654,#669,#671,.T.);
#669=VERTEX_POINT('',#670);
#670=CARTESIAN_POINT('',(-0.3,-1.15,0.));
#671=LINE('',#655,#167);
#672=ORIENTED_EDGE('',*,*,#673,.T.);
#673=EDGE_CURVE('',#669,#171,#674,.T.);
#674=LINE('',#670,#27);
#675=PLANE('',#676);
#676=AXIS2_PLACEMENT_3D('',#655,#175,#13);
#677=ADVANCED_FACE('',(#678),#684,.T.);
#678=FACE_BOUND('',#679,.T.);
#679=EDGE_LOOP('',(#680,#643,#169,#683));
#680=ORIENTED_EDGE('',*,*,#681,.F.);
#681=EDGE_CURVE('',#640,#669,#682,.T.);
#682=LINE('',#641,#174);
#683=ORIENTED_EDGE('',*,*,#673,.F.);
#684=PLANE('',#685);
#685=AXIS2_PLACEMENT_3D('',#641,#168,#13);
#686=ADVANCED_FACE('',(#687),#703,.F.);
#687=FACE_BOUND('',#688,.F.);
#688=EDGE_LOOP('',(#689,#694,#699,#702));
#689=ORIENTED_EDGE('',*,*,#690,.F.);
#690=EDGE_CURVE('',#691,#188,#693,.T.);
#691=VERTEX_POINT('',#692);
#692=CARTESIAN_POINT('',(-0.5,-0.3,0.));
#693=LINE('',#692,#27);
#694=ORIENTED_EDGE('',*,*,#695,.T.);
#695=EDGE_CURVE('',#691,#696,#698,.T.);
#696=VERTEX_POINT('',#697);
#697=CARTESIAN_POINT('',(-0.75,-0.3,0.));
#698=LINE('',#692,#119);
#699=ORIENTED_EDGE('',*,*,#700,.T.);
#700=EDGE_CURVE('',#696,#190,#701,.T.);
#701=LINE('',#697,#27);
#702=ORIENTED_EDGE('',*,*,#187,.F.);
#703=PLANE('',#704);
#704=AXIS2_PLACEMENT_3D('',#692,#127,#13);
#705=ADVANCED_FACE('',(#706),#718,.F.);
#706=FACE_BOUND('',#707,.F.);
#707=EDGE_LOOP('',(#708,#713,#714,#715));
#708=ORIENTED_EDGE('',*,*,#709,.F.);
#709=EDGE_CURVE('',#691,#710,#712,.T.);
#710=VERTEX_POINT('',#711);
#711=CARTESIAN_POINT('',(-0.5,-0.1,0.));
#712=LINE('',#692,#126);
#713=ORIENTED_EDGE('',*,*,#690,.T.);
#714=ORIENTED_EDGE('',*,*,#204,.T.);
#715=ORIENTED_EDGE('',*,*,#716,.F.);
#716=EDGE_CURVE('',#710,#200,#717,.T.);
#717=LINE('',#711,#27);
#718=PLANE('',#719);
#719=AXIS2_PLACEMENT_3D('',#692,#120,#13);
#720=ADVANCED_FACE('',(#721),#731,.T.);
#721=FACE_BOUND('',#722,.T.);
#722=EDGE_LOOP('',(#715,#723,#728,#198));
#723=ORIENTED_EDGE('',*,*,#724,.T.);
#724=EDGE_CURVE('',#710,#725,#727,.T.);
#725=VERTEX_POINT('',#726);
#726=CARTESIAN_POINT('',(-0.75,-0.1,0.));
#727=LINE('',#711,#119);
#728=ORIENTED_EDGE('',*,*,#729,.T.);
#729=EDGE_CURVE('',#725,#195,#730,.T.);
#730=LINE('',#726,#27);
#731=PLANE('',#732);
#732=AXIS2_PLACEMENT_3D('',#711,#127,#13);
#733=ADVANCED_FACE('',(#734),#740,.T.);
#734=FACE_BOUND('',#735,.T.);
#735=EDGE_LOOP('',(#736,#699,#193,#739));
#736=ORIENTED_EDGE('',*,*,#737,.F.);
#737=EDGE_CURVE('',#696,#725,#738,.T.);
#738=LINE('',#697,#126);
#739=ORIENTED_EDGE('',*,*,#729,.F.);
#740=PLANE('',#741);
#741=AXIS2_PLACEMENT_3D('',#697,#120,#13);
#742=ADVANCED_FACE('',(#743),#759,.F.);
#743=FACE_BOUND('',#744,.F.);
#744=EDGE_LOOP('',(#745,#750,#755,#758));
#745=ORIENTED_EDGE('',*,*,#746,.F.);
#746=EDGE_CURVE('',#747,#210,#749,.T.);
#747=VERTEX_POINT('',#748);
#748=CARTESIAN_POINT('',(0.3,-0.9,0.));
#749=LINE('',#748,#27);
#750=ORIENTED_EDGE('',*,*,#751,.T.);
#751=EDGE_CURVE('',#747,#752,#754,.T.);
#752=VERTEX_POINT('',#753);
#753=CARTESIAN_POINT('',(0.3,-1.15,0.));
#754=LINE('',#748,#167);
#755=ORIENTED_EDGE('',*,*,#756,.T.);
#756=EDGE_CURVE('',#752,#212,#757,.T.);
#757=LINE('',#753,#27);
#758=ORIENTED_EDGE('',*,*,#209,.F.);
#759=PLANE('',#760);
#760=AXIS2_PLACEMENT_3D('',#748,#175,#13);
#761=ADVANCED_FACE('',(#762),#774,.F.);
#762=FACE_BOUND('',#763,.F.);
#763=EDGE_LOOP('',(#764,#769,#770,#771));
#764=ORIENTED_EDGE('',*,*,#765,.F.);
#765=EDGE_CURVE('',#747,#766,#768,.T.);
#766=VERTEX_POINT('',#767);
#767=CARTESIAN_POINT('',(0.1,-0.9,0.));
#768=LINE('',#748,#174);
#769=ORIENTED_EDGE('',*,*,#746,.T.);
#770=ORIENTED_EDGE('',*,*,#226,.T.);
#771=ORIENTED_EDGE('',*,*,#772,.F.);
#772=EDGE_CURVE('',#766,#222,#773,.T.);
#773=LINE('',#767,#27);
#774=PLANE('',#775);
#775=AXIS2_PLACEMENT_3D('',#748,#168,#13);
#776=ADVANCED_FACE('',(#777),#787,.T.);
#777=FACE_BOUND('',#778,.T.);
#778=EDGE_LOOP('',(#771,#779,#784,#220));
#779=ORIENTED_EDGE('',*,*,#780,.T.);
#780=EDGE_CURVE('',#766,#781,#783,.T.);
#781=VERTEX_POINT('',#782);
#782=CARTESIAN_POINT('',(1.E-01,-1.15,0.));
#783=LINE('',#767,#167);
#784=ORIENTED_EDGE('',*,*,#785,.T.);
#785=EDGE_CURVE('',#781,#217,#786,.T.);
#786=LINE('',#782,#27);
#787=PLANE('',#788);
#788=AXIS2_PLACEMENT_3D('',#767,#175,#13);
#789=ADVANCED_FACE('',(#790),#796,.T.);
#790=FACE_BOUND('',#791,.T.);
#791=EDGE_LOOP('',(#792,#755,#215,#795));
#792=ORIENTED_EDGE('',*,*,#793,.F.);
#793=EDGE_CURVE('',#752,#781,#794,.T.);
#794=LINE('',#753,#174);
#795=ORIENTED_EDGE('',*,*,#785,.F.);
#796=PLANE('',#797);
#797=AXIS2_PLACEMENT_3D('',#753,#168,#13);
#798=ADVANCED_FACE('',(#799),#815,.F.);
#799=FACE_BOUND('',#800,.F.);
#800=EDGE_LOOP('',(#801,#806,#811,#814));
#801=ORIENTED_EDGE('',*,*,#802,.F.);
#802=EDGE_CURVE('',#803,#232,#805,.T.);
#803=VERTEX_POINT('',#804);
#804=CARTESIAN_POINT('',(0.5,-0.9,0.));
#805=LINE('',#804,#27);
#806=ORIENTED_EDGE('',*,*,#807,.T.);
#807=EDGE_CURVE('',#803,#808,#810,.T.);
#808=VERTEX_POINT('',#809);
#809=CARTESIAN_POINT('',(0.75,-0.9,0.));
#810=LINE('',#804,#237);
#811=ORIENTED_EDGE('',*,*,#812,.T.);
#812=EDGE_CURVE('',#808,#234,#813,.T.);
#813=LINE('',#809,#27);
#814=ORIENTED_EDGE('',*,*,#231,.F.);
#815=PLANE('',#816);
#816=AXIS2_PLACEMENT_3D('',#804,#245,#13);
#817=ADVANCED_FACE('',(#818),#830,.F.);
#818=FACE_BOUND('',#819,.F.);
#819=EDGE_LOOP('',(#820,#825,#826,#827));
#820=ORIENTED_EDGE('',*,*,#821,.F.);
#821=EDGE_CURVE('',#803,#822,#824,.T.);
#822=VERTEX_POINT('',#823);
#823=CARTESIAN_POINT('',(0.5,-1.1,0.));
#824=LINE('',#804,#244);
#825=ORIENTED_EDGE('',*,*,#802,.T.);
#826=ORIENTED_EDGE('',*,*,#252,.T.);
#827=ORIENTED_EDGE('',*,*,#828,.F.);
#828=EDGE_CURVE('',#822,#248,#829,.T.);
#829=LINE('',#823,#27);
#830=PLANE('',#831);
#831=AXIS2_PLACEMENT_3D('',#804,#238,#13);
#832=ADVANCED_FACE('',(#833),#843,.T.);
#833=FACE_BOUND('',#834,.T.);
#834=EDGE_LOOP('',(#827,#835,#840,#246));
#835=ORIENTED_EDGE('',*,*,#836,.T.);
#836=EDGE_CURVE('',#822,#837,#839,.T.);
#837=VERTEX_POINT('',#838);
#838=CARTESIAN_POINT('',(0.75,-1.1,0.));
#839=LINE('',#823,#237);
#840=ORIENTED_EDGE('',*,*,#841,.T.);
#841=EDGE_CURVE('',#837,#241,#842,.T.);
#842=LINE('',#838,#27);
#843=PLANE('',#844);
#844=AXIS2_PLACEMENT_3D('',#823,#245,#13);
#845=ADVANCED_FACE('',(#846),#852,.T.);
#846=FACE_BOUND('',#847,.T.);
#847=EDGE_LOOP('',(#848,#811,#239,#851));
#848=ORIENTED_EDGE('',*,*,#849,.F.);
#849=EDGE_CURVE('',#808,#837,#850,.T.);
#850=LINE('',#809,#244);
#851=ORIENTED_EDGE('',*,*,#841,.F.);
#852=PLANE('',#853);
#853=AXIS2_PLACEMENT_3D('',#809,#238,#13);
#854=ADVANCED_FACE('',(#855),#871,.F.);
#855=FACE_BOUND('',#856,.F.);
#856=EDGE_LOOP('',(#857,#862,#867,#870));
#857=ORIENTED_EDGE('',*,*,#858,.F.);
#858=EDGE_CURVE('',#859,#258,#861,.T.);
#859=VERTEX_POINT('',#860);
#860=CARTESIAN_POINT('',(0.5,-0.5,0.));
#861=LINE('',#860,#27);
#862=ORIENTED_EDGE('',*,*,#863,.T.);
#863=EDGE_CURVE('',#859,#864,#866,.T.);
#864=VERTEX_POINT('',#865);
#865=CARTESIAN_POINT('',(0.75,-0.5,0.));
#866=LINE('',#860,#237);
#867=ORIENTED_EDGE('',*,*,#868,.T.);
#868=EDGE_CURVE('',#864,#260,#869,.T.);
#869=LINE('',#865,#27);
#870=ORIENTED_EDGE('',*,*,#257,.F.);
#871=PLANE('',#872);
#872=AXIS2_PLACEMENT_3D('',#860,#245,#13);
#873=ADVANCED_FACE('',(#874),#886,.F.);
#874=FACE_BOUND('',#875,.F.);
#875=EDGE_LOOP('',(#876,#881,#882,#883));
#876=ORIENTED_EDGE('',*,*,#877,.F.);
#877=EDGE_CURVE('',#859,#878,#880,.T.);
#878=VERTEX_POINT('',#879);
#879=CARTESIAN_POINT('',(0.5,-0.7,0.));
#880=LINE('',#860,#244);
#881=ORIENTED_EDGE('',*,*,#858,.T.);
#882=ORIENTED_EDGE('',*,*,#274,.T.);
#883=ORIENTED_EDGE('',*,*,#884,.F.);
#884=EDGE_CURVE('',#878,#270,#885,.T.);
#885=LINE('',#879,#27);
#886=PLANE('',#887);
#887=AXIS2_PLACEMENT_3D('',#860,#238,#13);
#888=ADVANCED_FACE('',(#889),#899,.T.);
#889=FACE_BOUND('',#890,.T.);
#890=EDGE_LOOP('',(#883,#891,#896,#268));
#891=ORIENTED_EDGE('',*,*,#892,.T.);
#892=EDGE_CURVE('',#878,#893,#895,.T.);
#893=VERTEX_POINT('',#894);
#894=CARTESIAN_POINT('',(0.75,-0.7,0.));
#895=LINE('',#879,#237);
#896=ORIENTED_EDGE('',*,*,#897,.T.);
#897=EDGE_CURVE('',#893,#265,#898,.T.);
#898=LINE('',#894,#27);
#899=PLANE('',#900);
#900=AXIS2_PLACEMENT_3D('',#879,#245,#13);
#901=ADVANCED_FACE('',(#902),#908,.T.);
#902=FACE_BOUND('',#903,.T.);
#903=EDGE_LOOP('',(#904,#867,#263,#907));
#904=ORIENTED_EDGE('',*,*,#905,.F.);
#905=EDGE_CURVE('',#864,#893,#906,.T.);
#906=LINE('',#865,#244);
#907=ORIENTED_EDGE('',*,*,#897,.F.);
#908=PLANE('',#909);
#909=AXIS2_PLACEMENT_3D('',#865,#238,#13);
#910=ADVANCED_FACE('',(#911),#927,.F.);
#911=FACE_BOUND('',#912,.F.);
#912=EDGE_LOOP('',(#913,#918,#923,#926));
#913=ORIENTED_EDGE('',*,*,#914,.F.);
#914=EDGE_CURVE('',#915,#280,#917,.T.);
#915=VERTEX_POINT('',#916);
#916=CARTESIAN_POINT('',(0.5,-1.E-01,0.));
#917=LINE('',#916,#27);
#918=ORIENTED_EDGE('',*,*,#919,.T.);
#919=EDGE_CURVE('',#915,#920,#922,.T.);
#920=VERTEX_POINT('',#921);
#921=CARTESIAN_POINT('',(0.75,-1.E-01,0.));
#922=LINE('',#916,#237);
#923=ORIENTED_EDGE('',*,*,#924,.T.);
#924=EDGE_CURVE('',#920,#282,#925,.T.);
#925=LINE('',#921,#27);
#926=ORIENTED_EDGE('',*,*,#279,.F.);
#927=PLANE('',#928);
#928=AXIS2_PLACEMENT_3D('',#916,#245,#13);
#929=ADVANCED_FACE('',(#930),#942,.F.);
#930=FACE_BOUND('',#931,.F.);
#931=EDGE_LOOP('',(#932,#937,#938,#939));
#932=ORIENTED_EDGE('',*,*,#933,.F.);
#933=EDGE_CURVE('',#915,#934,#936,.T.);
#934=VERTEX_POINT('',#935);
#935=CARTESIAN_POINT('',(0.5,-0.3,0.));
#936=LINE('',#916,#244);
#937=ORIENTED_EDGE('',*,*,#914,.T.);
#938=ORIENTED_EDGE('',*,*,#296,.T.);
#939=ORIENTED_EDGE('',*,*,#940,.F.);
#940=EDGE_CURVE('',#934,#292,#941,.T.);
#941=LINE('',#935,#27);
#942=PLANE('',#943);
#943=AXIS2_PLACEMENT_3D('',#916,#238,#13);
#944=ADVANCED_FACE('',(#945),#955,.T.);
#945=FACE_BOUND('',#946,.T.);
#946=EDGE_LOOP('',(#939,#947,#952,#290));
#947=ORIENTED_EDGE('',*,*,#948,.T.);
#948=EDGE_CURVE('',#934,#949,#951,.T.);
#949=VERTEX_POINT('',#950);
#950=CARTESIAN_POINT('',(0.75,-0.3,0.));
#951=LINE('',#935,#237);
#952=ORIENTED_EDGE('',*,*,#953,.T.);
#953=EDGE_CURVE('',#949,#287,#954,.T.);
#954=LINE('',#950,#27);
#955=PLANE('',#956);
#956=AXIS2_PLACEMENT_3D('',#935,#245,#13);
#957=ADVANCED_FACE('',(#958),#964,.T.);
#958=FACE_BOUND('',#959,.T.);
#959=EDGE_LOOP('',(#960,#923,#285,#963));
#960=ORIENTED_EDGE('',*,*,#961,.F.);
#961=EDGE_CURVE('',#920,#949,#962,.T.);
#962=LINE('',#921,#244);
#963=ORIENTED_EDGE('',*,*,#953,.F.);
#964=PLANE('',#965);
#965=AXIS2_PLACEMENT_3D('',#921,#238,#13);
#966=ADVANCED_FACE('',(#967),#983,.F.);
#967=FACE_BOUND('',#968,.F.);
#968=EDGE_LOOP('',(#969,#974,#979,#982));
#969=ORIENTED_EDGE('',*,*,#970,.F.);
#970=EDGE_CURVE('',#971,#302,#973,.T.);
#971=VERTEX_POINT('',#972);
#972=CARTESIAN_POINT('',(-0.5,1.E-01,0.));
#973=LINE('',#972,#27);
#974=ORIENTED_EDGE('',*,*,#975,.T.);
#975=EDGE_CURVE('',#971,#976,#978,.T.);
#976=VERTEX_POINT('',#977);
#977=CARTESIAN_POINT('',(-0.75,1.E-01,0.));
#978=LINE('',#972,#119);
#979=ORIENTED_EDGE('',*,*,#980,.T.);
#980=EDGE_CURVE('',#976,#304,#981,.T.);
#981=LINE('',#977,#27);
#982=ORIENTED_EDGE('',*,*,#301,.F.);
#983=PLANE('',#984);
#984=AXIS2_PLACEMENT_3D('',#972,#127,#13);
#985=ADVANCED_FACE('',(#986),#998,.F.);
#986=FACE_BOUND('',#987,.F.);
#987=EDGE_LOOP('',(#988,#993,#994,#995));
#988=ORIENTED_EDGE('',*,*,#989,.F.);
#989=EDGE_CURVE('',#971,#990,#992,.T.);
#990=VERTEX_POINT('',#991);
#991=CARTESIAN_POINT('',(-0.5,0.3,0.));
#992=LINE('',#972,#126);
#993=ORIENTED_EDGE('',*,*,#970,.T.);
#994=ORIENTED_EDGE('',*,*,#318,.T.);
#995=ORIENTED_EDGE('',*,*,#996,.F.);
#996=EDGE_CURVE('',#990,#314,#997,.T.);
#997=LINE('',#991,#27);
#998=PLANE('',#999);
#999=AXIS2_PLACEMENT_3D('',#972,#120,#13);
#1000=ADVANCED_FACE('',(#1001),#1011,.T.);
#1001=FACE_BOUND('',#1002,.T.);
#1002=EDGE_LOOP('',(#995,#1003,#1008,#312));
#1003=ORIENTED_EDGE('',*,*,#1004,.T.);
#1004=EDGE_CURVE('',#990,#1005,#1007,.T.);
#1005=VERTEX_POINT('',#1006);
#1006=CARTESIAN_POINT('',(-0.75,0.3,0.));
#1007=LINE('',#991,#119);
#1008=ORIENTED_EDGE('',*,*,#1009,.T.);
#1009=EDGE_CURVE('',#1005,#309,#1010,.T.);
#1010=LINE('',#1006,#27);
#1011=PLANE('',#1012);
#1012=AXIS2_PLACEMENT_3D('',#991,#127,#13);
#1013=ADVANCED_FACE('',(#1014),#1020,.T.);
#1014=FACE_BOUND('',#1015,.T.);
#1015=EDGE_LOOP('',(#1016,#979,#307,#1019));
#1016=ORIENTED_EDGE('',*,*,#1017,.F.);
#1017=EDGE_CURVE('',#976,#1005,#1018,.T.);
#1018=LINE('',#977,#126);
#1019=ORIENTED_EDGE('',*,*,#1009,.F.);
#1020=PLANE('',#1021);
#1021=AXIS2_PLACEMENT_3D('',#977,#120,#13);
#1022=ADVANCED_FACE('',(#1023),#1039,.F.);
#1023=FACE_BOUND('',#1024,.F.);
#1024=EDGE_LOOP('',(#1025,#1030,#1035,#1038));
#1025=ORIENTED_EDGE('',*,*,#1026,.F.);
#1026=EDGE_CURVE('',#1027,#324,#1029,.T.);
#1027=VERTEX_POINT('',#1028);
#1028=CARTESIAN_POINT('',(-0.5,0.5,0.));
#1029=LINE('',#1028,#27);
#1030=ORIENTED_EDGE('',*,*,#1031,.T.);
#1031=EDGE_CURVE('',#1027,#1032,#1034,.T.);
#1032=VERTEX_POINT('',#1033);
#1033=CARTESIAN_POINT('',(-0.75,0.5,0.));
#1034=LINE('',#1028,#119);
#1035=ORIENTED_EDGE('',*,*,#1036,.T.);
#1036=EDGE_CURVE('',#1032,#326,#1037,.T.);
#1037=LINE('',#1033,#27);
#1038=ORIENTED_EDGE('',*,*,#323,.F.);
#1039=PLANE('',#1040);
#1040=AXIS2_PLACEMENT_3D('',#1028,#127,#13);
#1041=ADVANCED_FACE('',(#1042),#1054,.F.);
#1042=FACE_BOUND('',#1043,.F.);
#1043=EDGE_LOOP('',(#1044,#1049,#1050,#1051));
#1044=ORIENTED_EDGE('',*,*,#1045,.F.);
#1045=EDGE_CURVE('',#1027,#1046,#1048,.T.);
#1046=VERTEX_POINT('',#1047);
#1047=CARTESIAN_POINT('',(-0.5,0.7,0.));
#1048=LINE('',#1028,#126);
#1049=ORIENTED_EDGE('',*,*,#1026,.T.);
#1050=ORIENTED_EDGE('',*,*,#340,.T.);
#1051=ORIENTED_EDGE('',*,*,#1052,.F.);
#1052=EDGE_CURVE('',#1046,#336,#1053,.T.);
#1053=LINE('',#1047,#27);
#1054=PLANE('',#1055);
#1055=AXIS2_PLACEMENT_3D('',#1028,#120,#13);
#1056=ADVANCED_FACE('',(#1057),#1067,.T.);
#1057=FACE_BOUND('',#1058,.T.);
#1058=EDGE_LOOP('',(#1051,#1059,#1064,#334));
#1059=ORIENTED_EDGE('',*,*,#1060,.T.);
#1060=EDGE_CURVE('',#1046,#1061,#1063,.T.);
#1061=VERTEX_POINT('',#1062);
#1062=CARTESIAN_POINT('',(-0.75,0.7,0.));
#1063=LINE('',#1047,#119);
#1064=ORIENTED_EDGE('',*,*,#1065,.T.);
#1065=EDGE_CURVE('',#1061,#331,#1066,.T.);
#1066=LINE('',#1062,#27);
#1067=PLANE('',#1068);
#1068=AXIS2_PLACEMENT_3D('',#1047,#127,#13);
#1069=ADVANCED_FACE('',(#1070),#1076,.T.);
#1070=FACE_BOUND('',#1071,.T.);
#1071=EDGE_LOOP('',(#1072,#1035,#329,#1075));
#1072=ORIENTED_EDGE('',*,*,#1073,.F.);
#1073=EDGE_CURVE('',#1032,#1061,#1074,.T.);
#1074=LINE('',#1033,#126);
#1075=ORIENTED_EDGE('',*,*,#1065,.F.);
#1076=PLANE('',#1077);
#1077=AXIS2_PLACEMENT_3D('',#1033,#120,#13);
#1078=ADVANCED_FACE('',(#1079),#1095,.F.);
#1079=FACE_BOUND('',#1080,.F.);
#1080=EDGE_LOOP('',(#1081,#1086,#1091,#1094));
#1081=ORIENTED_EDGE('',*,*,#1082,.F.);
#1082=EDGE_CURVE('',#1083,#346,#1085,.T.);
#1083=VERTEX_POINT('',#1084);
#1084=CARTESIAN_POINT('',(-0.5,0.9,0.));
#1085=LINE('',#1084,#27);
#1086=ORIENTED_EDGE('',*,*,#1087,.T.);
#1087=EDGE_CURVE('',#1083,#1088,#1090,.T.);
#1088=VERTEX_POINT('',#1089);
#1089=CARTESIAN_POINT('',(-0.75,0.9,0.));
#1090=LINE('',#1084,#119);
#1091=ORIENTED_EDGE('',*,*,#1092,.T.);
#1092=EDGE_CURVE('',#1088,#348,#1093,.T.);
#1093=LINE('',#1089,#27);
#1094=ORIENTED_EDGE('',*,*,#345,.F.);
#1095=PLANE('',#1096);
#1096=AXIS2_PLACEMENT_3D('',#1084,#127,#13);
#1097=ADVANCED_FACE('',(#1098),#1110,.F.);
#1098=FACE_BOUND('',#1099,.F.);
#1099=EDGE_LOOP('',(#1100,#1105,#1106,#1107));
#1100=ORIENTED_EDGE('',*,*,#1101,.F.);
#1101=EDGE_CURVE('',#1083,#1102,#1104,.T.);
#1102=VERTEX_POINT('',#1103);
#1103=CARTESIAN_POINT('',(-0.5,1.1,0.));
#1104=LINE('',#1084,#126);
#1105=ORIENTED_EDGE('',*,*,#1082,.T.);
#1106=ORIENTED_EDGE('',*,*,#362,.T.);
#1107=ORIENTED_EDGE('',*,*,#1108,.F.);
#1108=EDGE_CURVE('',#1102,#358,#1109,.T.);
#1109=LINE('',#1103,#27);
#1110=PLANE('',#1111);
#1111=AXIS2_PLACEMENT_3D('',#1084,#120,#13);
#1112=ADVANCED_FACE('',(#1113),#1123,.T.);
#1113=FACE_BOUND('',#1114,.T.);
#1114=EDGE_LOOP('',(#1107,#1115,#1120,#356));
#1115=ORIENTED_EDGE('',*,*,#1116,.T.);
#1116=EDGE_CURVE('',#1102,#1117,#1119,.T.);
#1117=VERTEX_POINT('',#1118);
#1118=CARTESIAN_POINT('',(-0.75,1.1,0.));
#1119=LINE('',#1103,#119);
#1120=ORIENTED_EDGE('',*,*,#1121,.T.);
#1121=EDGE_CURVE('',#1117,#353,#1122,.T.);
#1122=LINE('',#1118,#27);
#1123=PLANE('',#1124);
#1124=AXIS2_PLACEMENT_3D('',#1103,#127,#13);
#1125=ADVANCED_FACE('',(#1126),#1132,.T.);
#1126=FACE_BOUND('',#1127,.T.);
#1127=EDGE_LOOP('',(#1128,#1091,#351,#1131));
#1128=ORIENTED_EDGE('',*,*,#1129,.F.);
#1129=EDGE_CURVE('',#1088,#1117,#1130,.T.);
#1130=LINE('',#1089,#126);
#1131=ORIENTED_EDGE('',*,*,#1121,.F.);
#1132=PLANE('',#1133);
#1133=AXIS2_PLACEMENT_3D('',#1089,#120,#13);
#1134=ADVANCED_FACE('',(#1135),#1151,.F.);
#1135=FACE_BOUND('',#1136,.F.);
#1136=EDGE_LOOP('',(#1137,#1142,#1147,#1150));
#1137=ORIENTED_EDGE('',*,*,#1138,.F.);
#1138=EDGE_CURVE('',#1139,#368,#1141,.T.);
#1139=VERTEX_POINT('',#1140);
#1140=CARTESIAN_POINT('',(-0.3,0.9,0.));
#1141=LINE('',#1140,#27);
#1142=ORIENTED_EDGE('',*,*,#1143,.T.);
#1143=EDGE_CURVE('',#1139,#1144,#1146,.T.);
#1144=VERTEX_POINT('',#1145);
#1145=CARTESIAN_POINT('',(-0.3,1.15,0.));
#1146=LINE('',#1140,#373);
#1147=ORIENTED_EDGE('',*,*,#1148,.T.);
#1148=EDGE_CURVE('',#1144,#370,#1149,.T.);
#1149=LINE('',#1145,#27);
#1150=ORIENTED_EDGE('',*,*,#367,.F.);
#1151=PLANE('',#1152);
#1152=AXIS2_PLACEMENT_3D('',#1140,#14,#13);
#1153=ADVANCED_FACE('',(#1154),#1166,.F.);
#1154=FACE_BOUND('',#1155,.F.);
#1155=EDGE_LOOP('',(#1156,#1161,#1162,#1163));
#1156=ORIENTED_EDGE('',*,*,#1157,.F.);
#1157=EDGE_CURVE('',#1139,#1158,#1160,.T.);
#1158=VERTEX_POINT('',#1159);
#1159=CARTESIAN_POINT('',(-0.1,0.9,0.));
#1160=LINE('',#1140,#380);
#1161=ORIENTED_EDGE('',*,*,#1138,.T.);
#1162=ORIENTED_EDGE('',*,*,#387,.T.);
#1163=ORIENTED_EDGE('',*,*,#1164,.F.);
#1164=EDGE_CURVE('',#1158,#383,#1165,.T.);
#1165=LINE('',#1159,#27);
#1166=PLANE('',#1167);
#1167=AXIS2_PLACEMENT_3D('',#1140,#374,#13);
#1168=ADVANCED_FACE('',(#1169),#1179,.T.);
#1169=FACE_BOUND('',#1170,.T.);
#1170=EDGE_LOOP('',(#1163,#1171,#1176,#381));
#1171=ORIENTED_EDGE('',*,*,#1172,.T.);
#1172=EDGE_CURVE('',#1158,#1173,#1175,.T.);
#1173=VERTEX_POINT('',#1174);
#1174=CARTESIAN_POINT('',(-0.1,1.15,0.));
#1175=LINE('',#1159,#373);
#1176=ORIENTED_EDGE('',*,*,#1177,.T.);
#1177=EDGE_CURVE('',#1173,#377,#1178,.T.);
#1178=LINE('',#1174,#27);
#1179=PLANE('',#1180);
#1180=AXIS2_PLACEMENT_3D('',#1159,#14,#13);
#1181=ADVANCED_FACE('',(#1182),#1188,.T.);
#1182=FACE_BOUND('',#1183,.T.);
#1183=EDGE_LOOP('',(#1184,#1147,#375,#1187));
#1184=ORIENTED_EDGE('',*,*,#1185,.F.);
#1185=EDGE_CURVE('',#1144,#1173,#1186,.T.);
#1186=LINE('',#1145,#380);
#1187=ORIENTED_EDGE('',*,*,#1177,.F.);
#1188=PLANE('',#1189);
#1189=AXIS2_PLACEMENT_3D('',#1145,#374,#13);
#1190=ADVANCED_FACE('',(#1191),#1207,.F.);
#1191=FACE_BOUND('',#1192,.F.);
#1192=EDGE_LOOP('',(#1193,#1198,#1199,#1204));
#1193=ORIENTED_EDGE('',*,*,#1194,.T.);
#1194=EDGE_CURVE('',#1195,#393,#1197,.T.);
#1195=VERTEX_POINT('',#1196);
#1196=CARTESIAN_POINT('',(-0.3,-0.7,0.));
#1197=LINE('',#1196,#27);
#1198=ORIENTED_EDGE('',*,*,#392,.T.);
#1199=ORIENTED_EDGE('',*,*,#1200,.F.);
#1200=EDGE_CURVE('',#1201,#395,#1203,.T.);
#1201=VERTEX_POINT('',#1202);
#1202=CARTESIAN_POINT('',(0.3,-0.7,0.));
#1203=LINE('',#1202,#27);
#1204=ORIENTED_EDGE('',*,*,#1205,.F.);
#1205=EDGE_CURVE('',#1195,#1201,#1206,.T.);
#1206=LINE('',#1196,#54);
#1207=PLANE('',#1208);
#1208=AXIS2_PLACEMENT_3D('',#1196,#34,#45);
#1209=ADVANCED_FACE('',(#1210),#1222,.F.);
#1210=FACE_BOUND('',#1211,.F.);
#1211=EDGE_LOOP('',(#1212,#1213,#1214,#1219));
#1212=ORIENTED_EDGE('',*,*,#1200,.T.);
#1213=ORIENTED_EDGE('',*,*,#413,.T.);
#1214=ORIENTED_EDGE('',*,*,#1215,.F.);
#1215=EDGE_CURVE('',#1216,#407,#1218,.T.);
#1216=VERTEX_POINT('',#1217);
#1217=CARTESIAN_POINT('',(0.3,0.7,0.));
#1218=LINE('',#1217,#27);
#1219=ORIENTED_EDGE('',*,*,#1220,.F.);
#1220=EDGE_CURVE('',#1201,#1216,#1221,.T.);
#1221=LINE('',#1202,#33);
#1222=PLANE('',#1223);
#1223=AXIS2_PLACEMENT_3D('',#1202,#411,#34);
#1224=ADVANCED_FACE('',(#1225),#1237,.F.);
#1225=FACE_BOUND('',#1226,.F.);
#1226=EDGE_LOOP('',(#1227,#1228,#1229,#1234));
#1227=ORIENTED_EDGE('',*,*,#1215,.T.);
#1228=ORIENTED_EDGE('',*,*,#406,.T.);
#1229=ORIENTED_EDGE('',*,*,#1230,.F.);
#1230=EDGE_CURVE('',#1231,#400,#1233,.T.);
#1231=VERTEX_POINT('',#1232);
#1232=CARTESIAN_POINT('',(-0.3,0.7,0.));
#1233=LINE('',#1232,#27);
#1234=ORIENTED_EDGE('',*,*,#1235,.F.);
#1235=EDGE_CURVE('',#1216,#1231,#1236,.T.);
#1236=LINE('',#1217,#410);
#1237=PLANE('',#1238);
#1238=AXIS2_PLACEMENT_3D('',#1217,#404,#411);
#1239=ADVANCED_FACE('',(#1240),#1248,.F.);
#1240=FACE_BOUND('',#1241,.F.);
#1241=EDGE_LOOP('',(#1242,#1243,#1244,#1245));
#1242=ORIENTED_EDGE('',*,*,#1230,.T.);
#1243=ORIENTED_EDGE('',*,*,#399,.T.);
#1244=ORIENTED_EDGE('',*,*,#1194,.F.);
#1245=ORIENTED_EDGE('',*,*,#1246,.F.);
#1246=EDGE_CURVE('',#1231,#1195,#1247,.T.);
#1247=LINE('',#1232,#403);
#1248=PLANE('',#1249);
#1249=AXIS2_PLACEMENT_3D('',#1232,#45,#404);
#1250=ADVANCED_FACE('',(#1251),#1267,.F.);
#1251=FACE_BOUND('',#1252,.F.);
#1252=EDGE_LOOP('',(#1253,#1258,#1263,#1266));
#1253=ORIENTED_EDGE('',*,*,#1254,.F.);
#1254=EDGE_CURVE('',#1255,#419,#1257,.T.);
#1255=VERTEX_POINT('',#1256);
#1256=CARTESIAN_POINT('',(0.5,0.3,0.));
#1257=LINE('',#1256,#27);
#1258=ORIENTED_EDGE('',*,*,#1259,.T.);
#1259=EDGE_CURVE('',#1255,#1260,#1262,.T.);
#1260=VERTEX_POINT('',#1261);
#1261=CARTESIAN_POINT('',(0.75,0.3,0.));
#1262=LINE('',#1256,#237);
#1263=ORIENTED_EDGE('',*,*,#1264,.T.);
#1264=EDGE_CURVE('',#1260,#421,#1265,.T.);
#1265=LINE('',#1261,#27);
#1266=ORIENTED_EDGE('',*,*,#418,.F.);
#1267=PLANE('',#1268);
#1268=AXIS2_PLACEMENT_3D('',#1256,#245,#13);
#1269=ADVANCED_FACE('',(#1270),#1282,.F.);
#1270=FACE_BOUND('',#1271,.F.);
#1271=EDGE_LOOP('',(#1272,#1277,#1278,#1279));
#1272=ORIENTED_EDGE('',*,*,#1273,.F.);
#1273=EDGE_CURVE('',#1255,#1274,#1276,.T.);
#1274=VERTEX_POINT('',#1275);
#1275=CARTESIAN_POINT('',(0.5,0.1,0.));
#1276=LINE('',#1256,#244);
#1277=ORIENTED_EDGE('',*,*,#1254,.T.);
#1278=ORIENTED_EDGE('',*,*,#435,.T.);
#1279=ORIENTED_EDGE('',*,*,#1280,.F.);
#1280=EDGE_CURVE('',#1274,#431,#1281,.T.);
#1281=LINE('',#1275,#27);
#1282=PLANE('',#1283);
#1283=AXIS2_PLACEMENT_3D('',#1256,#238,#13);
#1284=ADVANCED_FACE('',(#1285),#1295,.T.);
#1285=FACE_BOUND('',#1286,.T.);
#1286=EDGE_LOOP('',(#1279,#1287,#1292,#429));
#1287=ORIENTED_EDGE('',*,*,#1288,.T.);
#1288=EDGE_CURVE('',#1274,#1289,#1291,.T.);
#1289=VERTEX_POINT('',#1290);
#1290=CARTESIAN_POINT('',(0.75,0.1,0.));
#1291=LINE('',#1275,#237);
#1292=ORIENTED_EDGE('',*,*,#1293,.T.);
#1293=EDGE_CURVE('',#1289,#426,#1294,.T.);
#1294=LINE('',#1290,#27);
#1295=PLANE('',#1296);
#1296=AXIS2_PLACEMENT_3D('',#1275,#245,#13);
#1297=ADVANCED_FACE('',(#1298),#1304,.T.);
#1298=FACE_BOUND('',#1299,.T.);
#1299=EDGE_LOOP('',(#1300,#1263,#424,#1303));
#1300=ORIENTED_EDGE('',*,*,#1301,.F.);
#1301=EDGE_CURVE('',#1260,#1289,#1302,.T.);
#1302=LINE('',#1261,#244);
#1303=ORIENTED_EDGE('',*,*,#1293,.F.);
#1304=PLANE('',#1305);
#1305=AXIS2_PLACEMENT_3D('',#1261,#238,#13);
#1306=ADVANCED_FACE('',(#1307),#1323,.F.);
#1307=FACE_BOUND('',#1308,.F.);
#1308=EDGE_LOOP('',(#1309,#1314,#1319,#1322));
#1309=ORIENTED_EDGE('',*,*,#1310,.F.);
#1310=EDGE_CURVE('',#1311,#441,#1313,.T.);
#1311=VERTEX_POINT('',#1312);
#1312=CARTESIAN_POINT('',(0.1,0.9,0.));
#1313=LINE('',#1312,#27);
#1314=ORIENTED_EDGE('',*,*,#1315,.T.);
#1315=EDGE_CURVE('',#1311,#1316,#1318,.T.);
#1316=VERTEX_POINT('',#1317);
#1317=CARTESIAN_POINT('',(0.1,1.15,0.));
#1318=LINE('',#1312,#373);
#1319=ORIENTED_EDGE('',*,*,#1320,.T.);
#1320=EDGE_CURVE('',#1316,#443,#1321,.T.);
#1321=LINE('',#1317,#27);
#1322=ORIENTED_EDGE('',*,*,#440,.F.);
#1323=PLANE('',#1324);
#1324=AXIS2_PLACEMENT_3D('',#1312,#14,#13);
#1325=ADVANCED_FACE('',(#1326),#1338,.F.);
#1326=FACE_BOUND('',#1327,.F.);
#1327=EDGE_LOOP('',(#1328,#1333,#1334,#1335));
#1328=ORIENTED_EDGE('',*,*,#1329,.F.);
#1329=EDGE_CURVE('',#1311,#1330,#1332,.T.);
#1330=VERTEX_POINT('',#1331);
#1331=CARTESIAN_POINT('',(0.3,0.9,0.));
#1332=LINE('',#1312,#380);
#1333=ORIENTED_EDGE('',*,*,#1310,.T.);
#1334=ORIENTED_EDGE('',*,*,#457,.T.);
#1335=ORIENTED_EDGE('',*,*,#1336,.F.);
#1336=EDGE_CURVE('',#1330,#453,#1337,.T.);
#1337=LINE('',#1331,#27);
#1338=PLANE('',#1339);
#1339=AXIS2_PLACEMENT_3D('',#1312,#374,#13);
#1340=ADVANCED_FACE('',(#1341),#1351,.T.);
#1341=FACE_BOUND('',#1342,.T.);
#1342=EDGE_LOOP('',(#1335,#1343,#1348,#451));
#1343=ORIENTED_EDGE('',*,*,#1344,.T.);
#1344=EDGE_CURVE('',#1330,#1345,#1347,.T.);
#1345=VERTEX_POINT('',#1346);
#1346=CARTESIAN_POINT('',(0.3,1.15,0.));
#1347=LINE('',#1331,#373);
#1348=ORIENTED_EDGE('',*,*,#1349,.T.);
#1349=EDGE_CURVE('',#1345,#448,#1350,.T.);
#1350=LINE('',#1346,#27);
#1351=PLANE('',#1352);
#1352=AXIS2_PLACEMENT_3D('',#1331,#14,#13);
#1353=ADVANCED_FACE('',(#1354),#1360,.T.);
#1354=FACE_BOUND('',#1355,.T.);
#1355=EDGE_LOOP('',(#1356,#1319,#446,#1359));
#1356=ORIENTED_EDGE('',*,*,#1357,.F.);
#1357=EDGE_CURVE('',#1316,#1345,#1358,.T.);
#1358=LINE('',#1317,#380);
#1359=ORIENTED_EDGE('',*,*,#1349,.F.);
#1360=PLANE('',#1361);
#1361=AXIS2_PLACEMENT_3D('',#1317,#374,#13);
#1362=ADVANCED_FACE('',(#1363),#1379,.F.);
#1363=FACE_BOUND('',#1364,.F.);
#1364=EDGE_LOOP('',(#1365,#1370,#1375,#1378));
#1365=ORIENTED_EDGE('',*,*,#1366,.F.);
#1366=EDGE_CURVE('',#1367,#463,#1369,.T.);
#1367=VERTEX_POINT('',#1368);
#1368=CARTESIAN_POINT('',(0.5,0.7,0.));
#1369=LINE('',#1368,#27);
#1370=ORIENTED_EDGE('',*,*,#1371,.T.);
#1371=EDGE_CURVE('',#1367,#1372,#1374,.T.);
#1372=VERTEX_POINT('',#1373);
#1373=CARTESIAN_POINT('',(0.75,0.7,0.));
#1374=LINE('',#1368,#237);
#1375=ORIENTED_EDGE('',*,*,#1376,.T.);
#1376=EDGE_CURVE('',#1372,#465,#1377,.T.);
#1377=LINE('',#1373,#27);
#1378=ORIENTED_EDGE('',*,*,#462,.F.);
#1379=PLANE('',#1380);
#1380=AXIS2_PLACEMENT_3D('',#1368,#245,#13);
#1381=ADVANCED_FACE('',(#1382),#1394,.F.);
#1382=FACE_BOUND('',#1383,.F.);
#1383=EDGE_LOOP('',(#1384,#1389,#1390,#1391));
#1384=ORIENTED_EDGE('',*,*,#1385,.F.);
#1385=EDGE_CURVE('',#1367,#1386,#1388,.T.);
#1386=VERTEX_POINT('',#1387);
#1387=CARTESIAN_POINT('',(0.5,0.5,0.));
#1388=LINE('',#1368,#244);
#1389=ORIENTED_EDGE('',*,*,#1366,.T.);
#1390=ORIENTED_EDGE('',*,*,#479,.T.);
#1391=ORIENTED_EDGE('',*,*,#1392,.F.);
#1392=EDGE_CURVE('',#1386,#475,#1393,.T.);
#1393=LINE('',#1387,#27);
#1394=PLANE('',#1395);
#1395=AXIS2_PLACEMENT_3D('',#1368,#238,#13);
#1396=ADVANCED_FACE('',(#1397),#1407,.T.);
#1397=FACE_BOUND('',#1398,.T.);
#1398=EDGE_LOOP('',(#1391,#1399,#1404,#473));
#1399=ORIENTED_EDGE('',*,*,#1400,.T.);
#1400=EDGE_CURVE('',#1386,#1401,#1403,.T.);
#1401=VERTEX_POINT('',#1402);
#1402=CARTESIAN_POINT('',(0.75,0.5,0.));
#1403=LINE('',#1387,#237);
#1404=ORIENTED_EDGE('',*,*,#1405,.T.);
#1405=EDGE_CURVE('',#1401,#470,#1406,.T.);
#1406=LINE('',#1402,#27);
#1407=PLANE('',#1408);
#1408=AXIS2_PLACEMENT_3D('',#1387,#245,#13);
#1409=ADVANCED_FACE('',(#1410),#1416,.T.);
#1410=FACE_BOUND('',#1411,.T.);
#1411=EDGE_LOOP('',(#1412,#1375,#468,#1415));
#1412=ORIENTED_EDGE('',*,*,#1413,.F.);
#1413=EDGE_CURVE('',#1372,#1401,#1414,.T.);
#1414=LINE('',#1373,#244);
#1415=ORIENTED_EDGE('',*,*,#1405,.F.);
#1416=PLANE('',#1417);
#1417=AXIS2_PLACEMENT_3D('',#1373,#238,#13);
#1418=ADVANCED_FACE('',(#1419),#1435,.F.);
#1419=FACE_BOUND('',#1420,.F.);
#1420=EDGE_LOOP('',(#1421,#1426,#1431,#1434));
#1421=ORIENTED_EDGE('',*,*,#1422,.F.);
#1422=EDGE_CURVE('',#1423,#485,#1425,.T.);
#1423=VERTEX_POINT('',#1424);
#1424=CARTESIAN_POINT('',(0.5,1.1,0.));
#1425=LINE('',#1424,#27);
#1426=ORIENTED_EDGE('',*,*,#1427,.T.);
#1427=EDGE_CURVE('',#1423,#1428,#1430,.T.);
#1428=VERTEX_POINT('',#1429);
#1429=CARTESIAN_POINT('',(0.75,1.1,0.));
#1430=LINE('',#1424,#237);
#1431=ORIENTED_EDGE('',*,*,#1432,.T.);
#1432=EDGE_CURVE('',#1428,#487,#1433,.T.);
#1433=LINE('',#1429,#27);
#1434=ORIENTED_EDGE('',*,*,#484,.F.);
#1435=PLANE('',#1436);
#1436=AXIS2_PLACEMENT_3D('',#1424,#245,#13);
#1437=ADVANCED_FACE('',(#1438),#1450,.F.);
#1438=FACE_BOUND('',#1439,.F.);
#1439=EDGE_LOOP('',(#1440,#1445,#1446,#1447));
#1440=ORIENTED_EDGE('',*,*,#1441,.F.);
#1441=EDGE_CURVE('',#1423,#1442,#1444,.T.);
#1442=VERTEX_POINT('',#1443);
#1443=CARTESIAN_POINT('',(0.5,0.9,0.));
#1444=LINE('',#1424,#244);
#1445=ORIENTED_EDGE('',*,*,#1422,.T.);
#1446=ORIENTED_EDGE('',*,*,#501,.T.);
#1447=ORIENTED_EDGE('',*,*,#1448,.F.);
#1448=EDGE_CURVE('',#1442,#497,#1449,.T.);
#1449=LINE('',#1443,#27);
#1450=PLANE('',#1451);
#1451=AXIS2_PLACEMENT_3D('',#1424,#238,#13);
#1452=ADVANCED_FACE('',(#1453),#1463,.T.);
#1453=FACE_BOUND('',#1454,.T.);
#1454=EDGE_LOOP('',(#1447,#1455,#1460,#495));
#1455=ORIENTED_EDGE('',*,*,#1456,.T.);
#1456=EDGE_CURVE('',#1442,#1457,#1459,.T.);
#1457=VERTEX_POINT('',#1458);
#1458=CARTESIAN_POINT('',(0.75,0.9,0.));
#1459=LINE('',#1443,#237);
#1460=ORIENTED_EDGE('',*,*,#1461,.T.);
#1461=EDGE_CURVE('',#1457,#492,#1462,.T.);
#1462=LINE('',#1458,#27);
#1463=PLANE('',#1464);
#1464=AXIS2_PLACEMENT_3D('',#1443,#245,#13);
#1465=ADVANCED_FACE('',(#1466),#1472,.T.);
#1466=FACE_BOUND('',#1467,.T.);
#1467=EDGE_LOOP('',(#1468,#1431,#490,#1471));
#1468=ORIENTED_EDGE('',*,*,#1469,.F.);
#1469=EDGE_CURVE('',#1428,#1457,#1470,.T.);
#1470=LINE('',#1429,#244);
#1471=ORIENTED_EDGE('',*,*,#1461,.F.);
#1472=PLANE('',#1473);
#1473=AXIS2_PLACEMENT_3D('',#1429,#238,#13);
#1474=ADVANCED_FACE('',(#1475),#1479,.F.);
#1475=FACE_BOUND('',#1476,.F.);
#1476=EDGE_LOOP('',(#1477,#1478,#555,#568));
#1477=ORIENTED_EDGE('',*,*,#527,.F.);
#1478=ORIENTED_EDGE('',*,*,#541,.T.);
#1479=PLANE('',#1480);
#1480=AXIS2_PLACEMENT_3D('',#524,#13,#127);
#1481=ADVANCED_FACE('',(#1482),#1486,.F.);
#1482=FACE_BOUND('',#1483,.F.);
#1483=EDGE_LOOP('',(#1484,#1485,#611,#624));
#1484=ORIENTED_EDGE('',*,*,#583,.F.);
#1485=ORIENTED_EDGE('',*,*,#597,.T.);
#1486=PLANE('',#1487);
#1487=AXIS2_PLACEMENT_3D('',#580,#13,#127);
#1488=ADVANCED_FACE('',(#1489),#1493,.F.);
#1489=FACE_BOUND('',#1490,.F.);
#1490=EDGE_LOOP('',(#1491,#1492,#667,#680));
#1491=ORIENTED_EDGE('',*,*,#639,.F.);
#1492=ORIENTED_EDGE('',*,*,#653,.T.);
#1493=PLANE('',#1494);
#1494=AXIS2_PLACEMENT_3D('',#636,#13,#175);
#1495=ADVANCED_FACE('',(#1496),#1500,.F.);
#1496=FACE_BOUND('',#1497,.F.);
#1497=EDGE_LOOP('',(#1498,#1499,#723,#736));
#1498=ORIENTED_EDGE('',*,*,#695,.F.);
#1499=ORIENTED_EDGE('',*,*,#709,.T.);
#1500=PLANE('',#1501);
#1501=AXIS2_PLACEMENT_3D('',#692,#13,#127);
#1502=ADVANCED_FACE('',(#1503),#1507,.F.);
#1503=FACE_BOUND('',#1504,.F.);
#1504=EDGE_LOOP('',(#1505,#1506,#779,#792));
#1505=ORIENTED_EDGE('',*,*,#751,.F.);
#1506=ORIENTED_EDGE('',*,*,#765,.T.);
#1507=PLANE('',#1508);
#1508=AXIS2_PLACEMENT_3D('',#748,#13,#175);
#1509=ADVANCED_FACE('',(#1510),#1514,.F.);
#1510=FACE_BOUND('',#1511,.F.);
#1511=EDGE_LOOP('',(#1512,#1513,#835,#848));
#1512=ORIENTED_EDGE('',*,*,#807,.F.);
#1513=ORIENTED_EDGE('',*,*,#821,.T.);
#1514=PLANE('',#1515);
#1515=AXIS2_PLACEMENT_3D('',#804,#13,#245);
#1516=ADVANCED_FACE('',(#1517),#1521,.F.);
#1517=FACE_BOUND('',#1518,.F.);
#1518=EDGE_LOOP('',(#1519,#1520,#891,#904));
#1519=ORIENTED_EDGE('',*,*,#863,.F.);
#1520=ORIENTED_EDGE('',*,*,#877,.T.);
#1521=PLANE('',#1522);
#1522=AXIS2_PLACEMENT_3D('',#860,#13,#245);
#1523=ADVANCED_FACE('',(#1524),#1528,.F.);
#1524=FACE_BOUND('',#1525,.F.);
#1525=EDGE_LOOP('',(#1526,#1527,#947,#960));
#1526=ORIENTED_EDGE('',*,*,#919,.F.);
#1527=ORIENTED_EDGE('',*,*,#933,.T.);
#1528=PLANE('',#1529);
#1529=AXIS2_PLACEMENT_3D('',#916,#13,#245);
#1530=ADVANCED_FACE('',(#1531),#1535,.F.);
#1531=FACE_BOUND('',#1532,.F.);
#1532=EDGE_LOOP('',(#1533,#1534,#1003,#1016));
#1533=ORIENTED_EDGE('',*,*,#975,.F.);
#1534=ORIENTED_EDGE('',*,*,#989,.T.);
#1535=PLANE('',#1536);
#1536=AXIS2_PLACEMENT_3D('',#972,#13,#127);
#1537=ADVANCED_FACE('',(#1538),#1542,.F.);
#1538=FACE_BOUND('',#1539,.F.);
#1539=EDGE_LOOP('',(#1540,#1541,#1059,#1072));
#1540=ORIENTED_EDGE('',*,*,#1031,.F.);
#1541=ORIENTED_EDGE('',*,*,#1045,.T.);
#1542=PLANE('',#1543);
#1543=AXIS2_PLACEMENT_3D('',#1028,#13,#127);
#1544=ADVANCED_FACE('',(#1545),#1549,.F.);
#1545=FACE_BOUND('',#1546,.F.);
#1546=EDGE_LOOP('',(#1547,#1548,#1115,#1128));
#1547=ORIENTED_EDGE('',*,*,#1087,.F.);
#1548=ORIENTED_EDGE('',*,*,#1101,.T.);
#1549=PLANE('',#1550);
#1550=AXIS2_PLACEMENT_3D('',#1084,#13,#127);
#1551=ADVANCED_FACE('',(#1552),#1556,.F.);
#1552=FACE_BOUND('',#1553,.F.);
#1553=EDGE_LOOP('',(#1554,#1555,#1171,#1184));
#1554=ORIENTED_EDGE('',*,*,#1143,.F.);
#1555=ORIENTED_EDGE('',*,*,#1157,.T.);
#1556=PLANE('',#1557);
#1557=AXIS2_PLACEMENT_3D('',#1140,#13,#14);
#1558=ADVANCED_FACE('',(#1559),#1565,.F.);
#1559=FACE_BOUND('',#1560,.F.);
#1560=EDGE_LOOP('',(#1561,#1562,#1563,#1564));
#1561=ORIENTED_EDGE('',*,*,#1205,.T.);
#1562=ORIENTED_EDGE('',*,*,#1220,.T.);
#1563=ORIENTED_EDGE('',*,*,#1235,.T.);
#1564=ORIENTED_EDGE('',*,*,#1246,.T.);
#1565=PLANE('',#1566);
#1566=AXIS2_PLACEMENT_3D('',#1567,#13,#45);
#1567=CARTESIAN_POINT('',(1.387778780781E-17,0.,0.));
#1568=ADVANCED_FACE('',(#1569),#1573,.F.);
#1569=FACE_BOUND('',#1570,.F.);
#1570=EDGE_LOOP('',(#1571,#1572,#1287,#1300));
#1571=ORIENTED_EDGE('',*,*,#1259,.F.);
#1572=ORIENTED_EDGE('',*,*,#1273,.T.);
#1573=PLANE('',#1574);
#1574=AXIS2_PLACEMENT_3D('',#1256,#13,#245);
#1575=ADVANCED_FACE('',(#1576),#1580,.F.);
#1576=FACE_BOUND('',#1577,.F.);
#1577=EDGE_LOOP('',(#1578,#1579,#1343,#1356));
#1578=ORIENTED_EDGE('',*,*,#1315,.F.);
#1579=ORIENTED_EDGE('',*,*,#1329,.T.);
#1580=PLANE('',#1581);
#1581=AXIS2_PLACEMENT_3D('',#1312,#13,#14);
#1582=ADVANCED_FACE('',(#1583),#1587,.F.);
#1583=FACE_BOUND('',#1584,.F.);
#1584=EDGE_LOOP('',(#1585,#1586,#1399,#1412));
#1585=ORIENTED_EDGE('',*,*,#1371,.F.);
#1586=ORIENTED_EDGE('',*,*,#1385,.T.);
#1587=PLANE('',#1588);
#1588=AXIS2_PLACEMENT_3D('',#1368,#13,#245);
#1589=ADVANCED_FACE('',(#1590),#1594,.F.);
#1590=FACE_BOUND('',#1591,.F.);
#1591=EDGE_LOOP('',(#1592,#1593,#1455,#1468));
#1592=ORIENTED_EDGE('',*,*,#1427,.F.);
#1593=ORIENTED_EDGE('',*,*,#1441,.T.);
#1594=PLANE('',#1595);
#1595=AXIS2_PLACEMENT_3D('',#1424,#13,#245);
#1596=( GEOMETRIC_REPRESENTATION_CONTEXT(3) GLOBAL_UNCERTAINTY_ASSIGNED_CONTEXT((#1600)) GLOBAL_UNIT_ASSIGNED_CONTEXT((#1597,#1598,#1599)) REPRESENTATION_CONTEXT('Context #1','3D Context with UNIT and UNCERTAINTY') );
#1597=( LENGTH_UNIT() NAMED_UNIT(*) SI_UNIT(.MILLI.,.METRE.) );
#1598=( NAMED_UNIT(*) PLANE_ANGLE_UNIT() SI_UNIT($,.RADIAN.) );
#1599=( NAMED_UNIT(*) SI_UNIT($,.STERADIAN.) SOLID_ANGLE_UNIT() );
#1600=UNCERTAINTY_MEASURE_WITH_UNIT(LENGTH_MEASURE(1.E-07),#1597,'distance_accuracy_value','confusion accuracy');
#1601=PRODUCT_RELATED_PRODUCT_CATEGORY('part',$,(#7));
#1602=MECHANICAL_DESIGN_GEOMETRIC_PRESENTATION_REPRESENTATION('',(#1603,#1613,#1614,#1615,#1616,#1617,#1618,#1627,#1636,#1637,#1638,#1639,#1640,#1641,#1642,#1643,#1644,#1645,#1646,#1647,#1648,#1649,#1650,#1651,#1652,#1653,#1654,#1655,#1656,#1657,#1658,#1659,#1660,#1661,#1662,#1663,#1664,#1665,#1666,#1667,#1668,#1669,#1670,#1671,#1672,#1673,#1674,#1675,#1676,#1677,#1678,#1679,#1680,#1681,#1682,#1683,#1684,#1685,#1686,#1687,#1688,#1689,#1690,#1691,#1692,#1693,#1694,#1695,#1696,#1697,#1698,#1699,#1700,#1701,#1702,#1703,#1704,#1705,#1706,#1707,#1708,#1709,#1710,#1711,#1712,#1713,#1714,#1715,#1716,#1717,#1718,#1719),#1596);
#1603=STYLED_ITEM('color',(#1604),#17);
#1604=PRESENTATION_STYLE_ASSIGNMENT((#1605,#1611));
#1605=SURFACE_STYLE_USAGE(.BOTH.,#1606);
#1606=SURFACE_SIDE_STYLE('',(#1607));
#1607=SURFACE_STYLE_FILL_AREA(#1608);
#1608=FILL_AREA_STYLE('',(#1609));
#1609=FILL_AREA_STYLE_COLOUR('',#1610);
#1610=COLOUR_RGB('',0.147999998088,0.145000001626,0.145000001626);
#1611=CURVE_STYLE('',#1612,POSITIVE_LENGTH_MEASURE(0.1),#1610);
#1612=DRAUGHTING_PRE_DEFINED_CURVE_FONT('continuous');
#1613=STYLED_ITEM('color',(#1604),#46);
#1614=STYLED_ITEM('color',(#1604),#66);
#1615=STYLED_ITEM('color',(#1604),#88);
#1616=STYLED_ITEM('color',(#1604),#102);
#1617=STYLED_ITEM('color',(#1604),#505);
#1618=STYLED_ITEM('color',(#1619),#512);
#1619=PRESENTATION_STYLE_ASSIGNMENT((#1620,#1626));
#1620=SURFACE_STYLE_USAGE(.BOTH.,#1621);
#1621=SURFACE_SIDE_STYLE('',(#1622));
#1622=SURFACE_STYLE_FILL_AREA(#1623);
#1623=FILL_AREA_STYLE('',(#1624));
#1624=FILL_AREA_STYLE_COLOUR('',#1625);
#1625=COLOUR_RGB('',0.690999998585,0.664000007176,0.597999987832);
#1626=CURVE_STYLE('',#1612,POSITIVE_LENGTH_MEASURE(0.1),#1625);
#1627=STYLED_ITEM('color',(#1628),#518);
#1628=PRESENTATION_STYLE_ASSIGNMENT((#1629,#1635));
#1629=SURFACE_STYLE_USAGE(.BOTH.,#1630);
#1630=SURFACE_SIDE_STYLE('',(#1631));
#1631=SURFACE_STYLE_FILL_AREA(#1632);
#1632=FILL_AREA_STYLE('',(#1633));
#1633=FILL_AREA_STYLE_COLOUR('',#1634);
#1634=COLOUR_RGB('',0.823999987314,0.819999987296,0.781000009244);
#1635=CURVE_STYLE('',#1612,POSITIVE_LENGTH_MEASURE(0.1),#1634);
#1636=STYLED_ITEM('color',(#1628),#537);
#1637=STYLED_ITEM('color',(#1628),#552);
#1638=STYLED_ITEM('color',(#1628),#565);
#1639=STYLED_ITEM('color',(#1628),#574);
#1640=STYLED_ITEM('color',(#1628),#593);
#1641=STYLED_ITEM('color',(#1628),#608);
#1642=STYLED_ITEM('color',(#1628),#621);
#1643=STYLED_ITEM('color',(#1628),#630);
#1644=STYLED_ITEM('color',(#1628),#649);
#1645=STYLED_ITEM('color',(#1628),#664);
#1646=STYLED_ITEM('color',(#1628),#677);
#1647=STYLED_ITEM('color',(#1628),#686);
#1648=STYLED_ITEM('color',(#1628),#705);
#1649=STYLED_ITEM('color',(#1628),#720);
#1650=STYLED_ITEM('color',(#1628),#733);
#1651=STYLED_ITEM('color',(#1628),#742);
#1652=STYLED_ITEM('color',(#1628),#761);
#1653=STYLED_ITEM('color',(#1628),#776);
#1654=STYLED_ITEM('color',(#1628),#789);
#1655=STYLED_ITEM('color',(#1628),#798);
#1656=STYLED_ITEM('color',(#1628),#817);
#1657=STYLED_ITEM('color',(#1628),#832);
#1658=STYLED_ITEM('color',(#1628),#845);
#1659=STYLED_ITEM('color',(#1628),#854);
#1660=STYLED_ITEM('color',(#1628),#873);
#1661=STYLED_ITEM('color',(#1628),#888);
#1662=STYLED_ITEM('color',(#1628),#901);
#1663=STYLED_ITEM('color',(#1628),#910);
#1664=STYLED_ITEM('color',(#1628),#929);
#1665=STYLED_ITEM('color',(#1628),#944);
#1666=STYLED_ITEM('color',(#1628),#957);
#1667=STYLED_ITEM('color',(#1628),#966);
#1668=STYLED_ITEM('color',(#1628),#985);
#1669=STYLED_ITEM('color',(#1628),#1000);
#1670=STYLED_ITEM('color',(#1628),#1013);
#1671=STYLED_ITEM('color',(#1628),#1022);
#1672=STYLED_ITEM('color',(#1628),#1041);
#1673=STYLED_ITEM('color',(#1628),#1056);
#1674=STYLED_ITEM('color',(#1628),#1069);
#1675=STYLED_ITEM('color',(#1628),#1078);
#1676=STYLED_ITEM('color',(#1628),#1097);
#1677=STYLED_ITEM('color',(#1628),#1112);
#1678=STYLED_ITEM('color',(#1628),#1125);
#1679=STYLED_ITEM('color',(#1628),#1134);
#1680=STYLED_ITEM('color',(#1628),#1153);
#1681=STYLED_ITEM('color',(#1628),#1168);
#1682=STYLED_ITEM('color',(#1628),#1181);
#1683=STYLED_ITEM('color',(#1628),#1190);
#1684=STYLED_ITEM('color',(#1628),#1209);
#1685=STYLED_ITEM('color',(#1628),#1224);
#1686=STYLED_ITEM('color',(#1628),#1239);
#1687=STYLED_ITEM('color',(#1628),#1250);
#1688=STYLED_ITEM('color',(#1628),#1269);
#1689=STYLED_ITEM('color',(#1628),#1284);
#1690=STYLED_ITEM('color',(#1628),#1297);
#1691=STYLED_ITEM('color',(#1628),#1306);
#1692=STYLED_ITEM('color',(#1628),#1325);
#1693=STYLED_ITEM('color',(#1628),#1340);
#1694=STYLED_ITEM('color',(#1628),#1353);
#1695=STYLED_ITEM('color',(#1628),#1362);
#1696=STYLED_ITEM('color',(#1628),#1381);
#1697=STYLED_ITEM('color',(#1628),#1396);
#1698=STYLED_ITEM('color',(#1628),#1409);
#1699=STYLED_ITEM('color',(#1628),#1418);
#1700=STYLED_ITEM('color',(#1628),#1437);
#1701=STYLED_ITEM('color',(#1628),#1452);
#1702=STYLED_ITEM('color',(#1628),#1465);
#1703=STYLED_ITEM('color',(#1628),#1474);
#1704=STYLED_ITEM('color',(#1628),#1481);
#1705=STYLED_ITEM('color',(#1628),#1488);
#1706=STYLED_ITEM('color',(#1628),#1495);
#1707=STYLED_ITEM('color',(#1628),#1502);
#1708=STYLED_ITEM('color',(#1628),#1509);
#1709=STYLED_ITEM('color',(#1628),#1516);
#1710=STYLED_ITEM('color',(#1628),#1523);
#1711=STYLED_ITEM('color',(#1628),#1530);
#1712=STYLED_ITEM('color',(#1628),#1537);
#1713=STYLED_ITEM('color',(#1628),#1544);
#1714=STYLED_ITEM('color',(#1628),#1551);
#1715=STYLED_ITEM('color',(#1628),#1558);
#1716=STYLED_ITEM('color',(#1628),#1568);
#1717=STYLED_ITEM('color',(#1628),#1575);
#1718=STYLED_ITEM('color',(#1628),#1582);
#1719=STYLED_ITEM('color',(#1628),#1589);
ENDSEC;
END-ISO-10303-21;
